SplineFontDB: 3.0
FontName: MScoreTabulature
FullName: MScoreTabulature
FamilyName: MScoreTabulature
Weight: Medium
Copyright: Copyright (c) 2012-15, Maurizio M. Gavioli. Licensed under the SIL Open Font Licence, Version 1.1
UComments: "To be used with MuseScore for Renaissance-style tabulatures." 
FontLog: "2010-12-3: Created." 
Version: 001.000
DefaultBaseFilename: mscoreTab
ItalicAngle: 0
UnderlinePosition: -100
UnderlineWidth: 50
Ascent: 824
Descent: 200
LayerCount: 2
Layer: 0 1 "Back"  1
Layer: 1 1 "Fore"  0
XUID: [1021 577 2134738168 11462241]
FSType: 0
OS2Version: 0
OS2_WeightWidthSlopeOnly: 0
OS2_UseTypoMetrics: 1
CreationTime: 1291378652
ModificationTime: 1523836411
PfmFamily: 17
TTFWeight: 500
TTFWidth: 5
LineGap: 92
VLineGap: 0
OS2TypoAscent: 0
OS2TypoAOffset: 1
OS2TypoDescent: 0
OS2TypoDOffset: 1
OS2TypoLinegap: 92
OS2WinAscent: 0
OS2WinAOffset: 1
OS2WinDescent: 0
OS2WinDOffset: 1
HheadAscent: 0
HheadAOffset: 1
HheadDescent: 0
HheadDOffset: 1
OS2Vendor: 'PfEd'
Lookup: 4 0 1 "'liga' Standard Ligatures in Latin lookup 0"  {"'liga' Standard Ligatures in Latin lookup 0-1"  } ['liga' ('DFLT' <'dflt' > 'latn' <'dflt' > ) ]
Lookup: 258 0 0 "'kern' Horizontal Kerning lookup 0"  {"'kern' Horizontal Kerning lookup 0-1" [153,15,2] } ['kern' ('DFLT' <'dflt' > ) ]
MarkAttachClasses: 1
DEI: 91125
LangName: 1033 "" "" "" "" "" "" "" "" "" "" "" "" "" "Copyright (c) 2012-15, Maurizio M. Gavioli (mmg@vistamaresoft.com),+AAoA-with Reserved Font Name MScoreTabulature.+AAoACgAA-This Font Software is licensed under the SIL Open Font License, Version 1.1.+AAoA-The full text of this license is available with a FAQ at: http://scripts.sil.org/OFL" "http://scripts.sil.org/OFL" 
GaspTable: 1 65535 2 0
Encoding: UnicodeBmp
UnicodeInterp: none
NameList: Adobe Glyph List
DisplaySize: -72
AntiAlias: 1
FitToEm: 1
WinInfo: 312 26 10
BeginPrivate: 0
EndPrivate
Grid
275 -200 m 25
275 824 m 25,2,-1
 275 -200 l 25
340 -200 m 25
-300 -135 m 25,0,-1
 700 -135 l 25
340 824 m 25,2,-1

StartChar: zero
Encoding: 48 48 1
Width: 550
Flags: MW
HStem: -10 60<218.653 331.347> 500 60<218.653 331.347>
VStem: 25 120<155.758 394.242> 405 120<155.758 394.242>
LayerCount: 2
Fore
SplineSet
145 275 m 131,-1,1
 145 182 145 182 183 116 c 128,-1,2
 221 50 221 50 275 50 c 131,-1,3
 329 50 329 50 367 116 c 128,-1,4
 405 182 405 182 405 275 c 131,-1,5
 405 368 405 368 367 434 c 128,-1,6
 329 500 329 500 275 500 c 131,-1,7
 221 500 221 500 183 434 c 128,-1,0
 145 368 145 368 145 275 c 131,-1,1
25 275 m 131,-1,9
 25 393 25 393 98.5 476.5 c 128,-1,10
 172 560 172 560 275 560 c 131,-1,11
 378 560 378 560 451.5 476.5 c 128,-1,12
 525 393 525 393 525 275 c 131,-1,13
 525 157 525 157 451.5 73.5 c 128,-1,14
 378 -10 378 -10 275 -10 c 131,-1,15
 172 -10 172 -10 98.5 73.5 c 128,-1,8
 25 157 25 157 25 275 c 131,-1,9
EndSplineSet
Validated: 1
EndChar

StartChar: one
Encoding: 49 49 2
Width: 550
VWidth: 0
Flags: MW
HStem: 0 60<140.969 215 335 409.031> 490 60<140.969 215 335 409.031>
VStem: 215 120<60 490>
LayerCount: 2
Back
SplineSet
-30 0 m 128,-1,29
 -30 12 -30 12 -21 21 c 128,-1,30
 -12 30 -12 30 0 30 c 128,-1,31
 12 30 12 30 21 21 c 128,-1,32
 30 12 30 12 30 0 c 128,-1,33
 30 -12 30 -12 21 -21 c 128,-1,34
 12 -30 12 -30 0 -30 c 128,-1,35
 -12 -30 -12 -30 -21 -21 c 128,-1,28
 -30 -12 -30 -12 -30 0 c 128,-1,29
EndSplineSet
Fore
SplineSet
380 490 m 2,0,-1
 335 490 l 1,1,-1
 335 60 l 1,2,-1
 380 60 l 2,3,4
 392 60 392 60 401 51 c 128,-1,5
 410 42 410 42 410 30 c 128,-1,6
 410 18 410 18 401 9 c 128,-1,7
 392 0 392 0 380 0 c 2,8,-1
 170 0 l 2,9,10
 158 0 158 0 149 9 c 128,-1,11
 140 18 140 18 140 30 c 128,-1,12
 140 42 140 42 149 51 c 128,-1,13
 158 60 158 60 170 60 c 26,14,-1
 215 60 l 1,15,-1
 215 490 l 1,16,-1
 170 490 l 2,17,18
 158 490 158 490 149 499 c 128,-1,19
 140 508 140 508 140 520 c 128,-1,20
 140 532 140 532 149 541 c 128,-1,21
 158 550 158 550 170 550 c 2,22,-1
 380 550 l 2,23,24
 392 550 392 550 401 541 c 128,-1,25
 410 532 410 532 410 520 c 128,-1,26
 410 508 410 508 401 499 c 128,-1,27
 392 490 392 490 380 490 c 2,0,-1
EndSplineSet
Validated: 1
EndChar

StartChar: two
Encoding: 50 50 3
Width: 550
VWidth: 0
Flags: MW
HStem: 0 90<277 446.592> 455 105<182.716 285.117>
VStem: 310 105<265.815 429.405>
LayerCount: 2
Back
SplineSet
153 453 m 16,29,30
 187 500 187 500 257 500 c 19,31,32
 367 500 367 500 367 364 c 16,33,34
 367.5 228 367.5 228 168 60 c 9,35,-1
 443 60 l 25,36,-1
60 453 m 16,0,1
 94 500 94 500 164 500 c 19,2,3
 274 500 274 500 274 364 c 16,4,5
 274.5 228 274.5 228 75 60 c 9,6,-1
 350 60 l 25,7,-1
EndSplineSet
Fore
SplineSet
415 0 m 2,0,-1
 114 0 l 2,1,2
 90 0 90 0 90 37 c 0,3,4
 90 61 90 61 122 77 c 0,5,6
 310 171 310 171 310 340 c 0,7,8
 310 455 310 455 232 455 c 0,9,10
 187 455 187 455 175 417 c 128,-1,11
 163 379 163 379 137 379 c 0,12,13
 109 379 109 379 102.5 393 c 128,-1,14
 96 407 96 407 96 431 c 3,15,16
 96 495 96 495 147 528 c 0,17,18
 196 560 196 560 251 560 c 11,19,20
 415 560 415 560 415 389 c 0,21,22
 415 228 415 228 277 90 c 1,23,-1
 415 90 l 2,24,25
 434 90 434 90 447 77 c 128,-1,26
 460 64 460 64 460 45 c 128,-1,27
 460 26 460 26 447 13 c 128,-1,28
 434 0 434 0 415 0 c 2,0,-1
EndSplineSet
Validated: 1
EndChar

StartChar: three
Encoding: 51 51 4
Width: 550
VWidth: 1000
Flags: MW
HStem: -9 59<107.453 240.065> 499 61<153.258 273.236>
VStem: 283 120<400.502 488.11> 292 120<105.919 262.362>
LayerCount: 2
Fore
SplineSet
315 345 m 1,0,1
 362 324 362 324 387 284.5 c 128,-1,2
 412 245 412 245 412 186 c 3,3,4
 412 108 412 108 339.5 49.5 c 128,-1,5
 267 -9 267 -9 177 -9 c 3,6,7
 138 -9 138 -9 112.5 3 c 128,-1,8
 87 15 87 15 87 33 c 0,9,10
 87 66 87 66 118 66 c 0,11,12
 132 66 132 66 146 57 c 0,13,14
 157 50 157 50 189 50 c 3,15,16
 222 50 222 50 257 87.5 c 128,-1,17
 292 125 292 125 292 192 c 3,18,19
 292 241 292 241 261 273 c 128,-1,20
 230 305 230 305 186 312 c 24,21,22
 172 314 172 314 165 321 c 0,23,24
 156 330 156 330 156 342 c 128,-1,25
 156 354 156 354 165 363 c 128,-1,26
 174 372 174 372 186 372 c 0,27,28
 237 372 237 372 260 388.5 c 128,-1,29
 283 405 283 405 283 446 c 3,30,31
 283 471 283 471 270.5 485 c 128,-1,32
 258 499 258 499 232 499 c 3,33,34
 207 499 207 499 191 489.5 c 128,-1,35
 175 480 175 480 157 480 c 3,36,37
 129 480 129 480 129 508 c 3,38,39
 129 532 129 532 166 546 c 128,-1,40
 203 560 203 560 268 560 c 3,41,42
 336 560 336 560 369.5 540 c 128,-1,43
 403 520 403 520 403 472 c 3,44,45
 403 433 403 433 380 399.5 c 128,-1,46
 357 366 357 366 315 345 c 1,0,1
EndSplineSet
Validated: 1
EndChar

StartChar: four
Encoding: 52 52 5
Width: 550
VWidth: 0
Flags: MW
HStem: 112 86<136 288 408 549.966>
VStem: 288 120<-38.5706 112 198 379>
LayerCount: 2
Fore
SplineSet
136 198 m 25,0,-1
 288 198 l 25,1,-1
 288 379 l 25,2,-1
 136 198 l 25,0,-1
408 44 m 18,3,4
 408 4 408 4 388 -35 c 128,-1,5
 368 -74 368 -74 324 -74 c 3,6,7
 302 -74 302 -74 295 -53 c 128,-1,8
 288 -32 288 -32 288 -12 c 2,9,-1
 288 112 l 25,10,-1
 0 112 l 25,11,-1
 0 168 l 25,12,-1
 318 550 l 25,13,-1
 408 550 l 25,14,-1
 408 198 l 17,15,-1
 503 198 l 2,16,17
 554 198 554 198 554 155 c 131,-1,18
 554 112 554 112 503 112 c 26,19,-1
 408 112 l 25,20,-1
 408 44 l 18,3,4
EndSplineSet
Validated: 1
EndChar

StartChar: five
Encoding: 53 53 6
Width: 550
VWidth: 0
Flags: MW
HStem: 460 90<308 450>
VStem: 300 120<131.953 288.849>
LayerCount: 2
Fore
SplineSet
300 550 m 25,0,-1
 540 550 l 25,1,-1
 450 460 l 25,2,-1
 308 460 l 25,3,-1
 250 411 l 17,4,5
 331 411 331 411 375.5 361 c 152,-1,6
 420 311 420 311 420 220 c 27,7,8
 420 98 420 98 302.5 23.5 c 128,-1,9
 185 -51 185 -51 41 -51 c 0,10,11
 21 -51 21 -51 21 -34 c 155,-1,12
 21 -17 21 -17 49 -11 c 0,13,14
 154 10 154 10 227 73.5 c 136,-1,15
 300 137 300 137 300 205 c 3,16,17
 300 295 300 295 232 328 c 144,-1,18
 164 361 164 361 98 361 c 0,19,20
 88 361 88 361 80 360 c 9,21,-1
 300 550 l 25,0,-1
EndSplineSet
Validated: 1
EndChar

StartChar: six
Encoding: 54 54 7
Width: 550
VWidth: 1000
Flags: MW
HStem: 498 63<385.364 510>
VStem: 85 100<115.987 305.776> 365 100<111.066 305.211>
LayerCount: 2
Fore
SplineSet
185 205 m 131,-1,1
 185 155 185 155 208 102.5 c 128,-1,2
 231 50 231 50 275 50 c 131,-1,3
 319 50 319 50 342 102.5 c 128,-1,4
 365 155 365 155 365 205 c 131,-1,5
 365 255 365 255 342 307.5 c 128,-1,6
 319 360 319 360 275 360 c 131,-1,7
 231 360 231 360 208 307.5 c 128,-1,0
 185 255 185 255 185 205 c 131,-1,1
308 418 m 1,8,9
 378 398 378 398 421.5 350.5 c 128,-1,10
 465 303 465 303 465 211 c 131,-1,11
 465 119 465 119 402.5 54.5 c 128,-1,12
 340 -10 340 -10 275 -10 c 131,-1,13
 210 -10 210 -10 147.5 57.5 c 128,-1,14
 85 125 85 125 85 217 c 3,15,16
 85 365 85 365 214 474 c 0,17,18
 317 561 317 561 510 561 c 1,19,-1
 510 498 l 1,20,21
 368 498 368 498 308 418 c 1,8,9
EndSplineSet
Validated: 1
EndChar

StartChar: seven
Encoding: 55 55 8
Width: 550
VWidth: 1000
Flags: MW
HStem: 470 80<60 423>
LayerCount: 2
Fore
SplineSet
514 550 m 1,0,-1
 514 470 l 1,1,2
 384 320 384 320 319 215 c 128,-1,3
 254 110 254 110 190 -60 c 1,4,-1
 70 -60 l 1,5,6
 144 110 144 110 211.5 215 c 128,-1,7
 279 320 279 320 423 470 c 1,8,-1
 60 470 l 1,9,-1
 60 550 l 1,10,-1
 514 550 l 1,0,-1
EndSplineSet
Validated: 1
EndChar

StartChar: eight
Encoding: 56 56 9
Width: 550
VWidth: 1000
Flags: MW
HStem: -10 60<223.69 324.711> 262 60<227.012 322.988> 500 60<222.928 327.072>
VStem: 105 90<80.8623 226.877> 115 80<350.532 471.747> 355 90<82.2604 226.996> 355 80<350.532 471.747>
LayerCount: 2
Fore
SplineSet
195 156 m 131,-1,1
 195 120 195 120 214.5 85 c 128,-1,2
 234 50 234 50 274 50 c 131,-1,3
 314 50 314 50 334.5 85 c 128,-1,4
 355 120 355 120 355 156 c 131,-1,5
 355 192 355 192 333 227 c 128,-1,6
 311 262 311 262 275 262 c 131,-1,7
 239 262 239 262 217 227 c 128,-1,0
 195 192 195 192 195 156 c 131,-1,1
195 411 m 131,-1,9
 195 377 195 377 218 349.5 c 128,-1,10
 241 322 241 322 275 322 c 131,-1,11
 309 322 309 322 332 349.5 c 128,-1,12
 355 377 355 377 355 411 c 131,-1,13
 355 445 355 445 332 472.5 c 128,-1,14
 309 500 309 500 275 500 c 131,-1,15
 241 500 241 500 218 472.5 c 128,-1,8
 195 445 195 445 195 411 c 131,-1,9
343 290 m 1,16,17
 369 285 369 285 407 251.5 c 128,-1,18
 445 218 445 218 445 148 c 131,-1,19
 445 78 445 78 391 34 c 128,-1,20
 337 -10 337 -10 275 -10 c 131,-1,21
 213 -10 213 -10 159 34 c 128,-1,22
 105 78 105 78 105 148 c 131,-1,23
 105 218 105 218 143 251 c 128,-1,24
 181 284 181 284 207 290 c 1,25,26
 183 301 183 301 149 330.5 c 128,-1,27
 115 360 115 360 115 420 c 131,-1,28
 115 480 115 480 162 520 c 128,-1,29
 209 560 209 560 275 560 c 131,-1,30
 341 560 341 560 388 520 c 128,-1,31
 435 480 435 480 435 420 c 131,-1,32
 435 360 435 360 401 330.5 c 128,-1,33
 367 301 367 301 343 290 c 1,16,17
EndSplineSet
Validated: 1
EndChar

StartChar: nine
Encoding: 57 57 10
Width: 550
VWidth: 1000
Flags: MW
HStem: -11 63<40 164.636> 500 60<226.922 323.078>
VStem: 85 100<244.789 438.934> 365 100<244.224 434.013>
LayerCount: 2
Fore
SplineSet
365 345 m 131,-1,1
 365 395 365 395 342 447.5 c 128,-1,2
 319 500 319 500 275 500 c 131,-1,3
 231 500 231 500 208 447.5 c 128,-1,4
 185 395 185 395 185 345 c 131,-1,5
 185 295 185 295 208 242.5 c 128,-1,6
 231 190 231 190 275 190 c 131,-1,7
 319 190 319 190 342 242.5 c 128,-1,0
 365 295 365 295 365 345 c 131,-1,1
242 132 m 1,8,9
 172 152 172 152 128.5 199.5 c 128,-1,10
 85 247 85 247 85 339 c 131,-1,11
 85 431 85 431 147.5 495.5 c 128,-1,12
 210 560 210 560 275 560 c 131,-1,13
 340 560 340 560 402.5 492.5 c 128,-1,14
 465 425 465 425 465 333 c 3,15,16
 465 185 465 185 336 76 c 0,17,18
 233 -11 233 -11 40 -11 c 1,19,-1
 40 52 l 1,20,21
 182 52 182 52 242 132 c 1,8,9
EndSplineSet
Validated: 1
EndChar

StartChar: a
Encoding: 97 97 11
Width: 680
VWidth: 0
Flags: W
HStem: -10 118<209.473 305.791> 428 100<351 467>
VStem: 77 116<123.839 265.359>
LayerCount: 2
Back
SplineSet
603 44 m 9,0,-1
 477 -10 l 17,1,2
 386 144 386 144 351 428 c 17,3,4
 193 428 193 428 193 200 c 3,5,6
 193 108 193 108 252 108 c 3,7,8
 336 108 336 108 427 242 c 1,9,-1
 455 193 l 25,10,11
 332 -10 332 -10 245 -10 c 3,12,13
 77 -10 77 -10 77 161 c 3,14,15
 77 246 77 246 151 368 c 0,16,17
 199 446 199 446 313 504 c 24,18,19
 360 528 360 528 467 528 c 9,20,21
 506 174 506 174 603 44 c 9,0,-1
EndSplineSet
Fore
SplineSet
603 44 m 5,0,-1
 477 -10 l 5,1,2
 441 50 441 50 414 130 c 5,3,4
 317 -10 317 -10 245 -10 c 7,5,6
 77 -10 77 -10 77 161 c 7,7,8
 77 246 77 246 151 368 c 4,9,10
 199 446 199 446 313 504 c 4,11,12
 360 528 360 528 467 528 c 5,13,14
 506 174 506 174 603 44 c 5,0,-1
394 198 m 5,15,16
 367 300 367 300 351 428 c 5,17,18
 193 428 193 428 193 200 c 7,19,20
 193 108 193 108 252 108 c 7,21,22
 321 108 321 108 394 198 c 5,15,16
EndSplineSet
Validated: 1
EndChar

StartChar: b
Encoding: 98 98 12
Width: 680
VWidth: 0
Flags: W
HStem: -10 58<136.5 345.458> 245 71<276.548 384.337> 617 54<292.359 438.611>
VStem: 104 104<240.648 484.672> 396 114<113.104 234.038> 480 96<489.948 577.28>
LayerCount: 2
Back
SplineSet
147 -10 m 259,0,1
 126 -10 126 -10 121 52 c 256,2,3
 104 263 104 263 104 320 c 267,4,5
 104 490 104 490 168 576 c 280,6,7
 239 671 239 671 366 671 c 259,8,9
 458 671 458 671 508 643 c 256,10,11
 576 605 576 605 576 564 c 259,12,13
 576 459 576 459 392 340 c 257,14,15
 415 362 415 362 448 426 c 256,16,17
 480 488 480 488 480 531 c 259,18,19
 480 559 480 559 446 589 c 256,20,21
 414 617 414 617 362 617 c 259,22,23
 306 617 306 617 276 578 c 256,24,25
 208 490 208 490 208 325 c 259,26,27
 208 48 208 48 247 48 c 259,28,29
 323 48 323 48 353 75 c 256,30,31
 396 112 396 112 396 182 c 259,32,33
 396 245 396 245 331 245 c 259,34,35
 262 245 262 245 192 189 c 265,36,-1
 184 209 l 257,37,38
 274 316 274 316 347 316 c 259,39,40
 436 316 436 316 472 288 c 256,41,42
 510 260 510 260 510 203 c 259,43,44
 510 95 510 95 408 36 c 256,45,46
 328 -10 328 -10 147 -10 c 259,0,1
EndSplineSet
Fore
SplineSet
147 -10 m 3,0,1
 126 -10 126 -10 121 52 c 0,2,3
 104 263 104 263 104 320 c 3,4,5
 104 490 104 490 168 576 c 0,6,7
 239 671 239 671 366 671 c 3,8,9
 458 671 458 671 508 643 c 0,10,11
 576 605 576 605 576 564 c 3,12,13
 576 459 576 459 392 340 c 1,14,15
 415 362 415 362 448 426 c 0,16,17
 480 488 480 488 480 531 c 3,18,19
 480 559 480 559 446 589 c 0,20,21
 414 617 414 617 362 617 c 3,22,23
 306 617 306 617 276 578 c 0,24,25
 208 487 208 487 208 325 c 3,26,27
 208 277 208 277 209 237 c 1,28,29
 284 316 284 316 347 316 c 3,30,31
 436 316 436 316 472 288 c 0,32,33
 510 260 510 260 510 203 c 3,34,35
 510 95 510 95 408 36 c 0,36,37
 328 -10 328 -10 147 -10 c 3,0,1
210 203 m 1,38,39
 217 48 217 48 247 48 c 3,40,41
 319 48 319 48 353 75 c 0,42,43
 396 112 396 112 396 182 c 3,44,45
 396 245 396 245 331 245 c 3,46,47
 271 245 271 245 210 203 c 1,38,39
EndSplineSet
Validated: 1
EndChar

StartChar: c
Encoding: 99 99 13
Width: 680
VWidth: 0
Flags: W
HStem: 443 134<282.568 503.532>
VStem: 133 126<84.9937 417.531>
LayerCount: 2
Fore
SplineSet
398 70 m 1,0,1
 293 -10 293 -10 212 -10 c 3,2,3
 172 -10 172 -10 154 59 c 0,4,5
 133 138 133 138 133 279 c 3,6,7
 133 473 133 473 156 480 c 0,8,9
 202 494 202 494 212 525 c 256,10,11
 229 577 229 577 260 577 c 2,12,13
 442 577 l 26,14,15
 466 577 466 577 476 586 c 0,16,17
 489 598 489 598 504 598 c 259,18,19
 547 598 547 598 547 552 c 27,20,21
 547 449 547 449 488 449 c 0,22,23
 422 449 422 449 315 443 c 0,24,25
 282 441 282 441 273 391 c 0,26,27
 259 319 259 319 259 256 c 3,28,29
 259 137 259 137 272 94 c 0,30,31
 279 72 279 72 398 70 c 1,0,1
EndSplineSet
Validated: 1
EndChar

StartChar: d
Encoding: 100 100 14
Width: 680
VWidth: 0
Flags: W
HStem: -10 112<276.25 403.586> 597 102<-35.6163 28.7944>
VStem: 126 94<157.903 306.869> 440 105<144.774 296.165>
LayerCount: 2
Back
SplineSet
-34 699 m 257,0,1
 71 679 71 679 213 612 c 256,2,3
 358 544 358 544 434 462 c 256,4,5
 545 342 545 342 545 252 c 259,6,7
 545 152 545 152 478 76 c 256,8,9
 402 -10 402 -10 330 -10 c 259,10,11
 259 -10 259 -10 192 48 c 256,12,13
 126 104 126 104 126 207 c 259,14,15
 126 295 126 295 173 351 c 256,16,17
 215 402 215 402 319 444 c 257,18,-1
 357 406 l 257,19,20
 305 383 305 383 251 319 c 256,21,22
 220 282 220 282 220 232 c 259,23,24
 220 178 220 178 255 142 c 256,25,26
 294 102 294 102 344 102 c 259,27,28
 397 102 397 102 419 127 c 256,29,30
 440 150 440 150 440 224 c 259,31,32
 440 295 440 295 342 393 c 256,33,34
 274 461 274 461 187 509 c 256,35,36
 78 570 78 570 -57 597 c 257,37,-1
 -34 699 l 257,0,1
EndSplineSet
Fore
SplineSet
-34 699 m 1,0,1
 71 679 71 679 213 612 c 0,2,3
 358 544 358 544 434 462 c 0,4,5
 545 342 545 342 545 252 c 3,6,7
 545 152 545 152 478 76 c 0,8,9
 402 -10 402 -10 330 -10 c 3,10,11
 259 -10 259 -10 192 48 c 0,12,13
 126 104 126 104 126 207 c 3,14,15
 126 295 126 295 173 351 c 0,16,17
 210 396 210 396 297 434 c 1,18,19
 247 476 247 476 187 509 c 0,20,21
 78 570 78 570 -57 597 c 1,22,-1
 -34 699 l 1,0,1
338 397 m 0,23,24
 295 372 295 372 251 319 c 0,25,26
 220 282 220 282 220 232 c 3,27,28
 220 178 220 178 255 142 c 0,29,30
 294 102 294 102 344 102 c 3,31,32
 397 102 397 102 419 127 c 0,33,34
 440 150 440 150 440 224 c 3,35,36
 440 295 440 295 342 393 c 0,37,38
 340 395 340 395 338 397 c 0,23,24
EndSplineSet
Validated: 1
EndChar

StartChar: e
Encoding: 101 101 15
Width: 680
VWidth: 0
Flags: W
HStem: -10 98<366.308 460.719> 460 83<280.492 397.717>
VStem: 159 103<202.604 422.99> 413 108<318.547 444.363>
LayerCount: 2
Back
SplineSet
542 70 m 259,0,1
 542 50 542 50 488 24 c 0,2,3
 416 -10 416 -10 336 -10 c 259,4,5
 253 -10 253 -10 203 81 c 256,6,7
 159 161 159 161 159 328 c 259,8,9
 159 414 159 414 222 479 c 256,10,11
 285 543 285 543 355 543 c 259,12,13
 416 543 416 543 466 502 c 256,14,15
 521 458 521 458 521 402 c 259,16,17
 521 334 521 334 475 288 c 256,18,19
 388 201 388 201 294 150 c 257,20,-1
 271 194 l 257,21,22
 343 242 343 242 377 288 c 256,23,24
 413 336 413 336 413 386 c 259,25,26
 413 460 413 460 340 460 c 259,27,28
 299 460 299 460 275 432 c 0,29,30
 262 416 262 416 262 322 c 259,31,32
 262 219 262 219 306 153 c 256,33,34
 349 88 349 88 527 88 c 259,35,36
 542 88 542 88 542 70 c 259,0,1
EndSplineSet
Fore
SplineSet
355 543 m 3,0,1
 416 543 416 543 466 502 c 0,2,3
 521 458 521 458 521 402 c 3,4,5
 521 334 521 334 475 288 c 0,6,7
 393 206 393 206 304 156 c 1,8,9
 305 155 305 155 306 153 c 1,10,11
 349 88 349 88 527 88 c 3,12,13
 542 88 542 88 542 70 c 3,14,15
 542 50 542 50 488 24 c 0,16,17
 416 -10 416 -10 336 -10 c 3,18,19
 253 -10 253 -10 203 81 c 0,20,21
 159 161 159 161 159 328 c 3,22,23
 159 414 159 414 222 479 c 0,24,25
 285 543 285 543 355 543 c 3,0,1
282 201 m 1,26,27
 346 245 346 245 377 288 c 0,28,29
 413 336 413 336 413 386 c 3,30,31
 413 460 413 460 340 460 c 3,32,33
 299 460 299 460 275 432 c 0,34,35
 262 416 262 416 262 322 c 3,36,37
 262 253 262 253 282 201 c 1,26,27
EndSplineSet
Validated: 1
EndChar

StartChar: f
Encoding: 102 102 16
Width: 680
VWidth: 0
Flags: W
HStem: 617 104<297.943 435>
VStem: 126 99<243.735 515.038> 141 67<-126 -77.488> 408 131<551.908 639>
LayerCount: 2
Back
SplineSet
141 -157 m 273,0,1
 126 116 126 116 126 377 c 259,2,3
 126 541 126 541 233 653 c 280,4,5
 298 721 298 721 409 721 c 259,6,7
 461 721 461 721 499 694 c 256,8,9
 539 665 539 665 539 613 c 259,10,11
 539 563 539 563 463 486 c 256,12,13
 410 433 410 433 249 353 c 257,14,15
 400 358 400 358 501 378 c 257,16,-1
 554 364 l 257,17,-1
 513 240 l 257,18,-1
 199 257 l 281,19,-1
 197 359 l 257,20,21
 233 368 233 368 346 458 c 256,22,23
 408 508 408 508 408 553 c 259,24,25
 408 584 408 584 394 598 c 256,26,27
 376 617 376 617 329 617 c 259,28,29
 294 617 294 617 268 562 c 280,30,31
 225 472 225 472 225 409 c 259,32,33
 225 334 225 334 276 333 c 281,34,-1
 208 -126 l 281,35,-1
 141 -157 l 273,0,1
EndSplineSet
Fore
SplineSet
409 721 m 3,0,1
 461 721 461 721 499 694 c 0,2,3
 539 665 539 665 539 613 c 3,4,5
 539 563 539 563 463 486 c 0,6,7
 410 433 410 433 249 353 c 1,8,9
 400 358 400 358 501 378 c 1,10,-1
 554 364 l 1,11,-1
 513 240 l 1,12,-1
 264 253 l 1,13,-1
 208 -126 l 1,14,-1
 141 -157 l 1,15,16
 126 116 126 116 126 377 c 3,17,18
 126 541 126 541 233 653 c 0,19,20
 298 721 298 721 409 721 c 3,0,1
329 617 m 3,21,22
 294 617 294 617 268 562 c 0,23,24
 225 476 225 476 225 409 c 3,25,26
 225 389 225 389 229 374 c 1,27,28
 270 398 270 398 346 458 c 0,29,30
 408 507 408 507 408 553 c 3,31,32
 408 584 408 584 394 598 c 0,33,34
 376 617 376 617 329 617 c 3,21,22
EndSplineSet
Validated: 1
EndChar

StartChar: g
Encoding: 103 103 17
Width: 680
VWidth: 0
Flags: MW
HStem: -126 115<64.5625 174.852> -125 65<188.364 350.053> 159 125<147.5 296> 466 119<272 620>
VStem: 127 107<286.244 443.566> 425 103<36.8579 374.295>
LayerCount: 2
Back
SplineSet
431 402 m 257,0,1
 438 390 l 257,2,3
 282 159 282 159 168 159 c 259,4,5
 127 159 127 159 127 370 c 275,6,7
 127 444 127 444 178 500 c 256,8,9
 219 545 219 545 359 562 c 280,10,11
 539 585 539 585 614 585 c 259,12,13
 626 585 626 585 626 564 c 259,14,15
 626 546 626 546 566 526 c 280,16,17
 506 506 506 506 506 467 c 259,18,19
 506 367 506 367 516 292 c 256,20,21
 528 200 528 200 528 116 c 259,22,23
 528 39 528 39 461 -29 c 256,24,25
 367 -125 367 -125 307 -125 c 259,26,27
 273 -125 273 -125 244 -119.5 c 280,28,29
 215 -114 215 -114 192 -114 c 259,30,31
 171 -114 171 -114 144 -121 c 256,32,33
 124 -126 124 -126 109 -126 c 259,34,35
 54 -126 54 -126 54 -73 c 275,36,37
 54 -11 54 -11 118 -11 c 283,38,39
 134 -11 134 -11 184 -38 c 280,40,41
 225 -60 225 -60 294 -60 c 267,42,43
 343 -60 343 -60 381 -3 c 280,44,45
 425 64 425 64 425 139 c 259,46,47
 425 445 425 445 402 457 c 256,48,49
 385 466 385 466 310 466 c 259,50,51
 234 466 234 466 234 364 c 259,52,53
 234 284 234 284 261 284 c 259,54,55
 320 284 320 284 431 402 c 257,0,1
EndSplineSet
Fore
SplineSet
418 388 m 257,0,1
 412 451 412 451 402 457 c 256,2,3
 387 466 387 466 310 466 c 259,4,5
 234 466 234 466 234 364 c 259,6,7
 234 284 234 284 261 284 c 259,8,9
 317 284 317 284 418 388 c 257,0,1
626 564 m 259,10,11
 626 546 626 546 566 526 c 256,12,13
 506 506 506 506 506 467 c 259,14,15
 506 367 506 367 516 292 c 256,16,17
 528 200 528 200 528 116 c 259,18,19
 528 38 528 38 461 -29 c 256,20,21
 365 -125 365 -125 307 -125 c 259,22,23
 273 -125 273 -125 244 -119 c 280,24,25
 215 -114 215 -114 192 -114 c 259,26,27
 163 -114 163 -114 144 -121 c 256,28,29
 130 -126 130 -126 109 -126 c 259,30,31
 54 -126 54 -126 54 -73 c 259,32,33
 54 -11 54 -11 118 -11 c 259,34,35
 134 -11 134 -11 184 -38 c 256,36,37
 225 -60 225 -60 294 -60 c 259,38,39
 343 -60 343 -60 381 -3 c 256,40,41
 425 64 425 64 425 139 c 259,42,43
 425 285 425 285 420 364 c 257,44,45
 275 159 275 159 168 159 c 259,46,47
 127 159 127 159 127 370 c 259,48,49
 127 444 127 444 178 500 c 256,50,51
 219 545 219 545 359 562 c 256,52,53
 539 585 539 585 614 585 c 259,54,55
 626 585 626 585 626 564 c 259,10,11
EndSplineSet
Validated: 1
EndChar

StartChar: h
Encoding: 104 104 18
Width: 680
VWidth: 0
Flags: W
HStem: -152 37<174.025 274.553> 247 73<271.448 348.9> 615 54<294.004 439.611>
VStem: 105 104<79.4001 218.883 242 483.77> 379 119<38.5039 212.879> 481 95<481.679 575.598>
LayerCount: 2
Back
SplineSet
185 212 m 257,0,1
 268 320 268 320 336 320 c 259,2,3
 414 320 414 320 451 292 c 256,4,5
 498 255 498 255 498 158 c 259,6,7
 498 30 498 30 412 -70 c 256,8,9
 372.175 -118.221 372.175 -118.221 318 -139 c 280,10,11
 284 -152 284 -152 199 -152 c 259,12,13
 174 -152 174 -152 174 -134 c 275,14,15
 174 -118 174 -118 200 -115 c 272,16,17
 271 -107 271 -107 302 -80 c 256,18,19
 379 -11 379 -11 379 108 c 259,20,21
 379 171 379 171 357 213 c 256,22,23
 339 247 339 247 310 247 c 259,24,25
 269 247 269 247 193 194 c 281,26,-1
 185 212 l 257,0,1
254 50 m 259,27,28
 254 30 254 30 197 10 c 280,29,30
 138 -10 138 -10 129 -10 c 259,31,32
 105 -10 105 -10 105 52 c 274,33,34
 105 318 l 258,35,36
 105 492 105 492 169 574 c 280,37,38
 243 669 243 669 367 669 c 259,39,40
 459 669 459 669 509 641 c 256,41,42
 576 604 576 604 576 549 c 259,43,44
 576 456 576 456 393 338 c 257,45,46
 416 360 416 360 449 424 c 256,47,48
 481 486 481 486 481 529 c 259,49,50
 481 557 481 557 447 587 c 256,51,52
 415 615 415 615 363 615 c 259,53,54
 307 615 307 615 277 576 c 256,55,56
 209 488 209 488 209 323 c 259,57,58
 209 94 209 94 221 79 c 257,59,60
 254 64 254 64 254 50 c 259,27,28
EndSplineSet
Fore
SplineSet
254 50 m 3,0,1
 254 30 254 30 197 10 c 0,2,3
 138 -10 138 -10 129 -10 c 3,4,5
 105 -10 105 -10 105 52 c 2,6,-1
 105 318 l 2,7,8
 105 492 105 492 169 574 c 0,9,10
 243 669 243 669 367 669 c 3,11,12
 459 669 459 669 509 641 c 0,13,14
 576 604 576 604 576 549 c 3,15,16
 576 456 576 456 393 338 c 1,17,18
 416 360 416 360 449 424 c 0,19,20
 481 486 481 486 481 529 c 3,21,22
 481 557 481 557 447 587 c 0,23,24
 415 615 415 615 363 615 c 3,25,26
 307 615 307 615 277 576 c 0,27,28
 209 487 209 487 209 323 c 3,29,30
 209 279 209 279 209 242 c 1,31,32
 278 320 278 320 336 320 c 3,33,34
 414 320 414 320 451 292 c 0,35,36
 498 255 498 255 498 158 c 3,37,38
 498 33 498 33 412 -70 c 0,39,40
 372 -118 372 -118 318 -139 c 24,41,42
 284 -152 284 -152 199 -152 c 3,43,44
 174 -152 174 -152 174 -134 c 3,45,46
 174 -118 174 -118 200 -115 c 0,47,48
 271 -107 271 -107 302 -80 c 0,49,50
 379 -11 379 -11 379 108 c 3,51,52
 379 171 379 171 357 213 c 0,53,54
 339 247 339 247 310 247 c 3,55,56
 274 247 274 247 210 206 c 1,57,58
 212 91 212 91 221 79 c 1,59,60
 254 64 254 64 254 50 c 3,0,1
EndSplineSet
Validated: 1
EndChar

StartChar: i
Encoding: 105 105 19
Width: 680
VWidth: 0
Flags: W
HStem: 454 91<188 357>
VStem: 263 123<111.003 452.576>
LayerCount: 2
Fore
SplineSet
174 464 m 259,0,1
 174 496 174 496 266 523 c 256,2,3
 341 545 341 545 357 545 c 259,4,5
 392 545 392 545 392 507 c 259,6,7
 392 461 392 461 390 425 c 256,8,9
 386 353 386 353 386 312 c 259,10,11
 386 128 386 128 408 111 c 280,12,13
 445 83 445 83 484 83 c 259,14,15
 506 83 506 83 506 68 c 259,16,17
 506 48 506 48 410 14 c 280,18,19
 342 -10 342 -10 311 -10 c 259,20,21
 269 -10 269 -10 267 27 c 256,22,23
 263 117 263 117 263 269 c 259,24,25
 263 300 263 300 266 362 c 256,26,27
 269 424 269 424 269 430 c 3,28,29
 269 449 269 449 246 452 c 256,30,31
 231 454 231 454 188 454 c 283,32,33
 174 454 174 454 174 464 c 259,0,1
EndSplineSet
Validated: 1
EndChar

StartChar: k
Encoding: 107 107 21
Width: 680
VWidth: 0
Flags: W
HStem: -99 69<404.896 531.585> 249 73<270.809 364.967> 617 54<294.574 440.611>
VStem: 105 117<-43.2778 70 119.003 191.884> 105 105<246 486.262> 381 120<141.777 235.051> 482 95<483.679 577.598>
LayerCount: 2
Back
SplineSet
278 578 m 0,18,19
 210 490 210 490 210 325 c 259,65,66
 210 224 210 224 217 146 c 256,67,68
 222 88 222 88 222 -24 c 256,69,70
 222 -36 222 -36 179 -53 c 256,71,72
 151 -64 151 -64 129 -64 c 259,73,74
 105 -64 105 -64 105 -2 c 282,75,-1
 106 320 l 258,76,77
 107 490 107 490 170 576 c 16,0,1
 244 671 244 671 368 671 c 3,2,3
 460 671 460 671 510 643 c 0,4,5
 577 606 577 606 577 551 c 3,6,7
 577 458 577 458 394 340 c 1,8,9
 417 362 417 362 450 426 c 0,10,11
 482 488 482 488 482 531 c 3,12,13
 482 559 482 559 448 589 c 0,14,15
 416 617 416 617 364 617 c 3,16,17
 308 617 308 617 278 578 c 0,18,19
195 77 m 257,20,-1
 192 93 l 257,21,22
 240 97 240 97 282 97 c 259,23,24
 332 97 332 97 370 37 c 256,25,26
 413 -30 413 -30 440 -30 c 259,27,28
 480 -30 480 -30 506 -37 c 256,29,30
 536 -45 536 -45 536 -66 c 275,31,32
 536 -99 536 -99 429 -99 c 259,33,34
 376 -99 376 -99 311 -11 c 256,35,36
 251 70 251 70 195 77 c 257,20,-1
194 196 m 281,37,-1
 186 214 l 257,38,39
 264 322 264 322 337 322 c 259,40,41
 407 322 407 322 452 293 c 256,42,43
 501 261 501 261 501 209 c 259,44,45
 501 146 501 146 444 111 c 256,46,47
 389 77 389 77 297 77 c 259,48,49
 208 77 208 77 180 93 c 257,50,-1
 176 131 l 257,51,52
 204 118 204 118 285 118 c 259,53,54
 350 118 350 118 367 138 c 256,55,56
 381 155 381 155 381 187 c 259,57,58
 381 216 381 216 362 234 c 256,59,60
 346 249 346 249 311 249 c 259,61,62
 263 249 263 249 194 196 c 281,37,-1
EndSplineSet
Fore
SplineSet
368 671 m 3,0,1
 460 671 460 671 510 643 c 0,2,3
 577 606 577 606 577 551 c 3,4,5
 577 458 577 458 394 340 c 1,6,7
 417 362 417 362 450 426 c 0,8,9
 482 488 482 488 482 531 c 3,10,11
 482 559 482 559 448 589 c 0,12,13
 416 617 416 617 364 617 c 3,14,15
 308 617 308 617 278 578 c 0,16,17
 210 490 210 490 210 325 c 3,18,19
 210 283 210 283 211 246 c 1,20,21
 276 322 276 322 337 322 c 3,22,23
 407 322 407 322 452 293 c 0,24,25
 501 261 501 261 501 209 c 3,26,27
 501 147 501 147 444 111 c 0,28,29
 401 84 401 84 334 78 c 1,30,31
 353 63 353 63 370 37 c 0,32,33
 414 -30 414 -30 440 -30 c 3,34,35
 480 -30 480 -30 506 -37 c 0,36,37
 536 -45 536 -45 536 -66 c 3,38,39
 536 -99 536 -99 429 -99 c 3,40,41
 375 -99 375 -99 311 -11 c 0,42,43
 265 52 265 52 221 70 c 1,44,45
 222 29 222 29 222 -24 c 3,46,47
 222 -36 222 -36 179 -53 c 0,48,49
 151 -64 151 -64 129 -64 c 3,50,51
 105 -64 105 -64 105 -2 c 2,52,-1
 105 320 l 2,53,54
 105 491 105 491 170 576 c 0,55,56
 242 671 242 671 368 671 c 3,0,1
381 187 m 3,57,58
 381 216 381 216 362 234 c 0,59,60
 346 249 346 249 311 249 c 3,61,62
 270 249 270 249 213 210 c 1,63,64
 219 121 l 1,65,66
 246 118 246 118 285 118 c 3,67,68
 350 118 350 118 367 138 c 0,69,70
 381 155 381 155 381 187 c 3,57,58
EndSplineSet
Validated: 1
EndChar

StartChar: l
Encoding: 108 108 22
Width: 680
VWidth: 0
Flags: W
HStem: 617 54<322.359 468.611>
VStem: 134 104<95.3271 487.375> 510 96<489.948 577.28>
LayerCount: 2
Fore
SplineSet
312 50 m 259,0,1
 312 33 312 33 250 12 c 280,2,3
 186 -10 186 -10 177 -10 c 259,4,5
 156 -10 156 -10 151 52 c 280,6,7
 134 298 134 298 134 320 c 267,8,9
 134 490 134 490 198 576 c 280,10,11
 269 671 269 671 396 671 c 259,12,13
 488 671 488 671 538 643 c 256,14,15
 606 605 606 605 606 564 c 259,16,17
 606 459 606 459 422 340 c 257,18,19
 445 362 445 362 478 426 c 256,20,21
 510 488 510 488 510 531 c 259,22,23
 510 559 510 559 476 589 c 256,24,25
 444 617 444 617 392 617 c 259,26,27
 336 617 336 617 306 578 c 256,28,29
 238 490 238 490 238 325 c 259,30,31
 238 115 238 115 269 79 c 257,32,33
 312 60 312 60 312 50 c 259,0,1
EndSplineSet
Validated: 1
EndChar

StartChar: m
Encoding: 109 109 23
Width: 812
VWidth: 1000
Flags: W
LayerCount: 2
Fore
SplineSet
60 524 m 1,0,-1
 137 524 l 1,1,-1
 137 450 l 1,2,3
 171 497 171 497 208.5 518 c 128,-1,4
 246 539 246 539 298 539 c 0,5,6
 395 539 395 539 439 459 c 1,7,8
 476 503 476 503 512 521 c 128,-1,9
 548 539 548 539 600 539 c 0,10,11
 673 539 673 539 712.5 501.5 c 128,-1,12
 752 464 752 464 752 393 c 2,13,-1
 752 0 l 1,14,-1
 668 0 l 1,15,-1
 668 361 l 2,16,17
 668 411 668 411 642.5 438.5 c 128,-1,18
 617 466 617 466 571 466 c 0,19,20
 520 466 520 466 484 426 c 128,-1,21
 448 386 448 386 448 329 c 2,22,-1
 448 0 l 1,23,-1
 364 0 l 1,24,-1
 364 361 l 2,25,26
 364 411 364 411 338.5 438.5 c 128,-1,27
 313 466 313 466 267 466 c 0,28,29
 216 466 216 466 180 426 c 128,-1,30
 144 386 144 386 144 329 c 2,31,-1
 144 0 l 1,32,-1
 60 0 l 1,33,-1
 60 524 l 1,0,-1
EndSplineSet
Validated: 1
EndChar

StartChar: n
Encoding: 110 110 24
Width: 537
VWidth: 1000
Flags: W
LayerCount: 2
Fore
SplineSet
60 524 m 1,0,-1
 137 524 l 1,1,-1
 137 436 l 1,2,3
 172 491 172 491 212.5 515 c 128,-1,4
 253 539 253 539 311 539 c 0,5,6
 387 539 387 539 432 500 c 128,-1,7
 477 461 477 461 477 396 c 2,8,-1
 477 0 l 1,9,-1
 394 0 l 1,10,-1
 394 363 l 2,11,12
 394 410 394 410 365 438 c 128,-1,13
 336 466 336 466 286 466 c 0,14,15
 222 466 222 466 183 417.5 c 128,-1,16
 144 369 144 369 144 289 c 2,17,-1
 144 0 l 1,18,-1
 60 0 l 1,19,-1
 60 524 l 1,0,-1
EndSplineSet
Validated: 1
EndChar

StartChar: o
Encoding: 111 111 25
Width: 534
VWidth: 1000
Flags: W
LayerCount: 2
Fore
SplineSet
266 539 m 0,0,1
 379 539 379 539 441.5 464.5 c 128,-1,2
 504 390 504 390 504 254 c 0,3,4
 504 125 504 125 440.5 51 c 128,-1,5
 377 -23 377 -23 267 -23 c 0,6,7
 155 -23 155 -23 92.5 51.5 c 128,-1,8
 30 126 30 126 30 258 c 128,-1,9
 30 390 30 390 93 464.5 c 128,-1,10
 156 539 156 539 266 539 c 0,0,1
267 462 m 0,11,12
 197 462 197 462 157 407.5 c 128,-1,13
 117 353 117 353 117 258 c 128,-1,14
 117 163 117 163 157 108.5 c 128,-1,15
 197 54 197 54 267 54 c 0,16,17
 336 54 336 54 376.5 108.5 c 128,-1,18
 417 163 417 163 417 255 c 0,19,20
 417 352 417 352 377.5 407 c 128,-1,21
 338 462 338 462 267 462 c 0,11,12
EndSplineSet
Validated: 1
EndChar

StartChar: p
Encoding: 112 112 26
Width: 559
VWidth: 1000
Flags: W
LayerCount: 2
Fore
SplineSet
60 -218 m 1,0,-1
 60 524 l 1,1,-1
 137 524 l 1,2,-1
 137 445 l 1,3,4
 196 539 196 539 304 539 c 0,5,6
 408 539 408 539 468.5 462 c 128,-1,7
 529 385 529 385 529 253 c 0,8,9
 529 128 529 128 467.5 52.5 c 128,-1,10
 406 -23 406 -23 305 -23 c 0,11,12
 208 -23 208 -23 144 55 c 1,13,-1
 144 -218 l 1,14,-1
 60 -218 l 1,0,-1
290 461 m 0,15,16
 224 461 224 461 184 405.5 c 128,-1,17
 144 350 144 350 144 258 c 128,-1,18
 144 166 144 166 184 110.5 c 128,-1,19
 224 55 224 55 290 55 c 0,20,21
 358 55 358 55 400 110.5 c 128,-1,22
 442 166 442 166 442 255 c 0,23,24
 442 349 442 349 400.5 405 c 128,-1,25
 359 461 359 461 290 461 c 0,15,16
EndSplineSet
Validated: 1
EndChar

StartChar: q
Encoding: 113 113 27
Width: 559
VWidth: 1000
Flags: W
LayerCount: 2
Fore
SplineSet
499 -218 m 1,0,-1
 416 -218 l 1,1,-1
 416 60 l 1,2,3
 359 -23 359 -23 254 -23 c 0,4,5
 150 -23 150 -23 90 51 c 128,-1,6
 30 125 30 125 30 252 c 0,7,8
 30 382 30 382 92 460.5 c 128,-1,9
 154 539 154 539 258 539 c 0,10,11
 365 539 365 539 425 454 c 1,12,-1
 425 524 l 1,13,-1
 499 524 l 1,14,-1
 499 -218 l 1,0,-1
270 461 m 0,15,16
 201 461 201 461 159 405 c 128,-1,17
 117 349 117 349 117 258 c 0,18,19
 117 166 117 166 159 110.5 c 128,-1,20
 201 55 201 55 270 55 c 0,21,22
 336 55 336 55 376 110 c 128,-1,23
 416 165 416 165 416 255 c 0,24,25
 416 349 416 349 376.5 405 c 128,-1,26
 337 461 337 461 270 461 c 0,15,16
EndSplineSet
Validated: 1
EndChar

StartChar: r
Encoding: 114 114 28
Width: 333
VWidth: 1000
Flags: W
LayerCount: 2
Fore
SplineSet
321 451 m 1,0,1
 237 449 237 449 195 412 c 128,-1,2
 153 375 153 375 153 272 c 2,3,-1
 153 0 l 1,4,-1
 69 0 l 1,5,-1
 69 524 l 1,6,-1
 146 524 l 1,7,-1
 146 429 l 1,8,9
 182 488 182 488 215.5 513.5 c 128,-1,10
 249 539 249 539 289 539 c 0,11,12
 300 539 300 539 321 536 c 1,13,-1
 321 451 l 1,0,1
EndSplineSet
Validated: 1
EndChar

StartChar: uniE102
Encoding: 57602 57602 29
Width: 1024
LayerCount: 2
Back
SplineSet
206 -238 m 25,8,-1
 10 -14 l 25,9,-1
 176 238 l 25,10,-1
 370 14 l 25,11,-1
 206 -238 l 25,8,-1
EndSplineSet
EndChar

StartChar: uniE105
Encoding: 57605 57605 30
Width: 1024
LayerCount: 2
Back
SplineSet
221 764 m 1,0,-1
 216 192 l 1,1,-1
 370 14 l 1,2,-1
 206 -238 l 1,3,-1
 10 -14 l 1,4,-1
 154 204 l 1,5,-1
 149 824 l 1,6,-1
 222 824 l 2,7,8
 380 824 380 824 380 710 c 259,9,10
 380 531 380 531 245 439 c 1,11,-1
 376 316 l 1,12,-1
 358 291 l 1,13,-1
 196 426 l 1,14,-1
 196 450 l 1,15,16
 325 563 325 563 325 674 c 283,17,18
 325 764 325 764 245 764 c 2,19,-1
 221 764 l 1,0,-1
EndSplineSet
EndChar

StartChar: uniE106
Encoding: 57606 57606 31
Width: 1024
LayerCount: 2
Back
SplineSet
179 603 m 17,0,-1
 222 603 l 2,1,2
 380 603 380 603 380 534 c 259,3,4
 380 435 380 435 245 371 c 1,5,-1
 376 248 l 1,6,-1
 358 223 l 1,7,-1
 196 358 l 1,8,-1
 196 382 l 1,9,10
 325 457 325 457 325 511 c 283,11,12
 325 558 325 558 245 558 c 2,13,-1
 179 558 l 9,14,-1
 179 603 l 17,0,-1
245 592 m 1,15,-1
 196 579 l 1,16,-1
 196 603 l 1,17,18
 325 678 325 678 325 719 c 283,19,20
 325 764 325 764 245 764 c 2,21,-1
 221 764 l 1,22,-1
 216 192 l 1,23,-1
 370 14 l 1,24,-1
 206 -238 l 1,25,-1
 10 -14 l 1,26,-1
 154 204 l 1,27,-1
 149 824 l 1,28,-1
 222 824 l 2,29,30
 380 824 380 824 380 755 c 259,31,32
 380 656 380 656 245 592 c 1,15,-1
EndSplineSet
EndChar

StartChar: uniE107
Encoding: 57607 57607 32
Width: 1024
LayerCount: 2
Back
SplineSet
179 537 m 17,0,-1
 222 537 l 2,1,2
 380 537 380 537 380 468 c 259,3,4
 380 375 380 375 245 375 c 1,5,-1
 376 252 l 1,6,-1
 358 227 l 1,7,-1
 196 362 l 1,8,-1
 196 401 l 1,9,10
 325 401 325 401 325 445 c 283,11,12
 325 492 325 492 245 492 c 2,13,-1
 179 492 l 9,14,-1
 179 537 l 17,0,-1
245 511 m 1,15,16
 207 511 l 1,17,-1
 207 537 l 1,18,19
 325 537 325 537 325 581 c 283,20,21
 325 628 325 628 245 628 c 2,22,23
 179 628 l 9,24,-1
 179 673 l 17,25,-1
 222 673 l 2,26,27
 380 673 380 673 380 604 c 259,28,29
 380 511 380 511 245 511 c 1,15,16
245 647 m 1,30,-1
 196 649 l 1,31,-1
 196 673 l 1,32,33
 325 673 325 673 325 719 c 283,34,35
 325 764 325 764 245 764 c 2,36,-1
 221 764 l 1,37,-1
 216 262 l 1,38,-1
 370 14 l 1,39,-1
 206 -238 l 1,40,-1
 10 -14 l 1,41,-1
 154 204 l 1,42,-1
 149 824 l 1,43,-1
 222 824 l 2,44,45
 380 824 380 824 380 755 c 259,46,47
 380 647 380 647 245 647 c 1,30,-1
EndSplineSet
EndChar

StartChar: A
Encoding: 65 65 33
Width: 680
Flags: W
HStem: -10 140<160.5 267.801> -1 140<467.5 578.5> 330 140<276.263 469>
VStem: 66 124<79.5 214.641> 422 94<279.797 324.844>
LayerCount: 2
Back
SplineSet
464 264 m 0,0,1
 449 176 449 176 379 125 c 24,2,3
 291 60 291 60 222 60 c 0,4,5
 128 60 128 60 128 160 c 27,6,7
 128 240 128 240 185 340 c 0,8,9
 220 400 220 400 394 400 c 3,10,11
 449 400 449 400 486 388 c 17,12,13
 449 179 449 179 455 150 c 24,14,15
 469 69 469 69 518.5 69 c 131,-1,16
 568 69 568 69 614 132 c 24,17,-1
EndSplineSet
Fore
SplineSet
392 110 m 1,0,-1
 376 91 l 1,1,-1
 376 90 l 2,2,3
 359 70 359 70 338 55 c 0,4,5
 250 -10 250 -10 181 -10 c 0,6,7
 140 -10 140 -10 116 9 c 2,8,-1
 95 27 l 2,9,10
 66 52 66 52 66 107 c 0,11,12
 66 187 66 187 123 287 c 0,13,14
 126 292 126 292 130 297 c 2,15,-1
 233 419 l 2,16,17
 276 470 276 470 435 470 c 0,18,19
 503 470 503 470 527 458 c 1,20,-1
 548 441 l 1,21,22
 516 261 516 261 516 215 c 0,23,24
 516 207 516 207 517 203 c 8,25,26
 528 159 528 159 539 143 c 1,27,28
 549 139 549 139 560 139 c 0,29,30
 597 139 597 139 632 175 c 1,31,-1
 655 202 l 1,32,-1
 676 185 l 1,33,34
 670 177 670 177 665 170 c 2,35,-1
 562 48 l 2,36,37
 521 -1 521 -1 477 -1 c 0,38,39
 458 -1 458 -1 445 10 c 2,40,-1
 425 28 l 2,41,42
 402 47 402 47 393 97 c 0,43,44
 392 102 392 102 392 110 c 1,0,-1
404 213 m 2,45,-1
 422 324 l 1,46,47
 392 330 392 330 353 330 c 0,48,49
 262 330 262 330 210 314 c 1,50,51
 190 260 190 260 190 213 c 0,52,53
 190 167 190 167 210 142 c 1,54,55
 231 130 231 130 263 130 c 0,56,57
 321 130 321 130 394 177 c 1,58,59
 400 194 400 194 402 211 c 1,60,-1
 404 213 l 2,45,-1
EndSplineSet
Validated: 1
EndChar

StartChar: B
Encoding: 66 66 34
Width: 680
Flags: W
HStem: 0 140<269.5 397> 330 140<283.5 410.5>
VStem: 113 124<205.46 325.034 388 516.203> 444 124<174 322>
LayerCount: 2
Back
SplineSet
175 235 m 0,0,1
 176 303 176 303 224 351 c 0,2,3
 273 400 273 400 340 400 c 0,4,5
 408 399 408 399 456 351 c 0,6,7
 506 303 506 303 506 235 c 128,-1,8
 506 167 506 167 456 119 c 0,9,10
 407 70 407 70 340 70 c 0,11,12
 272 71 272 71 224 119 c 0,13,14
 174 169 174 169 175 235 c 0,0,1
113 595 m 24,15,16
 175 573 175 573 175 503 c 2,17,-1
 175 221 l 2,18,19
EndSplineSet
Fore
SplineSet
175 648 m 9,0,1
 237 626 237 626 237 556 c 2,2,-1
 237 388 l 1,3,-1
 254 409 l 2,4,5
 260 416 260 416 265 421 c 0,6,7
 315 470 315 470 381 470 c 24,8,9
 440 470 440 470 485 432 c 2,10,-1
 506 414 l 2,11,12
 509 412 509 412 518 404 c 0,13,14
 568 356 568 356 568 288 c 24,15,16
 568 230 568 230 531 186 c 2,17,-1
 428 63 l 2,18,19
 423 57 423 57 415 49 c 0,20,21
 365 0 365 0 299 0 c 24,22,23
 240 0 240 0 195 38 c 2,24,-1
 174 56 l 2,25,26
 169 60 169 60 162 66 c 0,27,28
 113 111 113 111 113 168 c 2,29,-1
 113 450 l 2,30,31
 113 520 113 520 51 542 c 16,32,-1
 175 648 l 9,0,1
237 283 m 24,33,34
 237 219 237 219 288 170 c 1,35,36
 329 141 329 141 381 140 c 0,37,38
 413 140 413 140 441 151 c 1,39,40
 444 166 444 166 444 182 c 24,41,42
 444 249 444 249 392 300 c 1,43,44
 351 329 351 329 299 330 c 0,45,46
 268 330 268 330 240 319 c 1,47,48
 237 303 237 303 237 283 c 24,33,34
EndSplineSet
Validated: 1
EndChar

StartChar: C
Encoding: 67 67 35
Width: 680
Flags: W
HStem: 320 140<272.938 513>
VStem: 138 107<176.425 307.609>
LayerCount: 2
Back
SplineSet
474 390 m 25,0,-1
 288 390 l 18,1,2
 238 390 238 390 200 331 c 24,3,4
 182 303 182 303 182 227 c 27,5,6
 182 184 182 184 193 145 c 0,7,8
 218 59 218 59 257 60 c 0,9,10
 295 60 295 60 331 77 c 24,11,-1
EndSplineSet
Fore
SplineSet
616 443 m 1,0,-1
 513 320 l 1,1,-1
 245 320 l 1,2,3
 245 280 l 18,4,5
 245 237 245 237 255 198 c 0,6,7
 265 157 265 157 284 133 c 1,8,9
 291 130 291 130 298 130 c 0,10,11
 336 130 336 130 372 147 c 1,12,-1
 393 130 l 1,13,-1
 290 7 l 1,14,15
 254 -10 254 -10 216 -10 c 0,16,17
 202 -10 202 -10 191 -1 c 2,18,-1
 170 17 l 2,19,20
 147 37 147 37 131 92 c 0,21,22
 120 130 120 130 120 174 c 0,23,24
 120 252 120 252 138 278 c 0,25,26
 138 281 138 281 152 298 c 2,27,-1
 256 421 l 2,28,29
 289 460 289 460 329 460 c 2,30,-1
 595 460 l 1,31,-1
 616 443 l 1,0,-1
EndSplineSet
Validated: 1
EndChar

StartChar: D
Encoding: 68 68 36
Width: 680
Flags: W
HStem: -49 140<275.455 405> 327 140<-88.3193 186 226.012 406.155>
VStem: 90 124<90 250.5> 467 124<153 319.5>
LayerCount: 2
Back
SplineSet
-212 473 m 0,0,1
 -136 397 -136 397 -7 397 c 2,2,3
 388 397 l 26,4,5
 442 397 442 397 478 352 c 24,6,7
 529 288 529 288 529 221 c 27,8,9
 529 148 529 148 471 85 c 24,10,11
 412 21 412 21 346 21 c 27,12,13
 256 21 256 21 208 60 c 24,14,15
 152 105 152 105 152 178 c 27,16,17
 152 270 152 270 203 326 c 0,18,19
 268 397 268 397 376 397 c 0,20,-1
EndSplineSet
Fore
SplineSet
331 327 m 2,0,1
 271 327 271 327 223 303 c 1,2,3
 214 270 214 270 214 231 c 0,4,5
 214 167 214 167 257 124 c 1,6,7
 304 91 304 91 387 91 c 3,8,9
 423 91 423 91 458 110 c 1,10,11
 467 138 467 138 467 168 c 3,12,13
 467 235 467 235 416 299 c 0,14,15
 412 304 412 304 407 309 c 1,16,17
 380 327 380 327 347 327 c 2,18,-1
 331 327 l 2,0,1
186 327 m 1,19,-1
 -48 327 l 2,20,21
 -164 327 -164 327 -237 388 c 2,22,-1
 -258 406 l 2,23,24
 -266 413 -266 413 -274 420 c 1,25,-1
 -171 543 l 1,26,-1
 -150 526 l 1,27,-1
 -144 520 l 1,28,29
 -73 467 -73 467 34 467 c 2,30,-1
 429 467 l 2,31,32
 470 467 470 467 500 441 c 2,33,-1
 521 424 l 2,34,35
 591 365 591 365 591 274 c 0,36,37
 591 207 591 207 541 147 c 2,38,-1
 430 15 l 2,39,40
 376 -49 376 -49 305 -49 c 27,41,42
 214 -49 214 -49 167 -10 c 2,43,-1
 143 10 l 2,44,45
 90 55 90 55 90 125 c 0,46,47
 90 212 90 212 136 268 c 2,48,-1
 186 327 l 1,19,-1
EndSplineSet
Validated: 1
EndChar

StartChar: E
Encoding: 69 69 37
Width: 680
Flags: W
HStem: -22 140<346.772 529.686> 330 140<332.249 470.901>
VStem: 144 124<171.278 290.5>
LayerCount: 2
Back
SplineSet
631 172 m 0,0,1
 532 61 532 61 405 60 c 27,2,3
 239 60 239 60 217 145 c 0,4,5
 206 188 206 188 206 227 c 27,6,7
 206 281 206 281 227 315.5 c 0,8,9
 246 346 246 346 287 375 c 0,10,11
 323 400 323 400 374 400 c 27,12,13
 427 400 427 400 451 391 c 0,14,15
 493 375 493 375 493 346 c 27,16,17
 493 303 493 303 313 170 c 0,18,-1
EndSplineSet
Fore
SplineSet
293 167 m 1,0,1
 359 220 359 220 431 299 c 1,2,3
 430 307 430 307 425 314 c 1,4,5
 418 318 418 318 410 321 c 0,6,7
 386 330 386 330 333 330 c 3,8,9
 299 330 299 330 271 319 c 1,10,11
 268 301 268 301 268 280 c 3,12,13
 268 241 268 241 279 198 c 0,14,15
 283 181 283 181 293 167 c 1,0,1
331 145 m 1,16,17
 412 118 412 118 498 118 c 3,18,19
 641 118 641 118 752 242 c 1,20,-1
 773 225 l 1,21,-1
 670 102 l 1,22,23
 558 -22 558 -22 416 -22 c 3,24,25
 268 -22 268 -22 205 29 c 2,26,-1
 184 46 l 2,27,28
 162 64 162 64 155 92 c 0,29,30
 144 136 144 136 144 174 c 3,31,32
 144 221 144 221 165 263 c 0,33,34
 167 267 167 267 178 280 c 2,35,-1
 281 403 l 2,36,37
 299 424 299 424 328 445 c 0,38,39
 364 470 364 470 415 470 c 3,40,41
 468 470 468 470 492 461 c 0,42,43
 506 456 506 456 519 446 c 2,44,-1
 540 429 l 2,45,46
 555 417 555 417 555 399 c 3,47,48
 555 384 555 384 533 358 c 2,49,-1
 431 236 l 2,50,51
 401 200 401 200 331 145 c 1,16,17
EndSplineSet
Validated: 1
EndChar

StartChar: F
Encoding: 70 70 38
Width: 680
Flags: W
HStem: 259 65<134 210 350 490> 483 89<381.417 530.5>
VStem: 213 135<110.738 259 324 440.656> 220 128<53.371 258.594>
LayerCount: 2
Back
SplineSet
502 572 m 3,4,5
 559 572 559 572 559 507 c 3,6,7
 559 437 559 437 510 437 c 3,8,9
 470 437 470 437 458 460 c 128,-1,10
 446 483 446 483 414 483 c 3,11,12
 348 483 348 483 348 239 c 3,13,14
 348 22 348 22 267 -51.5 c 128,-1,15
 186 -125 186 -125 145 -125 c 3,16,17
 127 -125 127 -125 127 -110 c 3,18,19
 127 -102 127 -102 137 -89 c 0,20,21
 220 19 220 19 220 108 c 3,22,23
 220 196 220 196 215 236.5 c 128,-1,24
 210 277 210 277 210 363 c 3,25,26
 210 457 210 457 300 527 c 0,27,28
 358 572 358 572 502 572 c 3,4,5
-57 -65 m 17,2,3
 60 -65 l 0,4,5
 161 -65 161 -65 292 230 c 128,-1,6
 423 525 423 525 523 525 c 27,7,8
 577 525 577 525 631 525 c 26,9,-1
116 218 m 25,0,-1
 499 242 l 25,1,-1
EndSplineSet
Fore
SplineSet
502 572 m 0,0,1
 559 572 559 572 559 507 c 0,2,3
 559 437 559 437 510 437 c 0,4,5
 470 437 470 437 458 460 c 128,-1,6
 446 483 446 483 414 483 c 0,7,8
 361 483 361 483 350 324 c 1,9,-1
 490 324 l 1,10,-1
 490 259 l 1,11,-1
 348 259 l 1,12,13
 348 249 348 249 348 239 c 0,14,15
 348 22 348 22 267 -51.5 c 128,-1,16
 186 -125 186 -125 145 -125 c 0,17,18
 127 -125 127 -125 127 -110 c 0,19,20
 127 -102 127 -102 137 -89 c 0,21,22
 220 19 220 19 220 108 c 0,23,24
 220 196 220 196 215 236 c 0,25,26
 214 246 214 246 213 259 c 1,27,-1
 134 259 l 1,28,-1
 134 324 l 1,29,-1
 210 324 l 1,30,31
 210 342 210 342 210 363 c 0,32,33
 210 457 210 457 300 527 c 0,34,35
 358 572 358 572 502 572 c 0,0,1
EndSplineSet
Validated: 1
EndChar

StartChar: G
Encoding: 71 71 39
Width: 680
VWidth: 1000
Flags: W
HStem: -135 140<201.183 373.926> 390 140<308.263 494.5>
VStem: 98 124<144.5 274.641>
LayerCount: 2
Back
SplineSet
501 324 m 0,0,1
 489 251 489 251 411 185 c 24,2,3
 346 130 346 130 262 130 c 0,4,5
 160 130 160 130 160 220 c 27,6,7
 160 300 160 300 217 400 c 0,8,9
 252 460 252 460 426 460 c 3,10,11
 481 460 481 460 518 448 c 17,12,13
 459 11 l 18,14,15
 449 -65 449 -65 275 -65 c 11,16,17
 114 -65 114 -65 128 23 c 0,18,-1
EndSplineSet
Fore
SplineSet
439 272 m 2,0,-1
 455 384 l 1,1,2
 425 390 425 390 385 390 c 0,3,4
 294 390 294 390 242 374 c 1,5,6
 222 320 222 320 222 273 c 0,7,8
 222 236 222 236 239 214 c 1,9,10
 245 211 245 211 252 208 c 0,11,12
 273 200 273 200 303 200 c 0,13,14
 373 200 373 200 430 238 c 1,15,16
 436 256 436 256 439 272 c 2,0,-1
426 174 m 1,17,-1
 413 157 l 1,18,-1
 412 157 l 2,19,20
 394 136 394 136 370 115 c 0,21,22
 305 60 305 60 221 60 c 0,23,24
 203 60 203 60 189 63 c 1,25,26
 189 42 189 42 200 26 c 1,27,28
 237 5 237 5 316 5 c 0,29,30
 367 5 367 5 404 12 c 1,31,-1
 426 174 l 1,17,-1
154 75 m 1,32,33
 149 78 149 78 146 81 c 2,34,-1
 125 99 l 2,35,36
 98 122 98 122 98 167 c 0,37,38
 98 247 98 247 155 347 c 0,39,40
 158 352 158 352 162 357 c 2,41,-1
 265 479 l 2,42,43
 308 530 308 530 467 530 c 0,44,45
 522 530 522 530 559 518 c 1,46,-1
 580 501 l 1,47,-1
 521 64 l 2,48,49
 519 46 519 46 507 32 c 2,50,-1
 404 -91 l 2,51,52
 367 -135 367 -135 234 -135 c 0,53,54
 141 -135 141 -135 107 -106 c 2,55,-1
 86 -88 l 2,56,57
 66 -66 66 -66 66 -30 c 1,58,-1
 154 75 l 1,32,33
EndSplineSet
Validated: 1
EndChar

StartChar: H
Encoding: 72 72 40
Width: 680
Flags: W
HStem: 330 140<283.5 411.684>
VStem: 113 124<135.539 325.034 388 515.461> 444 124<91.9243 261.734>
LayerCount: 2
Back
SplineSet
237 56 m 17,12,13
 175 78 175 78 175 148 c 2,14,-1
 175 503 l 2,15,16
 175 573 175 573 113 595 c 9,17,-1
401 -96 m 17,3,4
 506 29 506 29 506 148 c 10,5,-1
 506 235 l 2,6,7
 506 301 506 301 456 351 c 0,8,9
 408 399 408 399 340 400 c 0,10,11
 273 400 273 400 224 351 c 0,12,13
 176 303 176 303 175 235 c 0,14,-1
EndSplineSet
Fore
SplineSet
339 -149 m 1,0,1
 444 -24 444 -24 444 95 c 2,2,-1
 444 182 l 2,3,4
 444 248 444 248 394 298 c 0,5,6
 363 329 363 329 299 330 c 0,7,8
 268 330 268 330 240 319 c 1,9,10
 237 304 237 304 237 288 c 2,11,-1
 237 201 l 18,12,13
 237 152 237 152 258 135 c 2,14,15
 299 109 l 1,16,-1
 196 -14 l 1,17,18
 177 -7 177 -7 164 4 c 2,19,-1
 144 21 l 2,20,21
 114 47 114 47 113 95 c 2,22,-1
 113 182 l 1,23,-1
 113 450 l 18,24,25
 113 499 113 499 92 516 c 2,26,27
 51 542 l 1,28,-1
 154 665 l 1,29,30
 173 658 173 658 186 647 c 2,31,-1
 206 630 l 1,32,-1
 207 630 l 2,33,34
 237 605 237 605 237 556 c 2,35,-1
 237 388 l 1,36,-1
 254 409 l 2,37,38
 259 415 259 415 265 421 c 0,39,40
 314 470 314 470 381 470 c 0,41,42
 441 469 441 469 485 432 c 2,43,-1
 506 415 l 2,44,45
 512 410 512 410 518 404 c 0,46,47
 568 354 568 354 568 288 c 2,48,-1
 568 201 l 2,49,50
 568 82 568 82 463 -43 c 2,51,-1
 360 -166 l 1,52,-1
 339 -149 l 1,0,1
EndSplineSet
Validated: 1
EndChar

StartChar: I
Encoding: 73 73 41
Width: 680
VWidth: 1000
Flags: MW
VStem: 270 140<128.607 335.435>
LayerCount: 2
Back
SplineSet
402 56 m 17,15,16
 340 78 340 78 340 136 c 2,17,-1
 340 336 l 2,17,-1
 340 394 340 394 278 416 c 9,15,16
EndSplineSet
Fore
SplineSet
212 653 m 1,0,-1
 281 745 l 1,1,-1
 373 676 l 1,2,-1
 304 584 l 1,3,-1
 212 653 l 1,0,-1
472 103 m 1,4,-1
 376 -24 l 1,5,6
 354 -16 354 -16 344 -8 c 2,7,-1
 300 25 l 2,8,9
 270 48 270 48 270 89 c 2,10,-1
 270 289 l 2,11,12
 270 318 270 318 252 336 c 1,13,-1
 208 369 l 1,14,-1
 304 496 l 1,15,16
 322 490 322 490 335 480 c 2,17,-1
 380 447 l 2,18,19
 410 425 410 425 410 383 c 2,20,-1
 410 183 l 2,21,22
 410 157 410 157 424.5 137.5 c 129,-1,23
 439 118 439 118 472 103 c 1,4,-1
EndSplineSet
Validated: 1
EndChar

StartChar: J
Encoding: 74 74 42
Width: 480
VWidth: 1000
Flags: W
HStem: -218 73<154 229.247> 624 105<242 326>
VStem: 242 84<-129.525 524 624 729>
LayerCount: 2
Fore
SplineSet
242 524 m 1,0,-1
 326 524 l 1,1,-1
 326 -109 l 2,2,3
 326 -218 326 -218 182 -218 c 0,4,5
 170 -218 170 -218 154 -215 c 1,6,-1
 154 -144 l 1,7,8
 166 -145 166 -145 174 -145 c 0,9,10
 214 -145 214 -145 228 -130 c 128,-1,11
 242 -115 242 -115 242 -76 c 2,12,-1
 242 524 l 1,0,-1
326 729 m 1,13,-1
 326 624 l 1,14,-1
 242 624 l 1,15,-1
 242 729 l 1,16,-1
 326 729 l 1,13,-1
EndSplineSet
Validated: 1
EndChar

StartChar: K
Encoding: 75 75 43
Width: 680
VWidth: 1000
Flags: W
HStem: 305 140<283.5 411>
VStem: 113 124<135.539 300.034 479 515.461> 444 124<136.631 236.734>
LayerCount: 2
Back
SplineSet
175 397 m 25,0,-1
 468 566 l 25,1,-1
568 56 m 17,2,3
 506 83 506 83 506 148 c 2,4,-1
 506 210 l 2,5,6
 506 276 506 276 456 326 c 0,7,8
 408 374 408 374 340 375 c 0,9,10
 273 375 273 375 224 326 c 0,11,12
 176 278 176 278 175 210 c 0,13,-1
237 56 m 17,14,15
 175 78 175 78 175 148 c 2,16,-1
 175 503 l 2,17,18
 175 573 175 573 113 595 c 9,19,-1
EndSplineSet
Fore
SplineSet
299 109 m 1,0,-1
 196 -14 l 1,1,2
 177 -7 177 -7 164 4 c 2,3,-1
 144 21 l 1,4,-1
 143 21 l 2,5,6
 113 46 113 46 113 95 c 2,7,-1
 113 157 l 1,8,-1
 113 344 l 1,9,-1
 113 450 l 18,10,11
 113 499 113 499 92 516 c 2,12,13
 51 542 l 1,14,-1
 154 665 l 1,15,16
 173 658 173 658 186 647 c 2,17,-1
 206 630 l 2,18,19
 236 604 236 604 237 556 c 2,20,-1
 237 479 l 1,21,-1
 509 636 l 1,22,-1
 530 619 l 1,23,-1
 427 496 l 1,24,-1
 312 430 l 1,25,26
 344 445 344 445 381 445 c 0,27,28
 441 444 441 444 485 407 c 2,29,-1
 506 390 l 2,30,31
 512 385 512 385 518 379 c 0,32,33
 568 329 568 329 568 263 c 2,34,-1
 568 201 l 18,35,36
 568 156 568 156 591 136 c 2,37,38
 591 136 591 136 630 109 c 1,39,-1
 527 -14 l 1,40,41
 510 -6 510 -6 497 4 c 2,42,-1
 477 21 l 2,43,44
 445 48 445 48 444 95 c 2,45,-1
 444 157 l 2,46,47
 444 223 444 223 394 273 c 2,48,-1
 392 275 l 1,49,50
 351 304 351 304 299 305 c 0,51,52
 268 305 268 305 240 294 c 1,53,54
 237 279 237 279 237 263 c 2,55,-1
 237 201 l 18,56,57
 237 152 237 152 258 135 c 2,58,-1
 299 109 l 1,0,-1
EndSplineSet
Validated: 1
EndChar

StartChar: L
Encoding: 76 76 44
Width: 680
VWidth: 1000
Flags: W
VStem: 278 124<135.785 515.215>
LayerCount: 2
Back
SplineSet
402 56 m 17,12,13
 340 78 340 78 340 148 c 2,14,-1
 340 503 l 2,15,16
 340 573 340 573 278 595 c 9,17,-1
EndSplineSet
Fore
SplineSet
464 109 m 1,0,-1
 361 -14 l 1,1,2
 342 -7 342 -7 329 4 c 2,3,-1
 309 21 l 1,4,-1
 308 21 l 2,5,6
 278 46 278 46 278 95 c 2,7,-1
 278 450 l 2,8,9
 278 491 278 491 257 516 c 1,10,11
 225 535 225 535 216 542 c 1,12,-1
 319 665 l 1,13,14
 338 658 338 658 351 647 c 2,15,-1
 371 630 l 2,16,17
 401 605 401 605 402 556 c 2,18,-1
 402 201 l 2,19,20
 402 160 402 160 423 135 c 1,21,22
 455 116 455 116 464 109 c 1,0,-1
EndSplineSet
Validated: 1
EndChar

StartChar: M
Encoding: 77 77 45
Width: 680
VWidth: 1000
Flags: MW
HStem: 330 140<187 271 405 489>
VStem: 60 124<135.785 329.375> 278 124<135.785 278.688> 496 124<135.785 278.688>
CounterMasks: 1 70
LayerCount: 2
Back
SplineSet
620 56 m 17,12,13
 558 78 558 78 558 148 c 2,14,-1
 558 235 l 2,17,-1
 558 301 558 301 525 351 c 0,6,7
 493 399 493 399 448 400 c 0,4,5
 404 400 404 400 372 351 c 0,2,3
 340 303 340 303 340 235 c 0,0,1
402 56 m 17,12,13
 340 78 340 78 340 148 c 2,14,-1
 340 235 l 2,17,-1
 340 301 340 301 307 351 c 0,6,7
 275 399 275 399 230 400 c 0,4,5
 186 400 186 400 154 351 c 0,2,3
 122 303 122 303 122 235 c 0,0,1
184 56 m 17,12,13
 122 78 122 78 122 148 c 2,14,-1
 122 338 l 2,15,16
 122 408 122 408 60 430 c 9,17,-1
EndSplineSet
Fore
SplineSet
246 109 m 1,0,-1
 143 -14 l 1,1,2
 124 -7 124 -7 111 4 c 2,3,-1
 91 21 l 1,4,-1
 90 21 l 1,5,6
 60 46 60 46 60 95 c 2,7,-1
 60 182 l 1,8,-1
 60 285 l 2,9,10
 60 326 60 326 39 351 c 1,11,12
 -2 377 l 1,13,-1
 101 500 l 1,14,15
 120 493 120 493 133 482 c 2,16,-1
 153 465 l 2,17,18
 177 444 177 444 183 408 c 1,19,-1
 206 436 l 2,20,21
 234 470 234 470 271 470 c 1,22,23
 300 469 300 469 323 450 c 2,24,-1
 344 432 l 2,25,26
 357 421 357 421 369 404 c 0,27,28
 375 394 375 394 381 384 c 1,29,-1
 424 436 l 2,30,31
 452 470 452 470 489 470 c 1,32,33
 518 469 518 469 541 450 c 2,34,-1
 562 432 l 2,35,36
 575 421 575 421 587 404 c 0,37,38
 620 354 620 354 620 288 c 2,39,-1
 620 201 l 2,40,41
 620 160 620 160 641 135 c 1,42,-1
 682 109 l 1,43,-1
 579 -14 l 1,44,45
 560 -7 560 -7 547 4 c 2,46,-1
 527 21 l 1,47,-1
 526 21 l 1,48,49
 496 46 496 46 496 95 c 2,50,-1
 496 182 l 2,51,52
 496 248 496 248 463 298 c 0,53,54
 456 309 456 309 448 318 c 1,55,56
 429 330 429 330 405 330 c 1,57,58
 402 310 402 310 402 288 c 2,59,-1
 402 201 l 2,60,61
 402 160 402 160 423 135 c 1,62,-1
 464 109 l 1,63,-1
 361 -14 l 1,64,65
 342 -7 342 -7 329 4 c 2,66,-1
 309 21 l 1,67,-1
 308 21 l 1,68,69
 278 46 278 46 278 95 c 2,70,-1
 278 182 l 2,71,72
 278 248 278 248 245 298 c 0,73,74
 238 309 238 309 230 318 c 1,75,76
 211 330 211 330 187 330 c 1,77,78
 184 310 184 310 184 288 c 2,79,-1
 184 201 l 2,80,81
 184 160 184 160 205 135 c 1,82,-1
 246 109 l 1,0,-1
EndSplineSet
Validated: 1
EndChar

StartChar: N
Encoding: 78 78 46
Width: 680
VWidth: 1000
Flags: MW
HStem: 330 140<283.5 410.5>
VStem: 113 124<135.785 318.531> 444 124<135.785 263.047>
LayerCount: 2
Back
SplineSet
568 56 m 17,12,13
 506 78 506 78 506 148 c 2,14,-1
 506 235 l 2,17,-1
 506 301 506 301 456 351 c 0,6,7
 408 399 408 399 340 400 c 0,4,5
 273 400 273 400 224 351 c 0,2,3
 176 303 176 303 175 235 c 0,0,1
237 56 m 17,12,13
 175 78 175 78 175 148 c 2,14,-1
 175 338 l 2,15,16
 175 408 175 408 113 430 c 9,17,-1
EndSplineSet
Fore
SplineSet
299 109 m 1,0,-1
 196 -14 l 1,1,2
 177 -7 177 -7 164 4 c 2,3,-1
 144 21 l 1,4,-1
 143 21 l 2,5,6
 113 46 113 46 113 95 c 2,7,-1
 113 182 l 1,8,-1
 113 285 l 2,9,10
 113 326 113 326 92 351 c 1,11,12
 66 374 66 374 51 377 c 1,13,-1
 154 500 l 1,14,15
 173 493 173 493 186 482 c 2,16,-1
 206 465 l 2,17,18
 236 439 236 439 237 388 c 1,19,-1
 254 409 l 2,20,21
 259 415 259 415 265 421 c 0,22,23
 314 470 314 470 381 470 c 24,24,25
 440 470 440 470 485 432 c 2,26,-1
 506 415 l 2,27,28
 568 363 568 363 568 288 c 2,29,-1
 568 201 l 2,30,31
 568 160 568 160 589 135 c 1,32,33
 615 112 615 112 630 109 c 1,34,-1
 527 -14 l 1,35,36
 508 -7 508 -7 495 4 c 2,37,-1
 475 21 l 1,38,-1
 474 21 l 2,39,40
 444 46 444 46 444 95 c 2,41,-1
 444 182 l 2,42,43
 444 249 444 249 392 300 c 1,44,45
 351 329 351 329 299 330 c 0,46,47
 268 330 268 330 240 319 c 1,48,49
 237 304 237 304 237 288 c 2,50,-1
 237 201 l 2,51,52
 237 160 237 160 258 135 c 1,53,54
 285 112 285 112 299 109 c 1,0,-1
EndSplineSet
Validated: 1
EndChar

StartChar: O
Encoding: 79 79 47
Width: 680
Flags: W
HStem: -10 140<296.568 382.691> 330 140<297.309 383.432>
VStem: 108 124<142 292> 448 124<168 318>
LayerCount: 2
Back
SplineSet
170 230 m 128,-1,0
 170 300 170 300 220 350 c 128,-1,1
 270 400 270 400 340 400 c 128,-1,2
 410 400 410 400 460 350 c 128,-1,3
 510 300 510 300 510 230 c 128,-1,4
 510 160 510 160 460 110 c 128,-1,5
 410 60 410 60 340 60 c 128,-1,6
 270 60 270 60 220 110 c 128,-1,7
 170 160 170 160 170 230 c 128,-1,0
EndSplineSet
Fore
SplineSet
232 283 m 0,0,1
 232 212 232 212 284 160 c 1,2,3
 326 130 326 130 381 130 c 0,4,5
 415 130 415 130 445 142 c 1,6,7
 448 159 448 159 448 177 c 0,8,9
 448 248 448 248 396 300 c 1,10,11
 354 330 354 330 299 330 c 0,12,13
 265 330 265 330 235 318 c 1,14,15
 232 301 232 301 232 283 c 0,0,1
108 177 m 0,16,17
 108 239 108 239 147 285 c 2,18,-1
 250 408 l 2,19,20
 255 414 255 414 261 420 c 0,21,22
 311 470 311 470 381 470 c 0,23,24
 443 470 443 470 489 431 c 2,25,-1
 509 414 l 2,26,27
 515 409 515 409 522 403 c 0,28,29
 572 353 572 353 572 283 c 0,30,31
 572 221 572 221 533 175 c 2,32,-1
 430 52 l 2,33,34
 425 46 425 46 419 40 c 0,35,36
 369 -10 369 -10 299 -10 c 0,37,38
 237 -10 237 -10 191 29 c 2,39,-1
 171 46 l 2,40,41
 165 51 165 51 158 57 c 0,42,43
 108 107 108 107 108 177 c 0,16,17
EndSplineSet
Validated: 1
EndChar

StartChar: uni0200
Encoding: 512 512 48
Width: 454
VWidth: 0
Flags: W
HStem: 166 120
VStem: 167 120
LayerCount: 2
Fore
SplineSet
167 226 m 25,0,-1
 227 286 l 25,1,-1
 287 226 l 25,2,-1
 227 166 l 25,3,-1
 167 226 l 25,0,-1
EndSplineSet
Validated: 1
EndChar

StartChar: uni0201
Encoding: 513 513 49
Width: 454
Flags: W
VStem: 252 50<0 546>
DStem2: 70 515 89 474 0.906056 0.423158<0 178.02>
LayerCount: 2
Fore
SplineSet
252 546 m 1,0,-1
 89 474 l 1,1,-1
 70 515 l 1,2,-1
 252 600 l 1,3,-1
 302 600 l 1,4,-1
 302 0 l 1,5,-1
 252 0 l 1,6,-1
 252 546 l 1,0,-1
EndSplineSet
Validated: 1
EndChar

StartChar: uni0202
Encoding: 514 514 50
Width: 454
Flags: W
VStem: 202 50<0 600>
LayerCount: 2
Fore
SplineSet
252 600 m 25,0,-1
 252 0 l 25,1,-1
 202 0 l 25,2,-1
 202 600 l 25,3,-1
 252 600 l 25,0,-1
EndSplineSet
Validated: 1
EndChar

StartChar: uni0203
Encoding: 515 515 51
Width: 454
Flags: W
VStem: 152 50<0 546>
DStem2: 202 600 202 546 0.906056 -0.423158<22.8505 200.871>
LayerCount: 2
Fore
SplineSet
202 546 m 1,0,-1
 202 0 l 1,1,-1
 152 0 l 1,2,-1
 152 600 l 1,3,-1
 202 600 l 1,4,-1
 384 515 l 1,5,-1
 365 474 l 1,6,-1
 202 546 l 1,0,-1
EndSplineSet
Validated: 1
EndChar

StartChar: uni0204
Encoding: 516 516 52
Width: 454
Flags: W
VStem: 152 50<0 392 446 546>
DStem2: 202 600 202 546 0.906056 -0.423158<22.8505 200.871> 202 446 202 392 0.906056 -0.423158<22.8505 200.871>
LayerCount: 2
Fore
SplineSet
202 392 m 1,0,-1
 202 0 l 1,1,-1
 152 0 l 1,2,-1
 152 600 l 1,3,-1
 202 600 l 1,4,-1
 384 515 l 1,5,-1
 365 474 l 1,6,-1
 202 546 l 1,7,-1
 202 446 l 1,8,-1
 384 361 l 1,9,-1
 365 320 l 1,10,-1
 202 392 l 1,0,-1
EndSplineSet
Validated: 1
EndChar

StartChar: uni0205
Encoding: 517 517 53
Width: 454
Flags: W
VStem: 152 50<0 238 292 392 446 546>
DStem2: 202 600 202 546 0.906056 -0.423158<22.8505 200.871> 202 446 202 392 0.906056 -0.423158<22.8505 200.871> 202 292 202 238 0.906056 -0.423158<22.8505 200.871>
LayerCount: 2
Fore
SplineSet
202 292 m 17,0,-1
 384 207 l 1,1,-1
 365 166 l 1,2,-1
 202 238 l 1,3,-1
 202 0 l 1,4,-1
 152 0 l 1,5,-1
 152 600 l 1,6,-1
 202 600 l 1,7,-1
 384 515 l 1,8,-1
 365 474 l 1,9,-1
 202 546 l 1,10,-1
 202 446 l 1,11,-1
 384 361 l 1,12,-1
 365 320 l 1,13,-1
 202 392 l 9,14,-1
 202 292 l 17,0,-1
EndSplineSet
Validated: 1
EndChar

StartChar: uni0206
Encoding: 518 518 54
Width: 454
Flags: W
VStem: 152 50<0 234 288 338 392 442 496 546>
DStem2: 202 600 202 546 0.906056 -0.423158<22.8505 200.871> 202 496 202 442 0.906056 -0.423158<22.8505 200.871> 202 392 202 338 0.906056 -0.423158<22.8505 200.871> 202 288 202 234 0.906056 -0.423158<22.8505 200.871>
LayerCount: 2
Fore
SplineSet
202 288 m 17,0,-1
 384 203 l 1,1,-1
 365 162 l 1,2,-1
 202 234 l 1,3,-1
 202 0 l 1,4,-1
 152 0 l 1,5,-1
 152 600 l 1,6,-1
 202 600 l 1,7,-1
 384 515 l 1,8,-1
 365 474 l 1,9,-1
 202 546 l 1,10,-1
 202 496 l 1,11,-1
 384 411 l 1,12,-1
 365 370 l 1,13,-1
 202 442 l 9,14,-1
 202 392 l 17,15,-1
 384 307 l 1,16,-1
 365 266 l 1,17,-1
 202 338 l 9,18,-1
 202 288 l 17,0,-1
EndSplineSet
Validated: 1
EndChar

StartChar: uni0207
Encoding: 519 519 55
Width: 454
Flags: W
VStem: 152 50<0 130 184 234 288 338 392 442 496 546>
DStem2: 202 600 202 546 0.906056 -0.423158<22.8505 200.871> 202 496 202 442 0.906056 -0.423158<22.8505 200.871> 202 392 202 338 0.906056 -0.423158<22.8505 200.871> 202 288 202 234 0.906056 -0.423158<22.8505 200.871> 202 184 202 130 0.906056 -0.423158<22.8505 200.871>
LayerCount: 2
Fore
SplineSet
202 130 m 1,0,-1
 202 0 l 1,1,-1
 152 0 l 1,2,-1
 152 600 l 1,3,-1
 202 600 l 1,4,-1
 384 515 l 1,5,-1
 365 474 l 1,6,-1
 202 546 l 1,7,-1
 202 496 l 1,8,-1
 384 411 l 1,9,-1
 365 370 l 1,10,-1
 202 442 l 9,11,-1
 202 392 l 17,12,-1
 384 307 l 1,13,-1
 365 266 l 1,14,-1
 202 338 l 9,15,-1
 202 288 l 17,16,-1
 384 203 l 1,17,-1
 365 162 l 1,18,-1
 202 234 l 1,19,-1
 202 184 l 1,20,-1
 384 99 l 1,21,-1
 365 58 l 1,22,-1
 202 130 l 1,0,-1
EndSplineSet
Validated: 1
EndChar

StartChar: uni020C
Encoding: 524 524 59
Width: 170
Flags: W
HStem: 68 78
VStem: 22 99
DStem2: 41 146 22 105 0.907627 -0.419778<0 88.1079>
LayerCount: 2
Fore
SplineSet
41 146 m 25,0,-1
 121 109 l 25,1,-1
 102 68 l 25,2,-1
 22 105 l 25,3,-1
 41 146 l 25,0,-1
EndSplineSet
Validated: 1
EndChar

StartChar: uni0210
Encoding: 528 528 60
Width: 380
Flags: W
HStem: 80 80<40 340> 280 80<40 340>
VStem: 0 40<0 80 160 280 360 440> 340 40<0 80 160 280 360 1044>
LayerCount: 2
Fore
SplineSet
380 0 m 1,0,-1
 340 0 l 1,1,-1
 340 80 l 1,2,-1
 40 80 l 1,3,-1
 40 0 l 1,4,-1
 0 0 l 1,5,-1
 0 440 l 1,6,-1
 40 440 l 1,7,-1
 40 360 l 1,8,-1
 340 360 l 1,9,-1
 340 1044 l 1,10,-1
 380 1044 l 1,11,-1
 380 0 l 1,0,-1
340 160 m 1,12,-1
 340 280 l 1,13,-1
 40 280 l 1,14,-1
 40 160 l 1,15,-1
 340 160 l 1,12,-1
EndSplineSet
Validated: 1
EndChar

StartChar: uni0211
Encoding: 529 529 61
Width: 380
Flags: W
HStem: 80 80<40 340> 280 80<40 340>
VStem: 0 40<0 80 160 280 360 440> 340 40<0 80 160 280 360 440>
LayerCount: 2
Fore
SplineSet
380 0 m 1,0,-1
 340 0 l 1,1,-1
 340 80 l 1,2,-1
 40 80 l 1,3,-1
 40 0 l 1,4,-1
 0 0 l 1,5,-1
 0 440 l 1,6,-1
 40 440 l 1,7,-1
 40 360 l 1,8,-1
 340 360 l 1,9,-1
 340 440 l 1,10,-1
 380 440 l 1,11,-1
 380 0 l 1,0,-1
340 160 m 1,12,-1
 340 280 l 1,13,-1
 40 280 l 1,14,-1
 40 160 l 1,15,-1
 340 160 l 1,12,-1
EndSplineSet
Validated: 1
EndChar

StartChar: uni0212
Encoding: 530 530 62
Width: 380
Flags: W
DStem2: -5 206 75 248 0.561122 0.827733<79.6546 220.028> 75 248 -5 206 0.661829 -0.749655<0 226.716> 176 473 157 362 0.658282 -0.752772<71.0503 296.447> 225 78 206 -33 0.556852 0.830612<0 139.238>
LayerCount: 2
Fore
SplineSet
225 78 m 25,0,-1
 305 192 l 25,1,-1
 157 362 l 25,2,-1
 75 248 l 25,3,-1
 225 78 l 25,0,-1
206 -33 m 25,4,-1
 -5 206 l 25,5,-1
 176 473 l 25,6,-1
 385 234 l 25,7,-1
 206 -33 l 25,4,-1
EndSplineSet
Validated: 1
EndChar

StartChar: uni0213
Encoding: 531 531 63
Width: 380
Flags: W
VStem: 154 62<424 1044>
DStem2: 10 206 90 248 0.551162 0.834398<79.1377 198.671> 90 248 10 206 0.658505 -0.752577<0 205.548> 216 412 157 347 0.654283 -0.75625<10.5535 214.792> 225 93 206 -18 0.545456 0.83814<0 118.43>
LayerCount: 2
Back
SplineSet
225 -127 m 25,0,-1
 290 -28 l 1,1,-1
 157 127 l 1,2,-1
 90 28 l 1,3,-1
 225 -127 l 25,0,-1
206 -238 m 1,4,-1
 10 -14 l 1,5,-1
 154 204 l 1,6,-1
 149 824 l 1,7,-1
 221 824 l 1,8,-1
 216 192 l 1,9,-1
 370 14 l 1,10,-1
 206 -238 l 1,4,-1
EndSplineSet
Fore
SplineSet
225 93 m 25,0,-1
 290 192 l 1,1,-1
 157 347 l 1,2,-1
 90 248 l 1,3,-1
 225 93 l 25,0,-1
206 -18 m 1,4,-1
 10 206 l 1,5,-1
 154 424 l 1,6,-1
 149 1044 l 1,7,-1
 221 1044 l 1,8,-1
 216 412 l 1,9,-1
 370 234 l 1,10,-1
 206 -18 l 1,4,-1
EndSplineSet
Validated: 1
EndChar

StartChar: uni0214
Encoding: 532 532 64
Width: 380
Flags: W
VStem: 154 62<424 1044>
LayerCount: 2
Fore
SplineSet
206 -18 m 1,0,-1
 10 206 l 1,1,-1
 154 424 l 1,2,-1
 149 1044 l 1,3,-1
 221 1044 l 1,4,-1
 216 412 l 1,5,-1
 370 234 l 1,6,-1
 206 -18 l 1,0,-1
EndSplineSet
Validated: 1
EndChar

StartChar: uni0215
Encoding: 533 533 65
Width: 380
Flags: W
HStem: 984 60<221 301.887>
VStem: 154 62<424 984> 325 55<825.955 962.863>
LayerCount: 2
Fore
SplineSet
206 -18 m 1,0,-1
 10 206 l 1,1,-1
 154 424 l 1,2,-1
 149 1044 l 1,3,-1
 222 1044 l 2,4,5
 380 1044 380 1044 380 930 c 259,6,7
 380 815 380 815 242 612 c 1,8,-1
 236 620 l 1,9,10
 325 787 325 787 325 894 c 27,11,12
 325 984 325 984 245 984 c 2,13,-1
 221 984 l 1,14,-1
 216 412 l 1,15,-1
 370 234 l 1,16,-1
 206 -18 l 1,0,-1
EndSplineSet
Validated: 1
EndChar

StartChar: uni0216
Encoding: 534 534 66
Width: 380
Flags: W
HStem: 984 60<221 301.887>
VStem: 154 64<424 628 691 984> 325 55<802.847 962.863>
LayerCount: 2
Back
SplineSet
221 764 m 1,0,-1
 216 192 l 1,1,-1
 370 14 l 1,2,-1
 206 -238 l 1,3,-1
 10 -14 l 1,4,-1
 154 204 l 1,5,-1
 149 824 l 1,6,-1
 222 824 l 2,7,8
 380 824 380 824 380 710 c 259,9,10
 380 531 380 531 245 439 c 1,11,-1
 376 316 l 1,12,-1
 358 291 l 1,13,-1
 196 426 l 1,14,-1
 196 450 l 1,15,16
 325 563 325 563 325 674 c 283,17,18
 325 764 325 764 245 764 c 2,19,-1
 221 764 l 1,0,-1
EndSplineSet
Fore
SplineSet
218 691 m 1,0,1
 325 793 325 793 325 894 c 0,2,3
 325 984 325 984 245 984 c 2,4,-1
 221 984 l 1,5,-1
 218 691 l 1,0,1
218 628 m 1,6,-1
 216 412 l 1,7,-1
 370 234 l 1,8,-1
 206 -18 l 1,9,-1
 10 206 l 1,10,-1
 154 424 l 1,11,-1
 149 1044 l 1,12,-1
 222 1044 l 2,13,14
 380 1044 380 1044 380 930 c 0,15,16
 380 751 380 751 245 659 c 1,17,-1
 376 536 l 1,18,-1
 358 511 l 1,19,-1
 218 628 l 1,6,-1
EndSplineSet
Validated: 1
EndChar

StartChar: uni0217
Encoding: 535 535 67
Width: 380
Flags: W
HStem: 984 60<221 315.157>
VStem: 154 64<424 560 615 778 837 984> 325 55<683.785 766.641 900.85 1009.5>
LayerCount: 2
Back
SplineSet
179 603 m 17,0,-1
 222 603 l 2,1,2
 380 603 380 603 380 534 c 259,3,4
 380 435 380 435 245 371 c 1,5,-1
 376 248 l 1,6,-1
 358 223 l 1,7,-1
 196 358 l 1,8,-1
 196 382 l 1,9,10
 325 457 325 457 325 511 c 283,11,12
 325 558 325 558 245 558 c 2,13,-1
 179 558 l 9,14,-1
 179 603 l 17,0,-1
245 592 m 1,15,-1
 196 579 l 1,16,-1
 196 603 l 1,17,18
 325 678 325 678 325 719 c 283,19,20
 325 764 325 764 245 764 c 2,21,-1
 221 764 l 1,22,-1
 216 192 l 1,23,-1
 370 14 l 1,24,-1
 206 -238 l 1,25,-1
 10 -14 l 1,26,-1
 154 204 l 1,27,-1
 149 824 l 1,28,-1
 222 824 l 2,29,30
 380 824 380 824 380 755 c 259,31,32
 380 656 380 656 245 592 c 1,15,-1
EndSplineSet
Fore
SplineSet
220 837 m 1,0,1
 325 902 325 902 325 939 c 0,2,3
 325 984 325 984 245 984 c 2,4,-1
 221 984 l 1,5,-1
 220 837 l 1,0,1
219 778 m 1,6,-1
 218 615 l 1,7,8
 325 682 325 682 325 731 c 0,9,10
 325 778 325 778 245 778 c 2,11,-1
 219 778 l 1,6,-1
217 560 m 1,12,-1
 216 412 l 1,13,-1
 370 234 l 1,14,-1
 206 -18 l 1,15,-1
 10 206 l 1,16,-1
 154 424 l 1,17,-1
 149 1044 l 1,18,-1
 222 1044 l 2,19,20
 380 1044 380 1044 380 975 c 0,21,22
 380 883 380 883 264 822 c 1,23,24
 380 813 380 813 380 754 c 0,25,26
 380 655 380 655 245 591 c 1,27,-1
 376 468 l 1,28,-1
 358 443 l 1,29,-1
 217 560 l 1,12,-1
EndSplineSet
Validated: 1
EndChar

StartChar: Scommaaccent
Encoding: 536 536 68
Width: 380
Flags: W
HStem: 595 26<245 297.603> 712 45<219 314.648> 848 45<220 312.593> 984 60<221 315.157>
VStem: 154 63<482 565 621 712 757 848 893 984> 325 55<636.562 701.007 771.24 837.164 909.58 1009.5>
LayerCount: 2
Back
SplineSet
179 537 m 17,0,-1
 222 537 l 2,1,2
 380 537 380 537 380 468 c 259,3,4
 380 375 380 375 245 375 c 1,5,-1
 376 252 l 1,6,-1
 358 227 l 1,7,-1
 196 362 l 1,8,-1
 196 401 l 1,9,10
 325 401 325 401 325 445 c 283,11,12
 325 492 325 492 245 492 c 2,13,-1
 179 492 l 9,14,-1
 179 537 l 17,0,-1
245 511 m 1,15,16
 207 511 l 1,17,-1
 207 537 l 1,18,19
 325 537 325 537 325 581 c 283,20,21
 325 628 325 628 245 628 c 2,22,23
 179 628 l 9,24,-1
 179 673 l 17,25,-1
 222 673 l 2,26,27
 380 673 380 673 380 604 c 259,28,29
 380 511 380 511 245 511 c 1,15,16
245 647 m 1,30,-1
 196 649 l 1,31,-1
 196 673 l 1,32,33
 325 673 325 673 325 719 c 283,34,35
 325 764 325 764 245 764 c 2,36,-1
 221 764 l 1,37,-1
 216 262 l 1,38,-1
 370 14 l 1,39,-1
 206 -238 l 1,40,-1
 10 -14 l 1,41,-1
 154 204 l 1,42,-1
 149 824 l 1,43,-1
 222 824 l 2,44,45
 380 824 380 824 380 755 c 259,46,47
 380 647 380 647 245 647 c 1,30,-1
EndSplineSet
Fore
SplineSet
220 893 m 1,0,1
 325 898 325 898 325 939 c 0,2,3
 325 984 325 984 245 984 c 2,4,-1
 221 984 l 1,5,-1
 220 893 l 1,0,1
325 881 m 1,6,7
 380 865 380 865 380 824 c 0,8,9
 380 766 380 766 328 744 c 1,10,11
 380 728 380 728 380 688 c 0,12,13
 380 595 380 595 245 595 c 1,14,-1
 376 472 l 1,15,-1
 358 447 l 1,16,-1
 217 565 l 1,17,-1
 216 482 l 1,18,-1
 370 234 l 1,19,-1
 206 -18 l 1,20,-1
 10 206 l 1,21,-1
 154 424 l 1,22,-1
 149 1044 l 1,23,-1
 222 1044 l 2,24,25
 380 1044 380 1044 380 975 c 128,-1,26
 380 906 380 906 325 881 c 1,6,7
220 848 m 1,27,-1
 219 757 l 1,28,29
 325 759 325 759 325 801 c 0,30,31
 325 848 325 848 245 848 c 2,32,-1
 220 848 l 1,27,-1
218 712 m 1,33,-1
 217 621 l 1,34,35
 325 625 325 625 325 665 c 0,36,37
 325 712 325 712 245 712 c 2,38,-1
 218 712 l 1,33,-1
EndSplineSet
Validated: 1
EndChar

StartChar: scommaaccent
Encoding: 537 537 69
Width: 380
VWidth: 0
Flags: W
LayerCount: 2
Fore
SplineSet
130 226 m 25,0,-1
 190 286 l 25,1,-1
 250 226 l 25,2,-1
 190 166 l 25,3,-1
 130 226 l 25,0,-1
EndSplineSet
Validated: 1
EndChar

StartChar: uni021A
Encoding: 538 538 70
Width: 380
VWidth: 0
Flags: W
LayerCount: 2
Fore
SplineSet
130 226 m 25,0,-1
 190 286 l 25,1,-1
 250 226 l 25,2,-1
 190 166 l 25,3,-1
 130 226 l 25,0,-1
EndSplineSet
Validated: 1
EndChar

StartChar: uni021C
Encoding: 540 540 71
Width: 244
Flags: W
HStem: 160 120<117.004 192.996>
VStem: 95 120<182.004 257.996>
LayerCount: 2
Fore
SplineSet
95 220 m 256,0,1
 95 236 95 236 117 258 c 256,2,3
 139 280 139 280 155 280 c 256,4,5
 171 280 171 280 193 258 c 256,6,7
 215 236 215 236 215 220 c 256,8,9
 215 204 215 204 193 182 c 256,10,11
 171 160 171 160 155 160 c 256,12,13
 139 160 139 160 117 182 c 256,14,15
 95 204 95 204 95 220 c 256,0,1
EndSplineSet
Validated: 1
EndChar

StartChar: amacron
Encoding: 257 257 73
Width: 680
VWidth: 0
Flags: W
HStem: -10 57<198.238 290.251> 15 104<658.657 741> 447 52<349.756 500.289>
VStem: 66 110<67.7042 215.98> 532 87<168.531 307 476 522.608> 844 27<214.476 255.778>
LayerCount: 2
Fore
SplineSet
410 447 m 3,0,1
 342 447 342 447 260 327 c 0,2,3
 176 206 176 206 176 156 c 3,4,5
 176 47 176 47 246 47 c 259,6,7
 317 47 317 47 388 148 c 0,8,9
 504 310 504 310 504 370 c 3,10,11
 504 403 504 403 501 428 c 1,12,13
 475 447 475 447 410 447 c 3,0,1
581 531 m 3,14,15
 612 531 612 531 612 483 c 3,16,17
 612 409 612 409 619 264 c 264,18,19
 626 119 626 119 717 119 c 3,20,21
 760 119 760 119 803 170 c 0,22,23
 836 210 836 210 844 257 c 0,24,25
 845 263 845 263 853 263 c 259,26,27
 861 263 861 263 866 256 c 256,28,29
 871 249 871 249 871 228 c 3,30,31
 871 180 871 180 814 107 c 0,32,33
 742 15 742 15 674 15 c 3,34,35
 629 15 629 15 586 49 c 0,36,37
 535 89 535 89 532 307 c 1,38,39
 353 -10 353 -10 213 -10 c 3,40,41
 66 -10 66 -10 66 95 c 3,42,43
 66 257 66 257 211 383 c 24,44,45
 346 499 346 499 428 499 c 3,46,47
 505 499 505 499 528 476 c 1,48,49
 541 531 541 531 581 531 c 3,14,15
EndSplineSet
Validated: 1
EndChar

StartChar: Abreve
Encoding: 258 258 74
Width: 680
VWidth: 0
Flags: W
LayerCount: 2
Fore
SplineSet
360 462 m 3,0,1
 308 462 308 462 251 404 c 0,2,3
 206 358 206 358 206 254 c 3,4,5
 206 140 206 140 230 112 c 0,6,7
 262 75 262 75 323 75 c 3,8,9
 424 75 424 75 458 123 c 0,10,11
 512 199 512 199 512 280 c 3,12,13
 512 342 512 342 479 395 c 0,14,15
 437 462 437 462 360 462 c 3,0,1
494 987 m 3,16,17
 552 987 552 987 586 964 c 0,18,19
 627 936 627 936 627 905 c 3,20,21
 627 808 627 808 572 808 c 3,22,23
 562 808 562 808 550 812 c 1,24,25
 536 862 536 862 504 891 c 0,26,27
 469 923 469 923 432 923 c 3,28,29
 356 923 356 923 291 808 c 0,30,31
 225 691 225 691 208 408 c 17,32,33
 283 504 283 504 392 504 c 27,34,35
 498 504 498 504 547 460 c 24,36,37
 598 414 598 414 598 320 c 3,38,39
 598 194 598 194 518 104 c 24,40,41
 417 -10 417 -10 307 -10 c 3,42,43
 208 -10 208 -10 173 19 c 0,44,45
 104 76 104 76 104 211 c 3,46,47
 104 332 104 332 150 579 c 0,48,49
 195 821 195 821 298 926 c 0,50,51
 358 987 358 987 494 987 c 3,16,17
EndSplineSet
Validated: 1
EndChar

StartChar: abreve
Encoding: 259 259 75
Width: 680
VWidth: 0
Flags: MW
HStem: 502 61<370.128 504.4>
DStem2: 118 -13 218 53 0.0413846 0.999143<366.325 407.291>
LayerCount: 2
Fore
SplineSet
230 349 m 25,0,-1
 218 53 l 1,1,-1
 118 -13 l 25,2,-1
 139 494 l 25,3,-1
 237 494 l 25,4,-1
 235 459 l 25,5,6
 361 563 361 563 480 563 c 3,7,8
 596 563 596 563 632 530 c 0,9,10
 677 489 677 489 678 423 c 1,11,-1
 546 366 l 1,12,13
 535 502 535 502 443 502 c 3,14,15
 312 502 312 502 230 349 c 25,0,-1
EndSplineSet
Validated: 1
EndChar

StartChar: Aogonek
Encoding: 260 260 76
Width: 680
VWidth: 0
Flags: W
HStem: -10 69<267.787 398.057> 502 39<366.305 461.88> 817 53<153.964 350.178>
VStem: -46 36<485.513 652.785> 126 97<107.285 317.58> 532 117<260.611 558.469>
LayerCount: 2
Fore
SplineSet
-1 449 m 259,0,1
 -46 449 -46 449 -46 558 c 259,2,3
 -46 706 -46 706 54 789 c 256,4,5
 152 870 152 870 271 870 c 259,6,7
 409 870 409 870 503 787 c 280,8,9
 649 658 649 658 649 417 c 256,10,11
 649 262 649 262 577 155 c 280,12,13
 467 -10 467 -10 298 -10 c 259,14,15
 126 -10 126 -10 126 175 c 259,16,17
 126 325 126 325 208 426 c 256,18,19
 302 541 302 541 428 541 c 259,20,21
 501 541 501 541 501 497 c 259,22,23
 501 476 501 476 484 476 c 259,24,25
 465 476 465 476 455 490 c 256,26,27
 446 502 446 502 417 502 c 259,28,29
 362 502 362 502 279 399 c 256,30,31
 224 332 224 332 223 211 c 256,32,33
 223 59 223 59 339 59 c 259,34,35
 418 59 418 59 497 208 c 256,36,37
 532 275 532 275 532 411 c 259,38,39
 532 564 532 564 442 702 c 256,40,41
 367 817 367 817 272 817 c 259,42,43
 144 817 144 817 80 757 c 256,44,45
 -10 674 -10 674 -10 559 c 259,46,47
 -10 526 -10 526 0 506 c 256,48,49
 11 484 11 484 11 463 c 259,50,51
 11 449 11 449 -1 449 c 259,0,1
EndSplineSet
Validated: 1
EndChar

StartChar: aogonek
Encoding: 261 261 77
Width: 680
VWidth: 0
Flags: MW
HStem: -11 77<174.216 340.343> 350 127<559.701 682.895> 406 31<158.258 248.847>
VStem: -39 127<140.203 278.283> 329 29<-127.982 -5.80273> 694 90<261.544 413.5>
LayerCount: 2
Back
SplineSet
249 424 m 11,0,1
 249.08 406 249.08 406 224 406 c 3,2,3
 88 406 88 406 88 219 c 3,4,5
 88 66 88 66 310 66 c 3,6,7
 500 66 500 66 612 162 c 0,8,9
 694 232 694 232 694 294 c 3,10,11
 694 350 694 350 620 350 c 3,12,13
 542 350 542 350 475 234 c 24,14,15
 358 28 358 28 358 -110 c 3,16,17
 358 -128 358 -128 343.5 -128 c 139,-1,19
 329 -128 329 -128 329 -114 c 3,20,21
 329 84 329 84 411 266 c 24,22,23
 505 477 505 477 641 477 c 11,24,25
 783 477 783 477 784 350 c 0,26,27
 784 219 784 219 585 91 c 24,28,29
 423 -11 423 -11 220 -11 c 3,30,31
 -39 -11 -39 -11 -39 182 c 3,32,33
 -39 280 -39 280 43 362 c 0,34,35
 117 437 117 437 225 437 c 3,36,37
 249 437 249 437 249 424 c 11,0,1
EndSplineSet
Fore
SplineSet
249 424 m 259,0,1
 249 406 249 406 224 406 c 259,2,3
 88 406 88 406 88 219 c 259,4,5
 88 66 88 66 310 66 c 259,6,7
 329 66 329 66 347 67 c 257,8,9
 367 169 367 169 411 266 c 256,10,11
 507 477 507 477 641 477 c 259,12,13
 784 477 784 477 784 350 c 259,14,15
 784 215 784 215 585 91 c 256,16,17
 487 30 487 30 375 5 c 257,18,19
 358 -58 358 -58 358 -110 c 259,20,21
 358 -128 358 -128 343 -128 c 259,22,23
 329 -128 329 -128 329 -114 c 259,24,25
 329 -63 329 -63 336 -2 c 257,26,27
 280 -11 280 -11 220 -11 c 259,28,29
 -39 -11 -39 -11 -39 182 c 259,30,31
 -39 280 -39 280 43 362 c 256,32,33
 117 437 117 437 225 437 c 259,34,35
 249 437 249 437 249 424 c 259,0,1
397 72 m 257,36,37
 527 89 527 89 612 162 c 256,38,39
 694 232 694 232 694 294 c 259,40,41
 694 350 694 350 620 350 c 259,42,43
 542 350 542 350 475 234 c 256,44,45
 425 147 425 147 397 72 c 257,36,37
EndSplineSet
Validated: 1
EndChar

StartChar: Cacute
Encoding: 262 262 78
Width: 680
VWidth: 0
Flags: MW
HStem: -233 54<43.7014 170.558> 714 50<563.848 660.568>
VStem: -80 116<-172.892 -85.0967> 672 93<612.285 702.482>
DStem2: 176 490 157 419 0.908392 -0.418119<12.427 226.85 317.153 539.607>
LayerCount: 2
Back
SplineSet
176 490 m 257,0,-1
 666 264 l 257,1,-1
 648 193 l 257,2,-1
 157 419 l 257,3,-1
 176 490 l 257,0,-1
638 764 m 259,4,5
 764 764 764 764 765 663 c 256,6,7
 765 642 765 642 762 624 c 1,8,9
 719 566 719 566 654 527 c 257,10,11
 644 527 644 527 644 536 c 259,12,13
 644 561 644 561 660 600 c 256,14,15
 672 630 672 630 672 650 c 259,16,17
 672 714 672 714 608 714 c 259,18,19
 506 714 506 714 434 292 c 256,20,21
 344 -233 344 -233 66 -233 c 259,22,23
 -80 -233 -80 -233 -80 -122 c 259,24,25
 -80 -99 -80 -99 -76 -92 c 1,26,27
 -12 -42 -12 -42 51 -12 c 257,28,29
 62 -12 62 -12 62 -22 c 259,30,31
 62 -39 62 -39 50 -68 c 256,32,33
 36 -101 36 -101 36 -120 c 259,34,35
 36 -179 36 -179 84 -179 c 259,36,37
 313 -179 313 -179 370 310 c 256,38,39
 423 764 423 764 638 764 c 259,4,5
EndSplineSet
Fore
SplineSet
638 764 m 3,0,1
 764 764 764 764 765 663 c 0,2,3
 765 642 765 642 762 624 c 1,4,5
 719 566 719 566 654 527 c 1,6,7
 644 527 644 527 644 536 c 3,8,9
 644 561 644 561 660 600 c 0,10,11
 672 630 672 630 672 650 c 3,12,13
 672 714 672 714 608 714 c 3,14,15
 515 714 515 714 447 365 c 1,16,-1
 666 264 l 1,17,-1
 648 193 l 1,18,-1
 434 292 l 1,19,20
 344 -233 344 -233 66 -233 c 3,21,22
 -80 -233 -80 -233 -80 -122 c 3,23,24
 -80 -99 -80 -99 -76 -92 c 0,25,26
 -12 -42 -12 -42 51 -12 c 1,27,28
 62 -12 62 -12 62 -22 c 3,29,30
 62 -39 62 -39 50 -68 c 0,31,32
 36 -101 36 -101 36 -120 c 3,33,34
 36 -179 36 -179 84 -179 c 3,35,36
 313 -179 313 -179 370 310 c 0,37,38
 371 315 371 315 371 320 c 1,39,-1
 157 419 l 1,40,-1
 176 490 l 1,41,-1
 382 395 l 1,42,43
 444 764 444 764 638 764 c 3,0,1
EndSplineSet
Validated: 1
EndChar

StartChar: cacute
Encoding: 263 263 79
Width: 680
VWidth: 0
Flags: W
HStem: -285 69<23 183.454> 133 85<247.884 383.13> 610 51<381.685 521.121>
VStem: -100 179<-172.185 -94.1387> 129 96<241.427 407.842> 522 114<382.919 606.717>
LayerCount: 2
Back
SplineSet
503 294 m 285,0,-1
 502 218 l 261,1,2
 369 133 369 133 290 133 c 263,3,4
 129 133 129 133 129 291 c 263,5,6
 129 437 129 437 237 549 c 284,7,8
 345 661 345 661 434 661 c 263,9,10
 533 661 533 661 574 626 c 285,11,-1
 546 594 l 285,12,13
 509 610 509 610 455 610 c 263,14,15
 361 610 361 610 281 475 c 284,16,17
 225 381 225 381 225 312 c 263,18,19
 225 218 225 218 311 218 c 263,20,21
 389 218 389 218 503 294 c 285,0,-1
522 621 m 269,22,-1
 636 664 l 261,23,24
 636 94 636 94 337 -168 c 284,25,26
 204 -285 204 -285 60 -285 c 263,27,28
 -14 -285 -14 -285 -63 -251 c 284,29,30
 -100 -225 -100 -225 -100 -178 c 263,31,32
 -100 -114 -100 -114 -71 -86 c 284,33,34
 -34 -50 -34 -50 6 -50 c 263,35,36
 79 -50 79 -50 79 -112 c 263,37,38
 79 -147 79 -147 58 -173 c 285,39,40
 79 -216 79 -216 119 -216 c 263,41,42
 213 -216 213 -216 298 -120 c 260,43,44
 522 135 522 135 522 621 c 269,22,-1
EndSplineSet
Fore
SplineSet
490 285 m 257,0,1
 520 429 520 429 522 602 c 257,2,3
 493 610 493 610 455 610 c 259,4,5
 361 610 361 610 281 475 c 256,6,7
 225 380 225 380 225 312 c 259,8,9
 225 218 225 218 311 218 c 259,10,11
 384 218 384 218 490 285 c 257,0,1
561 636 m 257,12,-1
 636 664 l 257,13,14
 636 94 636 94 337 -168 c 256,15,16
 204 -285 204 -285 60 -285 c 259,17,18
 -14 -285 -14 -285 -63 -251 c 256,19,20
 -100 -225 -100 -225 -100 -178 c 259,21,22
 -100 -114 -100 -114 -71 -86 c 256,23,24
 -34 -50 -34 -50 6 -50 c 259,25,26
 79 -50 79 -50 79 -112 c 259,27,28
 79 -147 79 -147 58 -173 c 257,29,30
 79 -216 79 -216 119 -216 c 259,31,32
 214 -216 214 -216 298 -120 c 256,33,34
 411 9 411 9 467 197 c 257,35,36
 358 133 358 133 290 133 c 259,37,38
 129 133 129 133 129 291 c 259,39,40
 129 437 129 437 237 549 c 256,41,42
 345 661 345 661 434 661 c 259,43,44
 518 661 518 661 561 636 c 257,12,-1
EndSplineSet
Validated: 1
EndChar

StartChar: Ccircumflex
Encoding: 264 264 80
Width: 680
VWidth: 0
Flags: W
HStem: -19 69<533 633.928> 517 63<349.639 471.958> 928 63<406.949 555.632>
VStem: -20 79<7 98.375> 436 114<63.0234 205.159> 510 106<289.565 475.5> 605 113<767.957 881.57>
LayerCount: 2
Fore
SplineSet
59 7 m 257,0,-1
 -20 -14 l 257,1,2
 79 523 79 523 214 764 c 256,3,4
 341 991 341 991 506 991 c 259,5,6
 606 991 606 991 659 960 c 256,7,8
 718 924 718 924 718 845 c 259,9,10
 718 730 718 730 596 730 c 259,11,12
 580 730 580 730 580 749 c 259,13,14
 580 764 580 764 594 788 c 256,15,16
 605 808 605 808 605 821 c 259,17,18
 605 863 605 863 572 893 c 256,19,20
 533 928 533 928 477 928 c 259,21,22
 332 928 332 928 232 594 c 256,23,-1
 168 402 l 273,24,25
 306 580 306 580 449 580 c 259,26,27
 525 580 525 580 570 530 c 256,28,29
 616 479 616 479 616 407 c 259,30,31
 616 332 616 332 585 269 c 256,32,33
 550 197 550 197 550 140 c 259,34,35
 550 50 550 50 607 50 c 259,36,37
 641 50 641 50 745 194 c 256,38,39
 766 223 766 223 783 223 c 259,40,41
 807 223 807 223 807 199 c 259,42,43
 807 146 807 146 724 71 c 256,44,45
 625 -19 625 -19 564 -19 c 259,46,47
 502 -19 502 -19 473 8 c 256,48,49
 436 42 436 42 436 109 c 259,50,51
 436 160 436 160 471 235 c 256,52,53
 510 319 510 319 510 381 c 259,54,55
 510 441 510 441 489 474 c 256,56,57
 463 517 463 517 406 517 c 259,58,59
 289 517 289 517 180 347 c 256,60,61
 82 194 82 194 59 7 c 257,0,-1
EndSplineSet
Validated: 1
EndChar

StartChar: ccircumflex
Encoding: 265 265 81
Width: 680
VWidth: 0
Flags: MW
HStem: -10 70<300 421.787> 703 128<315.147 410.853>
VStem: 214 114<72.5547 241.652> 299 128<719.147 814.853>
LayerCount: 2
Fore
SplineSet
299 767 m 256,0,1
 299 793 299 793 318 812 c 256,2,3
 337 831 337 831 363 831 c 256,4,5
 389 831 389 831 408 812 c 256,6,7
 427 793 427 793 427 767 c 256,8,9
 427 741 427 741 408 722 c 256,10,11
 389 703 389 703 363 703 c 256,12,13
 337 703 337 703 318 722 c 256,14,15
 299 741 299 741 299 767 c 256,0,1
188 479 m 257,16,-1
 419 610 l 257,17,18
 406 541 406 541 365 372 c 256,19,20
 328 220 328 220 328 150 c 259,21,22
 328 60 328 60 385 60 c 259,23,24
 457 60 457 60 563 204 c 256,25,26
 584 233 584 233 601 233 c 259,27,28
 625 233 625 233 625 209 c 259,29,30
 625 172 625 172 526 81 c 256,31,32
 427 -10 427 -10 315 -10 c 259,33,34
 285 -10 285 -10 251 18 c 256,35,36
 214 50 214 50 214 119 c 259,37,38
 214 151 214 151 224 191 c 256,39,40
 278 421 278 421 278 484 c 257,41,-1
 188 479 l 257,16,-1
EndSplineSet
Validated: 1
EndChar

StartChar: Cdotaccent
Encoding: 266 266 82
Width: 222
VWidth: 1000
Flags: W
LayerCount: 2
Fore
SplineSet
70 524 m 1,0,-1
 153 524 l 1,1,-1
 153 -109 l 2,2,3
 153 -218 153 -218 10 -218 c 0,4,5
 -3 -218 -3 -218 -18 -215 c 1,6,-1
 -18 -144 l 1,7,8
 -7 -145 -7 -145 2 -145 c 0,9,10
 40 -145 40 -145 55 -130 c 128,-1,11
 70 -115 70 -115 70 -76 c 2,12,-1
 70 524 l 1,0,-1
153 729 m 1,13,-1
 153 624 l 1,14,-1
 70 624 l 1,15,-1
 70 729 l 1,16,-1
 153 729 l 1,13,-1
EndSplineSet
Validated: 1
EndChar

StartChar: cdotaccent
Encoding: 267 267 83
Width: 680
VWidth: 0
Flags: W
HStem: 0 76<718.809 812> 844 105<654.706 755.157>
DStem2: 8 -28 111 39 0.172894 0.98494<83.7991 504.013 554.816 839.788> 192 503 183 453 0.993812 0.111073<0 87.9816> 399 474 285 463 0.532472 -0.846447<0 420.298> 362 522 399 474 0.537535 0.843242<0 428.997>
LayerCount: 2
Fore
SplineSet
104 794 m 257,0,-1
 266 922 l 257,1,-1
 192 503 l 257,2,-1
 362 522 l 257,3,-1
 572 837 l 258,4,5
 647 949 647 949 719 949 c 259,6,7
 845 949 845 949 845 877 c 259,8,9
 845 805 845 805 804 805 c 259,10,11
 776 805 776 805 752 824 c 256,12,13
 727 844 727 844 684 844 c 259,14,15
 634 844 634 844 610 805 c 258,16,-1
 399 474 l 257,17,-1
 565 199 l 258,18,19
 631 92 631 92 853 76 c 257,20,-1
 812 0 l 257,21,-1
 575 2 l 257,22,-1
 285 463 l 257,23,-1
 183 453 l 257,24,-1
 111 39 l 257,25,-1
 8 -28 l 257,26,-1
 154 799 l 257,27,-1
 104 794 l 257,0,-1
EndSplineSet
Validated: 1
EndChar

StartChar: Ccaron
Encoding: 268 268 84
Width: 680
VWidth: 0
Flags: W
HStem: -10 70<187 307.893> 923 64<401.35 553>
VStem: 101 114<72.5547 262.961>
LayerCount: 2
Fore
SplineSet
272 582 m 280,0,1
 215 263 215 263 215 150 c 259,2,3
 215 60 215 60 272 60 c 259,4,5
 346 60 346 60 450 204 c 256,6,7
 471 233 471 233 488 233 c 259,8,9
 512 233 512 233 512 209 c 259,10,11
 512 172 512 172 413 81 c 256,12,13
 314 -10 314 -10 202 -10 c 259,14,15
 172 -10 172 -10 138 18 c 256,16,17
 101 50 101 50 101 119 c 259,18,19
 101 132 101 132 111 191 c 256,20,21
 136 345 136 345 180 579 c 256,22,23
 225 820 225 820 328 926 c 0,24,25
 388 987 388 987 524 987 c 3,26,27
 582 987 582 987 616 964 c 0,28,29
 657 936 657 936 657 905 c 3,30,31
 657 808 657 808 602 808 c 3,32,33
 592 808 592 808 580 812 c 1,34,35
 566 862 566 862 534 891 c 0,36,37
 499 923 499 923 462 923 c 3,38,39
 333 923 333 923 272 582 c 280,0,1
EndSplineSet
Validated: 1
EndChar

StartChar: ccaron
Encoding: 269 269 85
Width: 680
VWidth: 0
Flags: W
HStem: -19 69<623 734.488> 517 63<211.678 282.825 491.085 562.997>
VStem: 320 106<274.155 447.631> 526 114<63.0234 199.749> 600 106<296.436 475.572>
LayerCount: 2
Back
SplineSet
369 391 m 17,0,1
 458 580 458 580 559 580 c 259,2,3
 615 580 615 580 660 530 c 256,4,5
 706 479 706 479 706 422 c 259,6,7
 706 361 706 361 675 269 c 256,8,9
 640 165 640 165 640 140 c 259,10,11
 640 50 640 50 697 50 c 259,12,13
 727 50 727 50 795 141 c 256,14,15
 854 223 854 223 873 223 c 259,16,17
 897 223 897 223 897 199 c 259,18,19
 897 171 897 171 814 71 c 256,20,21
 739 -19 739 -19 654 -19 c 259,22,23
 592 -19 592 -19 563 8 c 256,24,25
 526 42 526 42 526 109 c 259,26,27
 526 142 526 142 561 235 c 256,28,29
 600 341 600 341 600 392 c 259,30,31
 600 441 600 441 579 474 c 256,32,33
 553 517 553 517 516 517 c 259,34,35
 453 517 453 517 390 347 c 257,36,-1
 369 391 l 17,0,1
426 407 m 256,37,38
 426 345 426 345 338 9 c 257,39,-1
 244 -14 l 257,40,41
 319 259 319 259 320 381 c 256,42,43
 320 441 320 441 299 474 c 256,44,45
 273 517 273 517 236 517 c 259,46,47
 173 517 173 517 110 347 c 256,48,49
 32 136 32 136 4 9 c 257,50,51
 -90 -14 l 257,52,53
 -56 136 -56 136 21 484 c 257,54,-1
 -69 479 l 257,55,-1
 138 601 l 257,56,-1
 89 391 l 257,57,58
 178 580 178 580 279 580 c 259,59,60
 335 580 335 580 380 530 c 256,61,62
 426 479 426 479 426 407 c 256,37,38
EndSplineSet
Fore
SplineSet
426 407 m 3,0,1
 426 341 426 341 338 9 c 1,2,-1
 244 -14 l 1,3,4
 320 259 320 259 320 381 c 3,5,6
 320 441 320 441 299 474 c 0,7,8
 272 517 272 517 236 517 c 3,9,10
 173 517 173 517 110 347 c 0,11,12
 32 136 32 136 4 9 c 1,13,-1
 -90 -14 l 1,14,15
 -56 136 -56 136 21 484 c 1,16,-1
 -69 479 l 1,17,-1
 138 601 l 1,18,-1
 89 391 l 1,19,20
 178 580 178 580 279 580 c 3,21,22
 336 580 336 580 380 530 c 0,23,24
 402 505 402 505 414 474 c 1,25,26
 483 580 483 580 559 580 c 3,27,28
 615 580 615 580 660 530 c 0,29,30
 706 479 706 479 706 422 c 3,31,32
 706 361 706 361 675 269 c 0,33,34
 640 165 640 165 640 140 c 3,35,36
 640 50 640 50 697 50 c 3,37,38
 727 50 727 50 795 141 c 0,39,40
 854 223 854 223 873 223 c 3,41,42
 897 223 897 223 897 199 c 3,43,44
 897 171 897 171 814 71 c 0,45,46
 739 -19 739 -19 654 -19 c 3,47,48
 592 -19 592 -19 563 8 c 0,49,50
 526 42 526 42 526 109 c 3,51,52
 526 142 526 142 561 235 c 0,53,54
 600 341 600 341 600 392 c 3,55,56
 600 441 600 441 579 474 c 0,57,58
 553 517 553 517 516 517 c 3,59,60
 471 517 471 517 425 428 c 1,61,62
 426 418 426 418 426 407 c 3,0,1
EndSplineSet
Validated: 1
EndChar

StartChar: Dcaron
Encoding: 270 270 86
Width: 680
VWidth: 0
Flags: W
HStem: -19 69<533 644.488> 517 63<344.561 471.958>
VStem: 436 114<63.0234 205.159> 510 106<289.565 475.5>
DStem2: -20 -14 74 9 0.220767 0.975327<43.1846 299.043 434.525 510.218>
LayerCount: 2
Fore
SplineSet
466 109 m 259,0,1
 466 160 466 160 501 235 c 256,2,3
 540 319 540 319 540 381 c 259,4,5
 540 441 540 441 519 474 c 256,6,7
 493 517 493 517 436 517 c 259,8,9
 314 517 314 517 210 347 c 256,10,11
 160 265 160 265 104 9 c 257,12,-1
 10 -14 l 257,13,14
 44 136 44 136 121 484 c 257,15,-1
 31 479 l 257,16,-1
 238 601 l 257,17,-1
 189 391 l 257,18,19
 320 580 320 580 479 580 c 259,20,21
 555 580 555 580 600 530 c 256,22,23
 646 479 646 479 646 407 c 259,24,25
 646 332 646 332 615 269 c 256,26,27
 580 197 580 197 580 140 c 259,28,29
 580 50 580 50 637 50 c 259,30,31
 667 50 667 50 735 141 c 256,32,33
 794 223 794 223 813 223 c 259,34,35
 837 223 837 223 837 199 c 259,36,37
 837 171 837 171 754 71 c 256,38,39
 679 -19 679 -19 594 -19 c 259,40,41
 532 -19 532 -19 503 8 c 256,42,43
 466 42 466 42 466 109 c 259,0,1
EndSplineSet
Validated: 1
EndChar

StartChar: Edotaccent
Encoding: 278 278 87
Width: 198
VWidth: 0
Flags: W
DStem2: 0 127 32 117 0.61858 0.785722<11.9373 640.176>
LayerCount: 2
Fore
SplineSet
0 127 m 1,0,-1
 396 630 l 1,1,-1
 428 620 l 1,2,-1
 32 117 l 1,3,-1
 0 127 l 1,0,-1
EndSplineSet
Validated: 1
EndChar

StartChar: uni0222
Encoding: 546 546 93
Width: 575
VWidth: 1000
Flags: W
HStem: -10 26<264.364 360.156> 240 26<215.309 311.234>
VStem: 40 146<76.923 186.848> 389 146<69.152 179.077>
LayerCount: 2
Fore
SplineSet
255 240 m 0,0,1
 221 240 221 240 203.5 216 c 128,-1,2
 186 192 186 192 186 152 c 0,3,4
 186 106 186 106 210.5 73.5 c 128,-1,5
 235 41 235 41 264 28.5 c 128,-1,6
 293 16 293 16 320 16 c 0,7,8
 354 16 354 16 371.5 40 c 128,-1,9
 389 64 389 64 389 104 c 0,10,11
 389 150 389 150 364.5 182.5 c 128,-1,12
 340 215 340 215 311 227.5 c 128,-1,13
 282 240 282 240 255 240 c 0,0,1
288 266 m 0,14,15
 393 266 393 266 464 225 c 128,-1,16
 535 184 535 184 535 128 c 0,17,18
 535 69 535 69 461.5 29.5 c 128,-1,19
 388 -10 388 -10 288 -10 c 0,20,21
 184 -10 184 -10 112 31 c 128,-1,22
 40 72 40 72 40 128 c 0,23,24
 40 187 40 187 114 226.5 c 128,-1,25
 188 266 188 266 288 266 c 0,14,15
EndSplineSet
Validated: 1
EndChar

StartChar: uni0223
Encoding: 547 547 94
Width: 467
VWidth: 1000
Flags: W
HStem: -10 31<103.21 178.137> 233 31<289.282 364.184>
VStem: 60 32<31.938 94.9934> 375 32<158.817 222.171 254 958.965>
LayerCount: 2
Fore
SplineSet
375 196 m 1,0,1
 374 212 374 212 362 222.5 c 128,-1,2
 350 233 350 233 333 233 c 0,3,4
 305 233 305 233 215 174.5 c 128,-1,5
 125 116 125 116 103 90 c 0,6,7
 92 77 92 77 92 62 c 0,8,9
 92 45 92 45 104.5 33 c 128,-1,10
 117 21 117 21 134 21 c 0,11,12
 162 21 162 21 252.5 79.5 c 128,-1,13
 343 138 343 138 365 164 c 0,14,15
 375 175 375 175 375 192 c 2,16,-1
 375 196 l 1,0,1
144 -10 m 0,17,18
 60 -10 60 -10 60 62 c 0,19,20
 60 97 60 97 80 143.5 c 128,-1,21
 100 190 100 190 135 214 c 0,22,23
 209 264 209 264 324 264 c 0,24,25
 356 264 356 264 375 254 c 1,26,-1
 375 942 l 1,27,28
 377 958 377 958 391 959 c 1,29,30
 405 958 405 958 407 942 c 1,31,-1
 407 193 l 2,32,33
 407 158 407 158 387 111 c 128,-1,34
 367 64 367 64 332 40 c 0,35,36
 258 -10 258 -10 144 -10 c 0,17,18
EndSplineSet
Validated: 1
EndChar

StartChar: uni0224
Encoding: 548 548 95
Width: 449
VWidth: 1000
Flags: W
HStem: -10 276<186.213 262.787>
VStem: 357 32<243 940.965>
LayerCount: 2
Fore
SplineSet
373 941 m 1,0,1
 388 940 388 940 389 925 c 1,2,-1
 389 175 l 2,3,4
 389 108 389 108 319 49 c 128,-1,5
 249 -10 249 -10 169 -10 c 0,6,7
 120 -10 120 -10 90 15 c 128,-1,8
 60 40 60 40 60 81 c 0,9,10
 60 148 60 148 130 207 c 128,-1,11
 200 266 200 266 280 266 c 0,12,13
 326 266 326 266 357 243 c 1,14,-1
 357 925 l 1,15,16
 358 940 358 940 373 941 c 1,0,1
EndSplineSet
Validated: 1
EndChar

StartChar: uni0225
Encoding: 549 549 96
Width: 612
VWidth: 1000
Flags: W
HStem: -10 276<186.213 262.787>
VStem: 357 32<243 657 787.516 940.965> 540 42<248.738 476.855>
LayerCount: 2
Fore
SplineSet
373 941 m 1,0,1
 388 940 388 940 389 925 c 1,2,-1
 389 827 l 1,3,4
 405 779 405 779 439.5 718 c 128,-1,5
 474 657 474 657 504.5 611 c 128,-1,6
 535 565 535 565 558.5 503.5 c 128,-1,7
 582 442 582 442 582 385 c 0,8,9
 582 283 582 283 540 175 c 1,10,11
 532 163 532 163 521 163 c 0,12,13
 511 163 511 163 503.5 171 c 128,-1,14
 496 179 496 179 498 190 c 1,15,16
 540 290 540 290 540 385 c 0,17,18
 540 450 540 450 498.5 516 c 128,-1,19
 457 582 457 582 389 657 c 1,20,-1
 389 175 l 2,21,22
 389 108 389 108 319 49 c 128,-1,23
 249 -10 249 -10 169 -10 c 0,24,25
 120 -10 120 -10 90 15 c 128,-1,26
 60 40 60 40 60 81 c 0,27,28
 60 148 60 148 130 207 c 128,-1,29
 200 266 200 266 280 266 c 0,30,31
 326 266 326 266 357 243 c 1,32,-1
 357 925 l 1,33,34
 358 940 358 940 373 941 c 1,0,1
EndSplineSet
Validated: 1
EndChar

StartChar: uni0226
Encoding: 550 550 97
Width: 622
VWidth: 1000
Flags: W
HStem: -10 276<186.213 262.787>
VStem: 357 32<243 485 589.64 697 801.142 940.965> 540 42<125.896 321.116 409 524.723>
LayerCount: 2
Fore
SplineSet
525 408 m 1,0,1
 533 432 533 432 533 455 c 0,2,3
 533 515 533 515 493 574 c 128,-1,4
 453 633 453 633 389 697 c 1,5,-1
 389 626 l 1,6,7
 402 591 402 591 424.5 555 c 128,-1,8
 447 519 447 519 478.5 475.5 c 128,-1,9
 510 432 510 432 525 408 c 1,0,1
373 941 m 1,10,11
 388 940 388 940 389 925 c 1,12,-1
 389 837 l 1,13,14
 404 795 404 795 438 742.5 c 128,-1,15
 472 690 472 690 501 651 c 128,-1,16
 530 612 530 612 553 558.5 c 128,-1,17
 576 505 576 505 576 455 c 0,18,19
 576 411 576 411 552 360 c 1,20,21
 582 298 582 298 582 243 c 0,22,23
 582 154 582 154 540 60 c 1,24,25
 532 48 532 48 521 48 c 0,26,27
 511 48 511 48 503.5 56 c 128,-1,28
 496 64 496 64 498 75 c 1,29,30
 540 159 540 159 540 243 c 0,31,32
 540 343 540 343 389 485 c 1,33,-1
 389 175 l 2,34,35
 389 108 389 108 319 49 c 128,-1,36
 249 -10 249 -10 169 -10 c 0,37,38
 120 -10 120 -10 90 15 c 128,-1,39
 60 40 60 40 60 81 c 0,40,41
 60 148 60 148 130 207 c 128,-1,42
 200 266 200 266 280 266 c 0,43,44
 326 266 326 266 357 243 c 1,45,-1
 357 925 l 1,46,47
 358 940 358 940 373 941 c 1,10,11
EndSplineSet
Validated: 1
EndChar

StartChar: uni0227
Encoding: 551 551 98
Width: 622
VWidth: 1000
Flags: W
HStem: -10 276<176.213 252.787>
VStem: 347 32<243 403 510.703 619 725.757 834 937.262 1013.97> 513 42<557.243 673.921> 530 42<64.814 252.002 338.733 461.018>
LayerCount: 2
Fore
SplineSet
509 557 m 1,0,1
 513 572 513 572 513 590 c 0,2,3
 513 687 513 687 379 834 c 1,4,-1
 379 762 l 1,5,6
 391 729 391 729 412.5 695.5 c 128,-1,7
 434 662 434 662 464.5 620 c 128,-1,8
 495 578 495 578 509 557 c 1,0,1
363 1014 m 1,9,10
 378 1013 378 1013 379 998 c 1,11,-1
 379 974 l 1,12,13
 396 924 396 924 442.5 854 c 128,-1,14
 489 784 489 784 522 719 c 128,-1,15
 555 654 555 654 555 590 c 0,16,17
 555 547 555 547 537 508 c 1,18,19
 566 448 566 448 566 395 c 0,20,21
 566 344 566 344 542 291 c 1,22,23
 572 233 572 233 572 177 c 0,24,25
 572 90 572 90 530 1 c 1,26,27
 523 -10 523 -10 511 -10 c 0,28,29
 501 -10 501 -10 493.5 -2 c 128,-1,30
 486 6 486 6 488 17 c 1,31,32
 530 98 530 98 530 177 c 0,33,34
 530 274 530 274 379 403 c 1,35,-1
 379 175 l 2,36,37
 379 108 379 108 309 49 c 128,-1,38
 239 -10 239 -10 159 -10 c 0,39,40
 110 -10 110 -10 80 15 c 128,-1,41
 50 40 50 40 50 81 c 0,42,43
 50 148 50 148 120 207 c 128,-1,44
 190 266 190 266 270 266 c 0,45,46
 316 266 316 266 347 243 c 1,47,-1
 347 998 l 1,48,49
 348 1013 348 1013 363 1014 c 1,9,10
514 338 m 1,50,51
 523 365 523 365 523 395 c 0,52,53
 523 452 523 452 483.5 506 c 128,-1,54
 444 560 444 560 379 619 c 1,55,-1
 379 545 l 1,56,57
 392 512 392 512 414 478 c 128,-1,58
 436 444 436 444 468 402 c 128,-1,59
 500 360 500 360 514 338 c 1,50,51
EndSplineSet
Validated: 1
EndChar

StartChar: uni0228
Encoding: 552 552 99
Width: 634
VWidth: 1000
Flags: W
HStem: -10 276<176.213 252.787>
VStem: 347 32<343.712 441 558.75 656 768.227 858 971.993 1014> 513 42<470.361 574.882 659.558 775.983> 523 43<256.373 384.842> 524 50<43.611 177.648>
LayerCount: 2
Fore
SplineSet
514 255 m 1,0,1
 523 288 523 288 523 318 c 0,2,3
 523 375 523 375 483.5 401.5 c 128,-1,4
 444 428 444 428 379 441 c 1,5,-1
 379 367 l 1,6,7
 392 343 392 343 414 324.5 c 128,-1,8
 436 306 436 306 468 286.5 c 128,-1,9
 500 267 500 267 514 255 c 1,0,1
509 470 m 1,10,11
 513 488 513 488 513 506 c 0,12,13
 513 603 513 603 379 656 c 1,14,-1
 379 584 l 1,15,16
 391 559 391 559 412.5 541 c 128,-1,17
 434 523 434 523 464.5 502 c 128,-1,18
 495 481 495 481 509 470 c 1,10,11
379 175 m 2,19,20
 379 108 379 108 309 49 c 128,-1,21
 239 -10 239 -10 159 -10 c 0,22,23
 110 -10 110 -10 80 15 c 128,-1,24
 50 40 50 40 50 81 c 0,25,26
 50 148 50 148 120 207 c 128,-1,27
 190 266 190 266 270 266 c 0,28,29
 316 266 316 266 347 243 c 1,30,-1
 347 998 l 1,31,32
 347 1014 347 1014 363 1014 c 129,-1,33
 379 1014 379 1014 379 998 c 1,34,35
 396 960 396 960 442.5 923 c 128,-1,36
 489 886 489 886 522 844 c 128,-1,37
 555 802 555 802 555 738 c 0,38,39
 555 680 555 680 535 621 c 1,40,41
 555 585 555 585 555 535 c 0,42,43
 555 491 555 491 537 441 c 1,44,45
 566 401 566 401 566 348 c 0,46,47
 566 297 566 297 542 227 c 1,48,49
 574 194 574 194 574 144 c 0,50,51
 574 89 574 89 542 20 c 0,52,53
 528 -10 528 -10 510 -10 c 0,54,55
 502 -10 502 -10 493 -2 c 1,56,57
 483 6 483 6 489 17 c 0,58,59
 524 86 524 86 524 128 c 0,60,61
 524 201 524 201 379 225 c 1,62,-1
 379 175 l 2,19,20
507 659 m 1,63,64
 513 675 513 675 513 708 c 0,65,66
 513 803 513 803 379 858 c 1,67,-1
 379 796 l 1,68,69
 396 757 396 757 442 720 c 0,70,71
 478 691 478 691 507 659 c 1,63,64
EndSplineSet
Validated: 1
EndChar

StartChar: uni022C
Encoding: 556 556 100
Width: 192
VWidth: 1000
Flags: W
HStem: 72 112<57.0172 134.983>
VStem: 40 112<89.017 166.983>
LayerCount: 2
Fore
SplineSet
40 128 m 128,-1,1
 40 151 40 151 56.5 167.5 c 128,-1,2
 73 184 73 184 96 184 c 128,-1,3
 119 184 119 184 135.5 167.5 c 128,-1,4
 152 151 152 151 152 128 c 128,-1,5
 152 105 152 105 135.5 88.5 c 128,-1,6
 119 72 119 72 96 72 c 128,-1,7
 73 72 73 72 56.5 88.5 c 128,-1,0
 40 105 40 105 40 128 c 128,-1,1
EndSplineSet
Validated: 1
EndChar

StartChar: P
Encoding: 80 80 102
Width: 680
VWidth: 0
Flags: W
HStem: -1 142<295.809 381.951> 329 142<298.08 383.943>
VStem: 113 124<-36 12 207.266 317.531> 443 126<175 321>
LayerCount: 2
Back
SplineSet
175 -87 m 1,0,-1
 175 325 l 2,1,2
 175 395 175 395 113 417 c 9,3,-1
175 235 m 0,4,5
 176 303 176 303 224 351 c 0,6,7
 273 400 273 400 340 400 c 0,8,9
 408 399 408 399 456 351 c 0,10,11
 506 303 506 303 506 235 c 128,-1,12
 506 167 506 167 456 119 c 0,13,14
 407 70 407 70 340 70 c 0,15,16
 272 71 272 71 224 119 c 0,17,18
 174 169 174 169 175 235 c 0,4,5
EndSplineSet
Fore
SplineSet
238 287 m 3,0,1
 238 221 238 221 287 171 c 0,2,3
 316 142 316 142 380 141 c 0,4,5
 412 141 412 141 440 152 c 1,6,7
 443 167 443 167 443 183 c 3,8,9
 443 251 443 251 393 299 c 0,10,11
 364 328 364 328 300 329 c 0,12,13
 269 329 269 329 241 318 c 1,14,15
 238 303 238 303 238 287 c 3,0,1
237 -36 m 1,16,-1
 113 -138 l 1,17,-1
 113 274 l 2,18,19
 113 341 113 341 53 363 c 1,20,-1
 173 471 l 1,21,22
 231 451 231 451 237 390 c 1,23,-1
 253 410 l 2,24,25
 258 416 258 416 264 422 c 0,26,27
 313 471 313 471 380 471 c 3,28,29
 440 471 440 471 484 433 c 2,30,-1
 507 414 l 1,31,-1
 507 413 l 1,32,33
 513 408 513 408 519 403 c 0,34,35
 569 355 569 355 569 287 c 3,36,37
 569 229 569 229 532 185 c 2,38,-1
 430 63 l 1,39,-1
 429 62 l 2,40,41
 423 55 423 55 416 48 c 0,42,43
 367 -1 367 -1 300 -1 c 3,44,45
 266 -1 266 -1 237 12 c 1,46,-1
 237 -36 l 1,16,-1
EndSplineSet
Validated: 1
EndChar

StartChar: Q
Encoding: 81 81 103
Width: 680
VWidth: 0
Flags: W
HStem: 0 140<269 397> 330 140<283.5 411>
VStem: 113 124<149 296> 448 120<-24.2031 87 145.932 255.699>
LayerCount: 2
Back
SplineSet
508 416 m 1,0,-1
 508 -12 l 2,1,2
 508 -82 508 -82 570 -104 c 9,3,-1
175 235 m 0,4,5
 176 303 176 303 224 351 c 0,6,7
 273 400 273 400 340 400 c 0,8,9
 408 399 408 399 456 351 c 0,10,11
 506 303 506 303 506 235 c 128,-1,12
 506 167 506 167 456 119 c 0,13,14
 407 70 407 70 340 70 c 0,15,16
 272 71 272 71 224 119 c 0,17,18
 174 169 174 169 175 235 c 0,4,5
EndSplineSet
Fore
SplineSet
113 182 m 0,0,1
 113 242 113 242 151 286 c 2,2,-1
 254 409 l 2,3,4
 259 415 259 415 265 421 c 0,5,6
 314 470 314 470 381 470 c 1,7,8
 441 469 441 469 485 432 c 2,9,-1
 506 414 l 1,10,-1
 568 470 l 1,11,-1
 568 288 l 1,12,-1
 568 42 l 2,13,14
 568 -28 568 -28 630 -50 c 1,15,-1
 510 -158 l 1,16,17
 448 -136 448 -136 448 -66 c 2,18,-1
 448 87 l 1,19,-1
 428 63 l 2,20,21
 422 56 422 56 415 49 c 0,22,23
 366 0 366 0 299 0 c 1,24,25
 239 1 239 1 195 38 c 1,26,-1
 174 55 l 1,27,-1
 174 56 l 1,28,29
 162 66 162 66 162 66 c 0,30,31
 113 116 113 116 113 182 c 0,0,1
237 288 m 4,32,33
 237 222 237 222 286 172 c 0,34,35
 286 172 286 172 288 170 c 0,36,37
 329 141 329 141 381 140 c 0,38,39
 413 140 413 140 441 151 c 1,40,41
 444 166 444 166 444 182 c 0,42,43
 444 250 444 250 394 298 c 0,44,45
 393 299 393 299 392 300 c 0,46,47
 351 329 351 329 299 330 c 0,48,49
 268 330 268 330 240 319 c 1,50,51
 237 304 237 304 237 288 c 4,32,33
EndSplineSet
Validated: 1
EndChar

StartChar: R
Encoding: 82 82 104
Width: 680
VWidth: 0
Flags: MW
HStem: 235 140<479.626 507.651>
VStem: 198 124<132.816 332>
LayerCount: 2
Back
SplineSet
260 279 m 25,0,-1
 377 416 l 25,1,2
 408 305 408 305 483 305 c 0,3,4
 538 305 538 305 588 364 c 8,5,-1
198 416 m 17,6,7
 260 394 260 394 260 336 c 10,8,-1
 260 136 l 22,9,10
 260 78 260 78 322 56 c 13,11,-1
EndSplineSet
Fore
SplineSet
384 109 m 1,0,-1
 281 -14 l 1,1,2
 260 -7 260 -7 246 5 c 2,3,-1
 225 23 l 2,4,5
 198 46 198 46 198 83 c 2,6,-1
 198 283 l 1,7,8
 198 341 198 341 136 363 c 1,9,-1
 239 486 l 1,10,11
 260 479 260 479 274 467 c 2,12,-1
 295 449 l 2,13,14
 322 426 322 426 322 389 c 2,15,-1
 322 374 l 1,16,-1
 418 486 l 1,17,-1
 439 469 l 2,18,19
 439 468 439 468 440 464 c 0,20,21
 453 416 453 416 479 387 c 1,22,23
 499 375 499 375 524 375 c 0,24,25
 579 375 579 375 629 434 c 1,26,-1
 650 417 l 1,27,-1
 547 294 l 2,28,29
 498 235 498 235 442 235 c 0,30,31
 409 235 409 235 386 255 c 2,32,-1
 365 273 l 2,33,34
 341 293 341 293 325 333 c 1,35,36
 324 331 324 331 322 329 c 1,37,-1
 322 189 l 2,38,39
 322 131 322 131 384 109 c 1,0,-1
EndSplineSet
Validated: 1
EndChar

StartChar: V
Encoding: 86 86 106
Width: 193
VWidth: 0
Flags: MW
VStem: 0 59<103 126> 289 84<623.51 678.016>
LayerCount: 2
Back
SplineSet
0 0 m 1,0,1
 0 -20 0 -20 -32.5 -20 c 128,-1,2
 -65 -20 -65 -20 -65 0 c 1,3,4
 -32 400 -32 400 -95 625 c 1,5,6
 -95 645 -95 645 -47.5 645 c 128,-1,7
 0 645 0 645 0 625 c 1,8,9
 42 400 42 400 0 0 c 1,0,1
EndSplineSet
Fore
SplineSet
59 103 m 1,0,1
 54 94 54 94 44 94 c 0,2,3
 35 94 35 94 21 102 c 0,4,5
 0 114 0 114 0 126 c 0,6,7
 0 130 0 130 3 136 c 1,8,9
 232 466 232 466 289 692 c 1,10,11
 293 699 293 699 303 699 c 0,12,13
 316 699 316 699 340 685 c 0,14,15
 373 666 373 666 373 651 c 0,16,17
 373 647 373 647 371 644 c 1,18,19
 295 428 295 428 59 103 c 1,0,1
EndSplineSet
Validated: 1
EndChar

StartChar: colon
Encoding: 58 58 110
Width: 550
VWidth: 0
Flags: W
HStem: 0 60<-19.031 30 150 189.031 360.969 400 520 569.031> 490 60<-9.03101 40 160 191.053 350.969 390 510 559.031>
DStem2: 30 60 150 60 0.607981 0.793952<72.9577 278.369> 160 490 40 490 0.609711 -0.792624<0 189.01> 275 340 350 282 0.609711 0.792624<0 189.01> 350 282 275 223 0.607981 -0.793952<1.24457 206.656>
LayerCount: 2
Fore
SplineSet
170 550 m 2,0,1
 182 550 182 550 191 541 c 128,-1,2
 200 532 200 532 200 520 c 128,-1,3
 200 508 200 508 191 499 c 0,4,5
 183 490 183 490 170 490 c 2,6,-1
 160 490 l 1,7,-1
 275 340 l 1,8,-1
 390 490 l 1,9,-1
 380 490 l 2,10,11
 368 490 368 490 359 499 c 128,-1,12
 350 508 350 508 350 520 c 128,-1,13
 350 532 350 532 359 541 c 128,-1,14
 368 550 368 550 380 550 c 2,15,-1
 530 550 l 2,16,17
 542 550 542 550 551 541 c 128,-1,18
 560 532 560 532 560 520 c 128,-1,19
 560 508 560 508 551 499 c 128,-1,20
 542 490 542 490 530 490 c 2,21,-1
 510 490 l 1,22,-1
 350 282 l 1,23,-1
 520 60 l 1,24,-1
 540 60 l 2,25,26
 552 60 552 60 561 51 c 128,-1,27
 570 42 570 42 570 30 c 128,-1,28
 570 18 570 18 561 9 c 128,-1,29
 552 0 552 0 540 0 c 2,30,-1
 390 0 l 2,31,32
 378 0 378 0 369 9 c 128,-1,33
 360 18 360 18 360 30 c 128,-1,34
 360 42 360 42 369 51 c 128,-1,35
 378 60 378 60 390 60 c 2,36,-1
 400 60 l 1,37,-1
 275 223 l 1,38,-1
 150 60 l 1,39,-1
 160 60 l 2,40,41
 172 60 172 60 181 51 c 128,-1,42
 190 42 190 42 190 30 c 128,-1,43
 190 18 190 18 181 9 c 128,-1,44
 172 0 172 0 160 0 c 2,45,-1
 10 0 l 2,46,47
 -2 0 -2 0 -11 9 c 128,-1,48
 -20 18 -20 18 -20 30 c 128,-1,49
 -20 42 -20 42 -11 51 c 128,-1,50
 -2 60 -2 60 10 60 c 2,51,-1
 30 60 l 1,52,-1
 200 282 l 1,53,-1
 40 490 l 1,54,-1
 20 490 l 2,55,56
 8 490 8 490 -1 499 c 128,-1,57
 -10 508 -10 508 -10 520 c 128,-1,58
 -10 532 -10 532 -1 541 c 128,-1,59
 8 550 8 550 20 550 c 2,60,-1
 170 550 l 2,0,1
EndSplineSet
Validated: 1
EndChar

StartChar: at
Encoding: 64 64 111
Width: 584
VWidth: 1000
Flags: W
LayerCount: 2
Fore
SplineSet
478 510 m 1,0,-1
 543 445 l 1,1,-1
 356 258 l 1,2,-1
 543 71 l 1,3,-1
 478 6 l 1,4,-1
 291 193 l 1,5,-1
 105 7 l 1,6,-1
 40 72 l 1,7,-1
 226 258 l 1,8,-1
 40 444 l 1,9,-1
 105 509 l 1,10,-1
 291 323 l 1,11,-1
 478 510 l 1,0,-1
EndSplineSet
Validated: 1
EndChar

StartChar: uni0236
Encoding: 566 566 113
Width: 490
VWidth: 0
Flags: W
HStem: 299 36<427.001 479.67> 698 48<406.542 575.463>
VStem: 120 35<-10 79.596> 410 34<313.5 367.339> 601 82<535.075 672.839> 616 66<144.226 285.302>
LayerCount: 2
Fore
SplineSet
155 -10 m 265,0,-1
 120 -10 l 257,1,2
 190 506 190 506 295 632 c 256,3,4
 390 746 390 746 501 746 c 267,5,6
 595 746 595 746 635 708 c 256,7,8
 683 662 683 662 683 600 c 267,9,10
 683 547 683 547 648 504 c 280,11,12
 629 480 629 480 537 422 c 280,13,14
 444 364 444 364 444 344 c 259,15,16
 444 335 444 335 455 335 c 275,17,18
 460 335 460 335 496 367 c 256,19,20
 519 387 519 387 553 387 c 259,21,22
 603 387 603 387 646 336 c 256,23,24
 682 293 682 293 682 243 c 283,25,26
 682 180 682 180 646 116 c 280,27,28
 575 -10 575 -10 539 -10 c 259,29,30
 524 -10 524 -10 524 2 c 275,31,32
 524 9 524 9 578 83 c 280,33,34
 616 135 616 135 616 225 c 267,35,36
 616 263 616 263 584 297 c 280,37,38
 562 320 562 320 527 320 c 267,39,40
 504 320 504 320 487 312 c 280,41,42
 459 299 459 299 445 299 c 259,43,44
 410 299 410 299 410 328 c 259,45,46
 410 367 410 367 478 424 c 280,47,48
 601 527 601 527 601 607 c 259,49,50
 601 650 601 650 580 672 c 256,51,52
 555 698 555 698 486 698 c 259,53,54
 398 698 398 698 333 614 c 256,55,56
 234 485 234 485 155 -10 c 265,0,-1
EndSplineSet
Validated: 1
EndChar

StartChar: uni0232
Encoding: 562 562 118
Width: 390
VWidth: 0
Flags: W
HStem: -10 37<86.4663 186.323> 388 35<195.598 291.366>
VStem: 0 56<53.221 198.549> 321 62<209.514 359.628>
LayerCount: 2
Fore
SplineSet
251 388 m 3,0,1
 204 388 204 388 163 343 c 0,2,3
 56 222 56 222 56 108 c 3,4,5
 56 76 56 76 73 59 c 256,6,7
 100 27 100 27 120 27 c 3,8,9
 170 27 170 27 212 59 c 24,10,11
 321 143 321 143 321 279 c 3,12,13
 321 328 321 328 302 358 c 280,14,15
 283 388 283 388 251 388 c 3,0,1
262 423 m 3,16,17
 329 423 329 423 353 405 c 24,18,19
 383 383 383 383 383 337 c 3,20,21
 383 154 383 154 227 34 c 0,22,23
 170 -10 170 -10 115 -10 c 259,24,25
 46 -10 46 -10 20 16 c 24,26,27
 0 42 0 42 0 93 c 259,28,29
 0 222 0 222 135 358 c 0,30,31
 192 423 192 423 262 423 c 3,16,17
EndSplineSet
Validated: 1
EndChar

StartChar: uni0233
Encoding: 563 563 119
Width: 390
VWidth: 0
Flags: W
HStem: -10 47<107.843 211.267> 301 28<204.423 285.316>
VStem: 40 56<48.712 185.883> 282 50<405.916 748> 286 35<137.633 300.257 316 579.084>
LayerCount: 2
Back
SplineSet
282 554 m 281,0,-1
 332 584 l 257,1,-1
 321 13 l 258,2,3
 319 -74 319 -74 247 -153 c 256,4,5
 200 -204 200 -204 122 -204 c 259,6,7
 86 -204 86 -204 68 -181 c 280,8,9
 40 -145 40 -145 40 -95 c 259,10,11
 40 -28 40 -28 71 19 c 280,12,13
 147 135 147 135 252 135 c 259,14,15
 270 135 270 135 302 112 c 257,16,17
 302 104 l 257,18,19
 260 107 260 107 258 107 c 259,20,21
 203 107 203 107 160 55 c 280,22,23
 96 -23 96 -23 96 -90 c 283,24,25
 96 -157 96 -157 161 -157 c 259,26,27
 208 -157 208 -157 252 -89 c 280,28,29
 287 -35 287 -35 287 34 c 265,30,-1
 282 554 l 281,0,-1
EndSplineSet
Fore
SplineSet
282 748 m 257,0,-1
 332 778 l 257,1,-1
 321 207 l 258,2,3
 319 120 319 120 247 41 c 256,4,5
 200 -10 200 -10 122 -10 c 259,6,7
 86 -10 86 -10 68 13 c 256,8,9
 40 49 40 49 40 99 c 259,10,11
 40 166 40 166 71 213 c 256,12,13
 147 329 147 329 252 329 c 259,14,15
 269 329 269 329 286 316 c 257,16,-1
 282 748 l 257,0,-1
286 299 m 257,17,18
 259 301 259 301 258 301 c 259,19,20
 203 301 203 301 160 249 c 256,21,22
 96 171 96 171 96 104 c 259,23,24
 96 37 96 37 161 37 c 259,25,26
 208 37 208 37 252 105 c 256,27,28
 287 159 287 159 287 228 c 258,29,-1
 286 299 l 257,17,18
EndSplineSet
Validated: 1
EndChar

StartChar: uni0234
Encoding: 564 564 120
Width: 340
VWidth: 0
Flags: W
HStem: 713 20G<256.483 281.395>
VStem: 208 74<496.13 675> 228 32<-9.984 242.87>
LayerCount: 2
Fore
SplineSet
245 -10 m 27,0,1
 228 -10 228 -10 228 6 c 26,2,-1
 208 675 l 25,3,-1
 282 733 l 25,4,-1
 260 6 l 26,5,6
 260 -10 260 -10 245 -10 c 27,0,1
EndSplineSet
Validated: 1
EndChar

StartChar: uni0235
Encoding: 565 565 121
Width: 490
VWidth: 0
Flags: W
HStem: 692 54<392.205 581.521>
VStem: 120 33<-9 70.59> 672 67<455.332 609.06>
LayerCount: 2
Fore
SplineSet
153 -10 m 1,0,-1
 120 -9 l 1,1,2
 205 534 205 534 297 648 c 256,3,4
 377 746 377 746 493 746 c 3,5,6
 619 746 619 746 685 685 c 0,7,8
 739 634 739 634 739 539 c 3,9,10
 739 474 739 474 691 418 c 256,11,12
 651 372 651 372 582 339 c 0,13,14
 563 330 563 330 548 330 c 3,15,16
 539 330 539 330 539 337 c 3,17,18
 539 352 539 352 562 365 c 0,19,20
 613 394 613 394 651 448 c 0,21,22
 672 478 672 478 672 540 c 3,23,24
 672 596 672 596 622 642 c 0,25,26
 567 692 567 692 483 692 c 3,27,28
 383 692 383 692 320 615 c 256,29,30
 245 523 245 523 153 -10 c 1,0,-1
EndSplineSet
Validated: 1
EndChar

StartChar: uni0237
Encoding: 567 567 122
Width: 490
VWidth: 0
Flags: W
HStem: 68 46<429.282 528.339> 102 39<527.757 640.484> 410 4<459 528> 698 48<405.902 575.392>
VStem: 120 36<-10 84.002> 394 35<114.403 168.049> 410 34<414.089 450.498> 600 70<280.5 388.598> 601 82<548.676 673.437>
LayerCount: 2
Fore
SplineSet
120 -10 m 257,0,1
 194 510 194 510 295 632 c 256,2,3
 389 746 389 746 499 746 c 259,4,5
 600 746 600 746 646 697 c 256,6,7
 683 657 683 657 683 600 c 259,8,9
 683 528 683 528 575 496 c 256,10,11
 444 456 444 456 444 430 c 259,12,13
 444 414 444 414 459 414 c 259,14,15
 476 414 476 414 510 436 c 256,16,17
 539 454 539 454 577 454 c 259,18,19
 621 454 621 454 648 421 c 256,20,21
 670 393 670 393 670 343 c 259,22,23
 670 260 670 260 548 220 c 256,24,25
 429 181 429 181 429 137 c 259,26,27
 429 114 429 114 446 114 c 259,28,29
 467 114 467 114 499 127 c 256,30,31
 534 141 534 141 566 141 c 259,32,33
 626 141 626 141 654 110 c 256,34,35
 700 59 700 59 700 26 c 259,36,37
 700 17 700 17 690 17 c 259,38,39
 678 17 678 17 658 59 c 256,40,41
 638 102 638 102 602 102 c 259,42,43
 572 102 572 102 531 84 c 256,44,45
 494 68 494 68 450 68 c 259,46,47
 394 68 394 68 394 127 c 259,48,49
 394 177 394 177 492 221 c 256,50,51
 600 269 600 269 600 340 c 259,52,53
 600 365 600 365 580 388 c 256,54,55
 561 410 561 410 528 410 c 259,56,57
 500 410 500 410 472 395 c 256,58,59
 451 384 451 384 441 384 c 259,60,61
 410 384 410 384 410 428 c 259,62,63
 410 468 410 468 515 508 c 256,64,65
 601 541 601 541 601 607 c 259,66,67
 601 660 601 660 572 679 c 256,68,69
 542 698 542 698 472 698 c 259,70,71
 397 698 397 698 320 597 c 256,72,73
 235 486 235 486 156 -10 c 257,74,-1
 120 -10 l 257,0,1
EndSplineSet
Validated: 1
EndChar

StartChar: uni023C
Encoding: 572 572 126
Width: 146
VWidth: 0
Flags: W
HStem: 103 114<57.4419 128.959>
VStem: 40 106<119.657 201.322>
LayerCount: 2
Fore
SplineSet
128 124 m 24,0,1
 109 103 109 103 90 103 c 259,2,3
 65 103 65 103 50 113 c 0,4,5
 40 119 40 119 40 149 c 3,6,7
 40 170 40 170 58 196 c 280,8,9
 73 217 73 217 96 217 c 259,10,11
 121 217 121 217 136 207 c 0,12,13
 146 201 146 201 146 171 c 3,14,15
 146 144 146 144 128 124 c 24,0,1
EndSplineSet
Validated: 1
EndChar

StartChar: gdotaccent
Encoding: 289 289 128
Width: 680
VWidth: 0
Flags: MW
HStem: -10 131<147.5 303.5>
VStem: 98 118<135.323 267.948>
LayerCount: 2
Back
SplineSet
472 438 m 1,0,1
 358 432 358 432 285 360 c 256,2,3
 216 292 216 292 216 202 c 3,4,5
 216 121 216 121 275 121 c 3,6,7
 332 121 332 121 405 231 c 256,8,9
 467 325 467 325 472 438 c 1,0,1
197 -10 m 3,10,11
 98 -10 98 -10 98 142 c 3,12,13
 98 304 98 304 219 400 c 0,14,15
 327 486 327 486 481 493 c 1,16,-1
 509 537 l 1,17,-1
 614 478 l 17,18,19
 542 353 542 353 542 204 c 3,20,21
 542 128 542 128 620 87 c 1,22,-1
 453 -7 l 1,23,24
 401 34 401 34 401 150 c 1,25,26
 277 -10 277 -10 197 -10 c 3,10,11
EndSplineSet
Fore
SplineSet
472 438 m 1,0,1
 358 432 358 432 285 360 c 256,2,3
 216 292 216 292 216 202 c 3,4,5
 216 121 216 121 275 121 c 3,6,7
 332 121 332 121 405 231 c 256,8,9
 467 325 467 325 472 438 c 1,0,1
197 -10 m 3,10,11
 98 -10 98 -10 98 142 c 3,12,13
 98 304 98 304 219 400 c 0,14,15
 327 486 327 486 481 493 c 1,16,-1
 489 506 l 1,17,-1
 594 447 l 17,18,19
 542 362 542 362 542 204 c 3,20,21
 542 114 542 114 595 73 c 1,22,-1
 453 -7 l 1,23,24
 401 34 401 34 401 150 c 1,25,26
 277 -10 277 -10 197 -10 c 3,10,11
EndSplineSet
Validated: 1
EndChar

StartChar: Gcommaaccent
Encoding: 290 290 129
Width: 680
VWidth: 0
Flags: W
HStem: -10 115<152 312.37> 362 104<372.209 520>
VStem: 99 104<50 241.084> 225 158<584.475 747.245> 435 132<243.185 352.267>
LayerCount: 2
Fore
SplineSet
262 296 m 0,0,1
 203 225 203 225 203 168 c 3,2,3
 203 105 203 105 265 105 c 3,4,5
 338 105 338 105 388 167 c 0,6,7
 435 224 435 224 435 304 c 3,8,9
 435 362 435 362 379 362 c 3,10,11
 317 362 317 362 262 296 c 0,0,1
329 790 m 1,12,13
 383 766 383 766 383 698 c 3,14,15
 383 597 383 597 278 389 c 1,16,17
 383 466 383 466 473 466 c 3,18,19
 567 466 567 466 567 347 c 259,20,21
 567 224 567 224 444 103 c 0,22,23
 330 -10 330 -10 205 -10 c 3,24,25
 99 -10 99 -10 99 110 c 3,26,27
 99 226 99 226 170 396 c 0,28,29
 225 528 225 528 225 616 c 3,30,31
 225 678 225 678 203 740 c 1,32,-1
 329 790 l 1,12,13
EndSplineSet
Validated: 1
EndChar

StartChar: gcommaaccent
Encoding: 291 291 130
Width: 680
VWidth: 0
Flags: W
HStem: 372 130<302.005 436.136>
VStem: 119 91<42.2458 337.956>
LayerCount: 2
Back
SplineSet
210 312 m 257,0,1
 278 372 278 372 381 372 c 259,2,3
 464 372 464 372 508 310 c 257,4,-1
 590 425 l 257,5,6
 534 502 534 502 424 502 c 259,7,8
 320 502 320 502 202 382 c 257,9,-1
 210 312 l 257,0,1
240 239 m 259,11,12
 240 363 240 363 206 440 c 257,13,-1
 126 361 l 257,14,15
 149 283 149 283 149 188 c 259,16,17
 149 66 149 66 130 -15 c 257,18,-1
 210 16 l 257,19,20
 240 105 240 105 240 239 c 259,11,12
EndSplineSet
Fore
SplineSet
220 400 m 1,0,1
 328 502 328 502 424 502 c 3,2,3
 534 502 534 502 590 425 c 1,4,-1
 508 310 l 1,5,6
 464 372 464 372 381 372 c 3,7,8
 296 372 296 372 235 331 c 1,9,10
 240 289 240 289 240 239 c 3,11,12
 240 105 240 105 210 16 c 1,13,-1
 130 -15 l 1,14,15
 149 66 149 66 149 188 c 3,16,17
 149 283 149 283 126 361 c 1,18,-1
 206 440 l 1,19,20
 214 421 214 421 220 400 c 1,0,1
EndSplineSet
Validated: 1
EndChar

StartChar: Hcircumflex
Encoding: 292 292 131
Width: 680
VWidth: 0
Flags: W
HStem: -10 122<252.223 368.182> 582 75<200 255.833>
VStem: 130 110<122.836 247.518> 444 102<203.095 388.339>
LayerCount: 2
Back
SplineSet
191 582 m 1,0,-1
 200 657 l 1,1,-1
 318 659 l 1,2,3
 332 623 l 1,4,5
 408 591 408 591 479 511 c 256,6,7
 545 435 545 435 546 295 c 0,8,9
 546 158 546 158 456 73 c 0,10,11
 369 -10 369 -10 281 -10 c 3,12,13
 209 -10 209 -10 171 28 c 0,14,15
 130 71 130 71 130 137 c 3,16,17
 130 245 130 245 203 329 c 0,18,19
 297 439 297 439 402 463 c 1,20,-1
 444 400 l 1,21,22
 345 369 345 369 297 316 c 256,23,24
 240 252 240 252 240 183 c 3,25,26
 240 112 240 112 299 112 c 3,27,28
 366 112 366 112 408 177 c 256,29,30
 444 234 444 234 444 312 c 3,31,32
 444 379 444 379 365 467 c 0,33,34
 275 567 275 567 191 582 c 1,0,-1
EndSplineSet
Fore
SplineSet
191 582 m 257,0,-1
 200 657 l 257,1,-1
 318 659 l 257,2,-1
 332 623 l 257,3,4
 409 591 409 591 479 511 c 256,5,6
 546 435 546 435 546 295 c 259,7,8
 546 158 546 158 456 73 c 256,9,10
 368 -10 368 -10 281 -10 c 259,11,12
 209 -10 209 -10 171 28 c 256,13,14
 130 71 130 71 130 137 c 259,15,16
 130 244 130 244 203 329 c 256,17,18
 285 425 285 425 375 455 c 257,19,20
 370 461 370 461 365 467 c 256,21,22
 283 566 283 566 191 582 c 257,0,-1
420 392 m 257,23,24
 339 362 339 362 297 316 c 256,25,26
 240 254 240 254 240 183 c 259,27,28
 240 112 240 112 299 112 c 259,29,30
 366 112 366 112 408 177 c 256,31,32
 444 234 444 234 444 312 c 259,33,34
 444 349 444 349 420 392 c 257,23,24
EndSplineSet
Validated: 1
EndChar

StartChar: hcircumflex
Encoding: 293 293 132
Width: 680
VWidth: 0
Flags: W
HStem: -10 87<225 367.709> 392 94<310.589 454.562>
VStem: 116 122<104.004 194.361> 405 102<327.429 443.5>
LayerCount: 2
Back
SplineSet
376 236 m 256,0,1
 507 305 507 305 507 401 c 259,2,3
 507 486 507 486 402 486 c 259,4,5
 310 486 310 486 209 392 c 256,6,7
 116 305 116 305 116 183 c 259,8,9
 116 82 116 82 160 30 c 256,10,11
 194 -10 194 -10 256 -10 c 259,12,13
 320 -10 320 -10 412 30 c 256,14,15
 501 69 501 69 501 95 c 259,16,17
 501 111 501 111 486 111 c 259,18,19
 467 111 467 111 441 103 c 256,20,21
 357 77 357 77 323 77 c 259,22,23
 267 77 267 77 252 120 c 256,24,25
 237 162 237 162 237 224 c 259,26,27
 237 283 237 283 277 341 c 256,28,29
 313 392 313 392 359 392 c 259,30,31
 405 392 405 392 405 352 c 259,32,33
 405 288 405 288 287 258 c 256,34,35
 248 248 248 248 189 243 c 265,36,-1
 198 188 l 273,37,38
 289 190 289 190 376 236 c 256,0,1
EndSplineSet
Fore
SplineSet
376 236 m 256,0,1
 308 200 308 200 238 191 c 257,2,3
 241 150 241 150 252 120 c 256,4,5
 267 77 267 77 323 77 c 259,6,7
 357 77 357 77 441 103 c 256,8,9
 467 111 467 111 486 111 c 259,10,11
 501 111 501 111 501 95 c 259,12,13
 501 69 501 69 412 30 c 256,14,15
 320 -10 320 -10 256 -10 c 259,16,17
 194 -10 194 -10 160 30 c 256,18,19
 116 82 116 82 116 183 c 259,20,21
 116 305 116 305 209 392 c 256,22,23
 310 486 310 486 402 486 c 259,24,25
 507 486 507 486 507 401 c 259,26,27
 507 305 507 305 376 236 c 256,0,1
239 249 m 257,28,29
 266 253 266 253 287 258 c 256,30,31
 405 288 405 288 405 352 c 259,32,33
 405 392 405 392 359 392 c 259,34,35
 313 392 313 392 277 341 c 256,36,37
 246 296 246 296 239 249 c 257,28,29
EndSplineSet
Validated: 1
EndChar

StartChar: Hbar
Encoding: 294 294 133
Width: 680
VWidth: 0
Flags: MW
VStem: 175 121<-56.7268 98.0485>
DStem2: 192 400 192 321 0.995363 0.0961905<0 37.577 143.587 231.51>
LayerCount: 2
Back
SplineSet
192 400 m 25,0,-1
 430 422 l 1,1,-1
 430 344 l 25,2,-1
 192 321 l 1,3,-1
 192 400 l 25,0,-1
430 776 m 259,4,5
 505 776 505 776 505 727 c 259,6,7
 505 693 505 693 453 661 c 256,8,9
 413 637 413 637 387 573 c 256,10,11
 297 353 297 353 296 67 c 256,12,13
 296 30 296 30 315 11 c 256,14,15
 331 -5 331 -5 331 -47 c 259,16,17
 331 -95 331 -95 256 -95 c 259,18,19
 175 -95 175 -95 175 -33 c 259,20,21
 175 20 175 20 190 71 c 0,22,23
 202 112 202 112 210 158 c 0,24,25
 241 358 241 358 255 429 c 256,26,27
 279 559 279 559 334 701 c 256,28,29
 363 776 363 776 430 776 c 259,4,5
EndSplineSet
Fore
SplineSet
430 776 m 3,0,1
 505 776 505 776 505 727 c 3,2,3
 505 693 505 693 453 661 c 0,4,5
 413 637 413 637 387 573 c 0,6,7
 356 497 356 497 335 413 c 1,8,-1
 430 422 l 1,9,-1
 430 344 l 1,10,-1
 319 333 l 1,11,12
 297 208 297 208 296 67 c 0,13,14
 296 30 296 30 315 11 c 0,15,16
 331 -5 331 -5 331 -47 c 3,17,18
 331 -95 331 -95 256 -95 c 3,19,20
 175 -95 175 -95 175 -33 c 3,21,22
 175 20 175 20 190 71 c 0,23,24
 202 112 202 112 210 158 c 0,25,26
 225 258 225 258 237 325 c 1,27,-1
 192 321 l 1,28,-1
 192 400 l 1,29,-1
 251 405 l 1,30,31
 253 418 253 418 255 429 c 0,32,33
 279 559 279 559 334 701 c 0,34,35
 363 776 363 776 430 776 c 3,0,1
EndSplineSet
Validated: 1
EndChar

StartChar: hbar
Encoding: 295 295 134
Width: 680
VWidth: 0
Flags: W
HStem: -234 74<192.425 318.049> 4 111<183 317.221> 520 20G<439.5 472.085>
VStem: 126 113<65.5 240.599> 458 115<236.734 444.974>
LayerCount: 2
Back
SplineSet
457 497 m 257,0,1
 482 467 l 257,2,3
 428 446 428 446 316 333 c 256,4,5
 239 255 239 255 239 185 c 259,6,7
 239 115 239 115 305 115 c 259,8,9
 380 115 380 115 473 302 c 257,10,-1
 473 192 l 257,11,12
 353 4 353 4 240 4 c 259,13,14
 126 4 126 4 126 127 c 259,15,16
 126 250 126 250 220 348 c 256,17,18
 297 428 297 428 457 497 c 257,0,1
438 540 m 257,19,-1
 559 469 l 257,20,21
 573 385 573 385 573 240 c 259,22,23
 573 45 573 45 467 -92 c 256,24,25
 357 -234 357 -234 264 -234 c 259,26,27
 176 -234 176 -234 154 -212 c 256,28,29
 132 -190 132 -190 132 -153 c 259,30,31
 132 -120 132 -120 161 -120 c 259,32,33
 186 -120 186 -120 194 -142 c 256,34,35
 201 -160 201 -160 258 -160 c 259,36,37
 317 -160 317 -160 390 -69 c 256,38,39
 459 17 459 17 459 233 c 259,40,41
 459 357 459 357 438 540 c 257,19,-1
EndSplineSet
Fore
SplineSet
438 540 m 257,0,-1
 559 469 l 257,1,2
 573 385 573 385 573 240 c 259,3,4
 573 45 573 45 467 -92 c 256,5,6
 357 -234 357 -234 264 -234 c 259,7,8
 176 -234 176 -234 154 -212 c 256,9,10
 132 -190 132 -190 132 -153 c 259,11,12
 132 -120 132 -120 161 -120 c 259,13,14
 186 -120 186 -120 194 -142 c 256,15,16
 201 -160 201 -160 258 -160 c 259,17,18
 317 -160 317 -160 390 -69 c 256,19,20
 448 3 448 3 457 168 c 257,21,22
 345 4 345 4 240 4 c 259,23,24
 126 4 126 4 126 127 c 259,25,26
 126 250 126 250 220 348 c 256,27,28
 294 425 294 425 443 491 c 257,29,30
 441 515 441 515 438 540 c 257,0,-1
458 274 m 257,31,32
 456 351 456 351 448 448 c 257,33,34
 397 414 397 414 316 333 c 256,35,36
 239 255 239 255 239 185 c 259,37,38
 239 115 239 115 305 115 c 259,39,40
 374 115 374 115 458 274 c 257,31,32
EndSplineSet
Validated: 1
EndChar

StartChar: Itilde
Encoding: 296 296 135
Width: 680
VWidth: 0
Flags: MW
HStem: 290 140<378 532.004>
VStem: 228 133<554.212 697.298>
LayerCount: 2
Fore
SplineSet
287 751 m 257,0,1
 361 751 361 751 361 677 c 259,2,3
 361 590 361 590 305 468 c 256,4,5
 254 357 254 357 229 250 c 257,6,7
 281 310 281 310 364 367 c 256,8,9
 457 430 457 430 502 430 c 259,10,11
 575 430 575 430 575 365 c 259,12,13
 575 294 575 294 530 233 c 256,14,15
 478 163 478 163 478 123 c 259,16,17
 478 88 478 88 490 79 c 256,18,19
 507 66 507 66 542 66 c 257,20,21
 498 -21 498 -21 408 -21 c 259,22,23
 354 -21 354 -21 354 37 c 259,24,25
 354 82 354 82 394 144 c 256,26,27
 441 218 441 218 441 256 c 259,28,29
 441 290 441 290 402 290 c 259,30,31
 354 290 354 290 266 151 c 256,32,33
 164 -10 164 -10 140 -10 c 259,34,35
 119 -10 119 -10 112 8 c 256,36,37
 103 29 103 29 103 60 c 259,38,39
 103 162 103 162 156 307 c 256,40,41
 227 502 227 502 228 586 c 256,42,43
 228 642 228 642 200 673 c 257,44,-1
 287 751 l 257,0,1
EndSplineSet
Validated: 1
EndChar

StartChar: itilde
Encoding: 297 297 136
Width: 680
VWidth: 0
Flags: W
HStem: 321 86<303 418> 488 112<361.449 460.393>
VStem: 321 126<271.193 382.291> 340 141<508.502 562.812>
LayerCount: 2
Fore
SplineSet
342 526 m 0,0,1
 340 532 340 532 340 538 c 3,2,3
 340 554 340 554 352 568 c 0,4,5
 371 590 371 590 396 597 c 0,6,7
 408 600 408 600 420 600 c 3,8,9
 435 600 435 600 449 594 c 0,10,11
 476 584 476 584 480 563 c 0,12,13
 481 557 481 557 481 551 c 3,14,15
 481 535 481 535 469 520 c 0,16,17
 452 497 452 497 426 491 c 0,18,19
 414 488 414 488 401 488 c 3,20,21
 387 488 387 488 373 494 c 0,22,23
 349 506 349 506 342 526 c 0,0,1
259 313 m 3,24,25
 249 313 249 313 249 328 c 3,26,27
 249 335 249 335 293 370 c 0,28,29
 340 407 340 407 389 407 c 256,30,31
 447 407 447 407 447 366 c 3,32,33
 447 287 447 287 404 244 c 0,34,35
 352 192 352 192 352 134 c 3,36,37
 352 106 352 106 374 93 c 0,38,39
 401 77 401 77 416 77 c 1,40,41
 372 -10 372 -10 282 -10 c 3,42,43
 229 -10 229 -10 229 48 c 3,44,45
 229 108 229 108 272 176 c 256,46,47
 321 254 321 254 321 303 c 259,48,49
 321 321 321 321 307 321 c 259,50,51
 299 321 299 321 283 316 c 0,52,53
 273 313 273 313 259 313 c 3,24,25
EndSplineSet
Validated: 1
EndChar

StartChar: imacron
Encoding: 299 299 138
Width: 680
VWidth: 0
Flags: W
HStem: -14 133<419.219 488.378> 335 151<459.238 531.413>
VStem: 117 124<11.884 209.256> 243 133<557.479 697.572>
LayerCount: 2
Back
SplineSet
522 486 m 259,0,1
 558 486 558 486 558 452 c 3,2,3
 558 388 558 388 538 364 c 0,4,5
 513 335 513 335 485 335 c 3,6,7
 449 335 449 335 435 325 c 0,8,9
 366 268 366 268 361 246 c 1,10,11
 417 119 417 119 451 119 c 3,12,13
 478 119 478 119 488 131 c 256,14,15
 500 145 500 145 522 145 c 3,16,17
 537 145 537 145 537 108 c 259,18,19
 537 73 537 73 514 39 c 0,20,21
 478 -14 478 -14 441 -14 c 3,22,23
 423 -14 423 -14 365 60 c 0,24,25
 308 132 308 132 250 233 c 1,26,27
 237 242 237 242 224 252 c 1,28,29
 350 384 350 384 472 474 c 0,30,31
 488 486 488 486 522 486 c 259,0,1
241 104 m 0,32,33
 238 39 238 39 219 11 c 0,34,35
 204 -10 204 -10 160 -10 c 3,36,37
 140 -10 140 -10 131 1 c 0,38,39
 117 19 117 19 117 60 c 3,40,41
 117 164 117 164 170 307 c 0,42,43
 243 504 243 504 243 586 c 3,44,45
 243 642 243 642 215 673 c 1,46,-1
 301 752 l 1,47,48
 376 752 376 752 376 677 c 3,49,50
 376 596 376 596 320 468 c 256,51,52
 251 311 251 311 241 104 c 0,32,33
EndSplineSet
Fore
SplineSet
241 104 m 0,0,1
 238 39 238 39 219 11 c 0,2,3
 204 -10 204 -10 160 -10 c 3,4,5
 140 -10 140 -10 131 1 c 0,6,7
 117 19 117 19 117 60 c 3,8,9
 117 164 117 164 170 307 c 0,10,11
 243 504 243 504 243 586 c 3,12,13
 243 642 243 642 215 673 c 1,14,-1
 301 752 l 1,15,16
 376 752 376 752 376 677 c 3,17,18
 376 596 376 596 320 468 c 0,19,20
 285 387 285 387 265 294 c 1,21,22
 370 399 370 399 472 474 c 0,23,24
 488 486 488 486 522 486 c 3,25,26
 558 486 558 486 558 452 c 3,27,28
 558 388 558 388 538 364 c 0,29,30
 513 335 513 335 485 335 c 3,31,32
 449 335 449 335 435 325 c 0,33,34
 366 268 366 268 361 246 c 1,35,36
 417 119 417 119 451 119 c 0,37,38
 478 119 478 119 488 131 c 0,39,40
 500 145 500 145 522 145 c 3,41,42
 537 145 537 145 537 108 c 3,43,44
 537 73 537 73 514 39 c 0,45,46
 478 -14 478 -14 441 -14 c 3,47,48
 423 -14 423 -14 365 60 c 0,49,50
 309 130 309 130 253 228 c 1,51,52
 244 168 244 168 241 104 c 0,0,1
EndSplineSet
Validated: 1
EndChar

StartChar: Ibreve
Encoding: 300 300 139
Width: 680
VWidth: 0
Flags: W
HStem: -10 85<275 382>
VStem: 210 125<32.5 213.648> 334 134<549.965 707.008>
LayerCount: 2
Fore
SplineSet
310 710 m 257,0,-1
 429 752 l 257,1,2
 468 749 468 749 468 676 c 259,3,4
 468 594 468 594 418 470 c 256,5,6
 335 264 335 264 335 186 c 259,7,8
 335 124 335 124 346 100 c 256,9,10
 358 75 358 75 382 75 c 259,11,12
 404 75 404 75 404 50 c 259,13,14
 404 32 404 32 366 13 c 256,15,16
 320 -10 320 -10 275 -10 c 259,17,18
 210 -10 210 -10 210 75 c 259,19,20
 210 186 210 186 280 341 c 256,21,22
 334 460 334 460 334 590 c 259,23,24
 334 673 334 673 310 710 c 257,0,-1
EndSplineSet
Validated: 1
EndChar

StartChar: ibreve
Encoding: 301 301 140
Width: 680
Flags: W
HStem: -20 96<498.523 634> 366 127<246.297 359.223 503.297 616.223>
VStem: 53 104<342 431.987> 567 30<109 316>
LayerCount: 2
Back
SplineSet
414 378 m 259,0,1
 414 211 414 211 322 16 c 257,2,-1
 242 -15 l 257,3,4
 310 166 310 166 310 316 c 259,5,6
 310 366 310 366 263 366 c 259,7,8
 214 366 214 366 63 25 c 1,9,-1
 -4 -7 l 1,10,11
 180 493 180 493 334 493 c 259,12,13
 414 493 414 493 414 378 c 259,0,1
157 378 m 259,14,15
 157 211 157 211 65 16 c 257,16,-1
 -15 -15 l 257,17,18
 53 166 53 166 53 316 c 259,19,20
567 316 m 259,21,22
 567 366 567 366 520 366 c 259,23,24
 471 366 471 366 320 25 c 1,25,-1
 253 -7 l 1,26,27
 437 493 437 493 591 493 c 259,28,29
 671 493 671 493 671 378 c 259,30,31
 671 341 671 341 629 225 c 256,32,33
 597 140 597 140 597 109 c 259,34,35
 597 76 597 76 624 76 c 3,36,37
 644 76 644 76 650 84 c 0,38,39
 659 94 659 94 669 94 c 259,40,41
 685 94 685 94 685 74 c 259,42,43
 685 54 685 54 620 10 c 0,44,45
 576 -20 576 -20 517 -20 c 259,46,47
 474 -20 474 -20 474 16 c 259,48,49
 474 53 474 53 498 93 c 256,50,51
 567 208 567 208 567 316 c 259,21,22
65 16 m 257,52,-1
 -15 -15 l 257,53,54
 53 166 53 166 53 316 c 259,55,56
 53 401 53 401 36 433 c 257,57,58
 76 493 76 493 117 493 c 259,59,60
 157 493 157 493 157 378 c 259,61,62
 157 211 157 211 65 16 c 257,52,-1
EndSplineSet
Fore
SplineSet
65 16 m 1,0,-1
 -15 -15 l 1,1,2
 53 166 53 166 53 316 c 0,3,4
 53 401 53 401 36 433 c 1,5,6
 76 493 76 493 117 493 c 3,7,8
 157 493 157 493 157 378 c 3,9,10
 157 360 157 360 156 342 c 1,11,12
 250 493 250 493 334 493 c 3,13,14
 414 493 414 493 414 378 c 3,15,16
 414 360 414 360 413 342 c 1,17,18
 507 493 507 493 591 493 c 3,19,20
 671 493 671 493 671 378 c 3,21,22
 671 341 671 341 629 225 c 0,23,24
 597 140 597 140 597 109 c 3,25,26
 597 76 597 76 624 76 c 3,27,28
 644 76 644 76 650 84 c 0,29,30
 659 94 659 94 669 94 c 3,31,32
 685 94 685 94 685 74 c 256,33,34
 685 54 685 54 620 10 c 0,35,36
 576 -20 576 -20 517 -20 c 3,37,38
 474 -20 474 -20 474 16 c 3,39,40
 474 53 474 53 498 93 c 0,41,42
 567 208 567 208 567 316 c 3,43,44
 567 366 567 366 520 366 c 3,45,46
 480 366 480 366 371 137 c 1,47,48
 351 78 351 78 322 16 c 1,49,-1
 242 -15 l 1,50,51
 310 166 310 166 310 316 c 3,52,53
 310 366 310 366 263 366 c 3,54,55
 223 366 223 366 114 137 c 1,56,57
 94 78 94 78 65 16 c 1,0,-1
EndSplineSet
Validated: 1
EndChar

StartChar: Iogonek
Encoding: 302 302 141
Width: 680
Flags: MW
HStem: -20 96<425.523 561> 366 127<422.205 543.223>
VStem: 158 104<244.849 454.408> 494 104<282.231 427.059>
LayerCount: 2
Back
SplineSet
494 316 m 259,0,1
 494 366 494 366 447 366 c 259,2,3
 318 366 318 366 166 25 c 1,4,-1
 99 -7 l 1,5,6
 284 493 284 493 518 493 c 259,7,8
 598 493 598 493 598 378 c 259,9,10
 598 337 598 337 556 225 c 256,11,12
 524 140 524 140 524 109 c 259,13,14
 524 76 524 76 551 76 c 3,15,16
 571 76 571 76 577 84 c 0,17,18
 586 94 586 94 596 94 c 259,19,20
 612 94 612 94 612 74 c 259,21,22
 612 54 612 54 547 10 c 0,23,24
 503 -20 503 -20 444 -20 c 259,25,26
 401 -20 401 -20 401 16 c 259,27,28
 401 53 401 53 425 93 c 256,29,30
 494 208 494 208 494 316 c 259,0,1
170 16 m 257,31,-1
 90 -15 l 257,32,33
 158 166 158 166 158 316 c 259,34,35
 158 401 158 401 141 433 c 257,36,37
 181 493 181 493 222 493 c 259,38,39
 262 493 262 493 262 378 c 259,40,41
 262 211 262 211 170 16 c 257,31,-1
EndSplineSet
Fore
SplineSet
170 16 m 257,0,-1
 90 -15 l 257,1,2
 158 166 158 166 158 316 c 259,3,4
 158 401 158 401 141 433 c 257,5,6
 181 493 181 493 222 493 c 259,7,8
 262 493 262 493 262 378 c 259,9,10
 262 349 262 349 259 319 c 257,11,12
 380 493 380 493 518 493 c 259,13,14
 598 493 598 493 598 378 c 259,15,16
 598 337 598 337 556 225 c 256,17,18
 524 140 524 140 524 109 c 259,19,20
 524 76 524 76 551 76 c 259,21,22
 571 76 571 76 577 84 c 256,23,24
 586 94 586 94 596 94 c 259,25,26
 612 94 612 94 612 74 c 259,27,28
 612 54 612 54 547 10 c 256,29,30
 503 -20 503 -20 444 -20 c 259,31,32
 401 -20 401 -20 401 16 c 259,33,34
 401 53 401 53 425 93 c 256,35,36
 494 208 494 208 494 316 c 259,37,38
 494 366 494 366 447 366 c 259,39,40
 340 366 340 366 217 132 c 257,41,42
 198 75 198 75 170 16 c 257,0,-1
EndSplineSet
Validated: 1
EndChar

StartChar: Lslash
Encoding: 321 321 142
Width: 680
VWidth: 0
Flags: W
HStem: -12 70<179.733 365.874 538.95 725.906> 445 63<382.833 525.903>
VStem: 41 119<77.8743 218.774> 405 122<90.3141 175.355>
LayerCount: 2
Back
SplineSet
453 128 m 261,0,1
 428 -10 428 -10 253 -10 c 271,2,3
 141 -10 141 -10 81 36 c 284,4,5
 41 67 41 67 41 135 c 263,6,7
 41 243 41 243 169 371 c 284,8,9
 306 508 306 508 486 508 c 263,10,11
 556 508 556 508 568 427 c 285,12,13
 509 445 509 445 450 445 c 263,14,15
 380 445 380 445 264 326 c 284,16,17
 160 220 160 220 160 143 c 263,18,19
 160 58 160 58 241 58 c 279,20,21
 370 58 370 58 453 128 c 261,0,1
585 494 m 263,22,23
 644 494 644 494 644 420 c 263,24,25
 644 368 644 368 579 265 c 260,26,27
 527 182 527 182 527 103 c 263,28,29
 527 58 527 58 658 58 c 263,30,31
 766 58 766 58 959 175 c 285,32,33
 765 -12 765 -12 622 -12 c 263,34,35
 495 -12 495 -12 442 27 c 284,36,37
 405 54 405 54 405 112 c 263,38,39
 405 130 405 130 507 391 c 260,40,41
 547 494 547 494 585 494 c 263,22,23
EndSplineSet
Fore
SplineSet
585 494 m 3,0,1
 644 494 644 494 644 420 c 3,2,3
 644 368 644 368 579 265 c 0,4,5
 527 182 527 182 527 103 c 3,6,7
 527 58 527 58 658 58 c 3,8,9
 766 58 766 58 959 175 c 1,10,11
 765 -12 765 -12 622 -12 c 3,12,13
 493 -12 493 -12 442 27 c 0,14,15
 429 37 429 37 420 51 c 1,16,17
 370 -10 370 -10 253 -10 c 3,18,19
 141 -10 141 -10 81 36 c 0,20,21
 41 67 41 67 41 135 c 3,22,23
 41 243 41 243 169 371 c 0,24,25
 306 508 306 508 486 508 c 3,26,27
 531 508 531 508 552 475 c 1,28,29
 569 494 569 494 585 494 c 3,0,1
406 96 m 1,30,31
 405 104 405 104 405 112 c 3,32,33
 405 116 405 116 507 391 c 0,34,35
 517 418 517 418 527 437 c 1,36,37
 488 445 488 445 450 445 c 3,38,39
 380 445 380 445 264 326 c 0,40,41
 160 220 160 220 160 143 c 3,42,43
 160 58 160 58 241 58 c 3,44,45
 339 58 339 58 406 96 c 1,30,31
EndSplineSet
Validated: 1
EndChar

StartChar: lslash
Encoding: 322 322 143
Width: 680
VWidth: 0
Flags: W
HStem: -10 55<263.742 347.986> 413 59<310.981 443> 976 29<716.991 885.175>
VStem: 142 97<72.9012 378.317> 419 123<179.682 397.257> 954 128<770.427 895.523>
LayerCount: 2
Back
SplineSet
646 519 m 1,0,1
 797 524 797 524 895 586 c 24,2,3
 1082 703 1082 703 1082 798 c 3,4,5
 1082 883 1082 883 1035 928 c 24,6,7
 954 1005 954 1005 790 1005 c 11,8,9
 578 1005 578 1005 347 728 c 280,10,11
 142 482 142 482 142 228 c 3,12,13
 142 77 142 77 193 26 c 280,14,15
 229 -10 229 -10 319 -10 c 3,16,17
 389.689 -10 389.689 -10 448 64 c 24,18,19
 542 183 542 183 542 273 c 27,20,21
 542 372 542 372 515 413 c 24,22,23
 476 472 476 472 410 472 c 3,24,25
 274 472 274 472 164 316 c 25,26,27
 266 413 266 413 356 413 c 3,28,29
 419 413 419 413 419 318 c 27,30,31
 419 211 419 211 383 123 c 0,32,33
 352 45 352 45 297 45 c 3,34,35
 239 45 239 45 239 228 c 3,36,37
 239 453.646 239 453.646 450 737 c 24,38,39
 628 976 628 976 796 976 c 27,40,41
 954 976 954 976 954 858 c 3,42,43
 954 757 954 757 842 658 c 24,44,45
 781 604 781 604 646 519 c 1,0,1
EndSplineSet
Fore
SplineSet
646 519 m 1,0,1
 781 604 781 604 842 658 c 0,2,3
 954 757 954 757 954 858 c 3,4,5
 954 976 954 976 796 976 c 3,6,7
 630 976 630 976 450 737 c 0,8,9
 328 575.001 328 575.001 277 431.001 c 1,10,11
 340 472 340 472 410 472 c 3,12,13
 476 472 476 472 515 413 c 0,14,15
 542 372 542 372 542 273 c 3,16,17
 542 184 542 184 448 64 c 0,18,19
 390 -10 390 -10 319 -10 c 3,20,21
 229 -10 229 -10 193 26 c 0,22,23
 142 77 142 77 142 228 c 3,24,25
 142 482 142 482 347 728 c 0,26,27
 578 1005 578 1005 790 1005 c 3,28,29
 954 1005 954 1005 1035 928 c 0,30,31
 1082 883 1082 883 1082 798 c 3,32,33
 1082 703 1082 703 895 586 c 0,34,35
 797 524 797 524 646 519 c 1,0,1
264 389 m 1,36,37
 239 305 239 305 239 228 c 3,38,39
 239 45 239 45 297 45 c 3,40,41
 352 45 352 45 383 123 c 0,42,43
 419 211 419 211 419 318 c 3,44,45
 419 413 419 413 356 413 c 3,46,47
 312 413 312 413 264 389 c 1,36,37
EndSplineSet
Validated: 1
EndChar

StartChar: Nacute
Encoding: 323 323 144
Width: 680
VWidth: 0
Flags: W
HStem: 460 114<476.921 604.302>
VStem: 155 97<15.1938 410.462>
LayerCount: 2
Back
SplineSet
209 395 m 21,0,1
 236 472 236 472 328 521 c 4,2,3
 427 574 427 574 535 574 c 7,4,5
 618 574 618 574 618 512 c 7,6,7
 618 460 618 460 562 460 c 7,8,9
 524 460 524 460 486 478 c 260,10,11
 454 493 454 493 418 494 c 4,12,13
 349 494 349 494 209 395 c 21,0,1
204 -10 m 263,14,15
 155 -10 155 -10 155 95 c 30,16,17
 155 388 l 6,18,19
 155 430 155 430 196 430 c 15,20,21
 231 430 231 430 234 417 c 4,22,23
 252 335 252 335 252 224 c 31,24,25
 252 -10 252 -10 204 -10 c 263,14,15
EndSplineSet
Fore
SplineSet
204 -10 m 3,0,1
 155 -10 155 -10 155 95 c 6,2,-1
 155 388 l 2,3,4
 155 430 155 430 196 430 c 3,5,6
 214 430 214 430 223 427 c 1,7,8
 255 483 255 483 328 521 c 0,9,10
 430 574 430 574 535 574 c 3,11,12
 618 574 618 574 618 512 c 3,13,14
 618 460 618 460 562 460 c 3,15,16
 522 460 522 460 486 478 c 0,17,18
 454 494 454 494 418 494 c 3,19,20
 356 494 356 494 235 413 c 1,21,22
 252 332 252 332 252 224 c 3,23,24
 252 -10 252 -10 204 -10 c 3,0,1
EndSplineSet
Validated: 1
EndChar

StartChar: nacute
Encoding: 324 324 145
Width: 862
VWidth: 0
Flags: W
HStem: -10 55<403.838 481.915> 753 79<53.5673 336.619>
VStem: 242 146<87.6299 247.763> 629 117<248.77 475.543>
LayerCount: 2
Back
SplineSet
-278 460 m 257,0,1
 -274 611 -274 611 -111 728 c 256,2,3
 34 832 34 832 206 832 c 259,4,5
 447 832 447 832 631 643 c 256,6,7
 748 522 748 522 748 343 c 275,8,9
 748 182 748 182 662 96 c 256,10,11
 557 -10 557 -10 440 -10 c 283,12,13
 360 -10 360 -10 316 26 c 256,14,15
 244 85 244 85 244 184 c 259,16,17
 244 312 244 312 372 418 c 256,18,19
 524 544 524 544 678 544 c 257,20,21
 592 467 592 467 498 370 c 256,22,23
 390 258 390 258 390 154 c 259,24,25
 390 45 390 45 440 45 c 259,26,27
 485 45 485 45 566 168 c 256,28,29
 631 266 631 266 631 348 c 259,30,31
 631 506 631 506 512 622 c 280,32,33
 378 753 378 753 208 753 c 259,34,35
 31 753 31 753 -85 676 c 256,36,37
 -205 597 -205 597 -278 460 c 257,0,1
EndSplineSet
Fore
SplineSet
-280 460 m 1,0,1
 -276 611 -276 611 -113 728 c 0,2,3
 32 832 32 832 204 832 c 3,4,5
 445 832 445 832 629 643 c 0,6,7
 746 522 746 522 746 343 c 3,8,9
 746 182 746 182 660 96 c 0,10,11
 555 -10 555 -10 438 -10 c 3,12,13
 358 -10 358 -10 314 26 c 0,14,15
 242 85 242 85 242 184 c 3,16,17
 242 312 242 312 370 418 c 0,18,19
 475 505 475 505 581 532 c 1,20,21
 553 580 553 580 510 622 c 0,22,23
 376 753 376 753 206 753 c 3,24,25
 29 753 29 753 -87 676 c 0,26,27
 -207 597 -207 597 -280 460 c 1,0,1
606 479 m 1,28,29
 551 428 551 428 496 370 c 0,30,31
 388 256 388 256 388 154 c 3,32,33
 388 45 388 45 438 45 c 3,34,35
 483 45 483 45 564 168 c 0,36,37
 629 266 629 266 629 348 c 3,38,39
 629 418 629 418 606 479 c 1,28,29
EndSplineSet
Validated: 1
EndChar

StartChar: Ncommaaccent
Encoding: 325 325 146
Width: 680
VWidth: 0
Flags: W
HStem: -72 63<262.728 486.249> 432 48<322.149 405.49>
VStem: 91 88<79.9729 227.922> 411 121<301.865 424.699>
LayerCount: 2
Back
SplineSet
893 216 m 257,0,1
 811 87 811 87 634 2 c 256,2,3
 480 -72 480 -72 346 -72 c 259,4,5
 238.742 -72 238.742 -72 168 -29 c 280,6,7
 91 18 91 18 91 83 c 283,8,9
 91 230 91 230 168 336 c 280,10,11
 273 480 273 480 380 480 c 259,12,13
 456 480 456 480 488 450 c 256,14,15
 532 411 532 411 532 343 c 259,16,17
 532 248 532 248 389 176 c 256,18,19
 200 82 200 82 168 77 c 1,20,21
 116 101 l 257,22,23
 235 151 235 151 319 221 c 256,24,25
 411 298 411 298 411 383 c 259,26,27
 411 432 411 432 366 432 c 259,28,29
 328 432 328 432 262 345 c 256,30,31
 179 237 179 237 179 169 c 259,32,33
 179 89.5455 179 89.5455 227 41 c 280,34,35
 276 -9 276 -9 355 -9 c 283,36,37
 457 -9 457 -9 629 66 c 256,38,39
 794 139 794 139 893 216 c 257,0,1
EndSplineSet
Fore
SplineSet
893 216 m 1,0,1
 811 87 811 87 634 2 c 0,2,3
 480 -72 480 -72 346 -72 c 3,4,5
 239 -72 239 -72 168 -29 c 0,6,7
 91 18 91 18 91 83 c 3,8,9
 91 230 91 230 168 336 c 0,10,11
 273 480 273 480 380 480 c 7,12,13
 456 480 456 480 488 450 c 0,14,15
 532 411 532 411 532 343 c 3,16,17
 532 247 532 247 389 176 c 0,18,19
 250 107 250 107 196 86 c 1,20,21
 208 61 208 61 227 41 c 0,22,23
 274 -9 274 -9 355 -9 c 3,24,25
 457 -9 457 -9 629 66 c 0,26,27
 794 139 794 139 893 216 c 1,0,1
182 132 m 1,28,29
 257 170 257 170 319 221 c 0,30,31
 411 296 411 296 411 383 c 3,32,33
 411 432 411 432 366 432 c 3,34,35
 328 432 328 432 262 345 c 0,36,37
 179 237 179 237 179 169 c 0,38,39
 179 150 179 150 182 132 c 1,28,29
EndSplineSet
Validated: 1
EndChar

StartChar: ncommaaccent
Encoding: 326 326 147
Width: 680
VWidth: 0
Flags: MW
HStem: -206 58<-461.626 -146.019> 890 63<716.196 834.095>
VStem: -673 106<-83.1602 -6.00415> 840 101<782.797 884.442>
LayerCount: 2
Back
SplineSet
189 546 m 259,0,1
 232 546 232 546 308 471 c 280,2,3
 513 268 513 268 513 249 c 259,4,5
 513 231 513 231 490 231 c 283,6,7
 460 231 460 231 252 404 c 280,8,9
 156 461 156 461 156 521 c 283,10,11
 156 546 156 546 189 546 c 259,0,1
713 690 m 257,12,13
 769 728 769 728 794 753 c 256,14,15
 840 802 840 802 840 843 c 259,16,17
 840 890 840 890 788 890 c 259,18,19
 682 890 682 890 572 712 c 256,20,21
 536 654 536 654 401 316 c 280,22,23
 313 96 313 96 124 -58 c 256,24,25
 -58 -206 -58 -206 -313 -206 c 259,26,27
 -410 -206 -410 -206 -556 -161 c 280,28,29
 -673 -125 -673 -125 -673 -46 c 259,30,31
 -673 71 -673 71 -583 71 c 259,32,33
 -529 71 -529 71 -529 21 c 259,34,35
 -529 5 -529 5 -554 -13 c 280,36,37
 -567 -22 -567 -22 -567 -48 c 259,38,39
 -567 -79 -567 -79 -498 -112 c 256,40,41
 -423 -148 -423 -148 -278 -148 c 259,42,43
 -91 -148 -91 -148 83 14 c 256,44,45
 258 177 258 177 324 399 c 280,46,47
 355 503 355 503 450 685 c 256,48,49
 590 953 590 953 788 953 c 259,50,51
 859 953 859 953 900 926 c 280,52,53
 941 899 941 899 941 852 c 259,54,55
 941 777 941 777 886 725 c 256,56,57
 829 671 829 671 767 671 c 259,58,59
 713 671 713 671 713 690 c 257,12,13
EndSplineSet
Fore
SplineSet
713 690 m 257,0,1
 769 728 769 728 794 753 c 256,2,3
 840 802 840 802 840 843 c 259,4,5
 840 890 840 890 788 890 c 259,6,7
 687 890 687 890 572 712 c 256,8,9
 537 658 537 658 418 360 c 257,10,11
 513 262 513 262 513 249 c 259,12,13
 513 231 513 231 490 231 c 259,14,15
 472 231 472 231 391 292 c 257,16,17
 303 87 303 87 124 -58 c 256,18,19
 -59 -206 -59 -206 -313 -206 c 259,20,21
 -410 -206 -410 -206 -556 -161 c 256,22,23
 -673 -125 -673 -125 -673 -46 c 259,24,25
 -673 71 -673 71 -583 71 c 259,26,27
 -529 71 -529 71 -529 21 c 259,28,29
 -529 5 -529 5 -554 -13 c 256,30,31
 -567 -22 -567 -22 -567 -48 c 259,32,33
 -567 -79 -567 -79 -498 -112 c 256,34,35
 -423 -148 -423 -148 -278 -148 c 259,36,37
 -91 -148 -91 -148 83 14 c 256,38,39
 241 161 241 161 310 356 c 257,40,41
 283 378 283 378 252 404 c 257,42,43
 156 461 156 461 156 521 c 259,44,45
 156 546 156 546 189 546 c 259,46,47
 233 546 233 546 308 471 c 256,48,49
 324 455 324 455 338 441 c 257,50,51
 373 537 373 537 450 685 c 256,52,53
 589 953 589 953 788 953 c 259,54,55
 859 953 859 953 900 926 c 256,56,57
 941 899 941 899 941 852 c 259,58,59
 941 777 941 777 886 725 c 256,60,61
 829 671 829 671 767 671 c 259,62,63
 713 671 713 671 713 690 c 257,0,1
EndSplineSet
Validated: 1
EndChar

StartChar: Ncaron
Encoding: 327 327 148
Width: 680
VWidth: 0
Flags: W
HStem: -299 59<-273.21 34.9926> 63 43<267.358 364.299> 482 63<468.861 600.21>
VStem: -348 73<-232.074 -169.571> 143 115<116.654 240.644>
LayerCount: 2
Back
SplineSet
663 478 m 257,0,-1
 643 462 l 257,1,2
 607 482 607 482 552 482 c 259,3,4
 455 482 455 482 364 369 c 256,5,6
 258 237 258 237 258 158 c 259,7,8
 258 106 258 106 327 106 c 259,9,10
 368 106 368 106 438 140 c 257,11,12
 361 63 361 63 285 63 c 259,13,14
 143 63 143 63 143 178 c 259,15,16
 143 302 143 302 310 439 c 256,17,18
 440 545 440 545 543 545 c 259,19,20
 625 545 625 545 663 478 c 257,0,-1
658 527 m 259,21,22
 706 527 706 527 706 487 c 259,23,24
 706 372 706 372 444 -18 c 256,25,26
 340 -173 340 -173 145 -245 c 0,27,28
 1 -299 1 -299 -188 -299 c 259,29,30
 -249 -299 -249 -299 -296 -274 c 256,31,32
 -348 -247 -348 -247 -348 -215 c 259,33,34
 -348 -132 -348 -132 -259 -132 c 259,35,36
 -246 -132 -246 -132 -246 -148 c 259,37,38
 -246 -160 -246 -160 -259 -179 c 256,39,40
 -275 -199.414 -275 -199.414 -275 -210 c 259,41,42
 -275 -240 -275 -240 -185 -240 c 259,43,44
 17 -240 17 -240 134 -191 c 0,45,46
 256 -141 256 -141 377 64 c 256,47,-1
 615 504 l 256,48,49
 629 527 629 527 658 527 c 259,21,22
EndSplineSet
Fore
SplineSet
706 487 m 259,0,1
 706 372 706 372 444 -18 c 256,2,3
 340 -173 340 -173 145 -245 c 256,4,5
 1 -299 1 -299 -188 -299 c 259,6,7
 -249 -299 -249 -299 -296 -274 c 256,8,9
 -348 -247 -348 -247 -348 -215 c 259,10,11
 -348 -132 -348 -132 -259 -132 c 259,12,13
 -246 -132 -246 -132 -246 -148 c 259,14,15
 -246 -162 -246 -162 -259 -179 c 280,16,17
 -275 -200 -275 -200 -275 -210 c 259,18,19
 -275 -240 -275 -240 -185 -240 c 259,20,21
 17 -240 17 -240 134 -191 c 256,22,23
 256 -141 256 -141 377 64 c 257,24,-1
 400 107 l 257,25,26
 342 63 342 63 285 63 c 259,27,28
 143 63 143 63 143 178 c 259,29,30
 143 302 143 302 310 439 c 256,31,32
 441 545 441 545 543 545 c 259,33,34
 594 545 594 545 628 518 c 257,35,36
 640 527 640 527 658 527 c 259,37,38
 706 527 706 527 706 487 c 259,0,1
412 128 m 1,39,-1
 601 477 l 1,40,41
 579 482 579 482 552 482 c 3,42,43
 455 482 455 482 364 369 c 0,44,45
 258 237 258 237 258 158 c 3,46,47
 258 106 258 106 327 106 c 3,48,49
 360 106 360 106 412 128 c 1,39,-1
EndSplineSet
Validated: 1
EndChar

StartChar: ncaron
Encoding: 328 328 149
Width: 680
VWidth: 0
Flags: W
HStem: -78 86<393.5 532.21> 354 59<409.667 551.5> 869 59<760.631 926.225>
VStem: 343 103<15.7627 92.458> 478 132<244.686 346.529> 973 133<738.828 828.725>
LayerCount: 2
Back
SplineSet
196 268 m 281,0,1
 196 274 196 274 381 376 c 280,2,3
 448 413 448 413 493 413 c 267,4,5
 610 413 610 413 610 329 c 275,6,7
 610 244 610 244 514 147 c 272,8,9
 446 77 446 77 446 42.5 c 259,10,11
 446 8 446 8 514 8 c 259,12,13
 548 8 548 8 584 32 c 280,14,15
 620 55 620 55 637 55 c 259,16,17
 651 55 651 55 651 37 c 275,18,19
 651 8 651 8 595 -24 c 280,20,21
 501 -78 501 -78 444 -78 c 283,22,23
 343 -78 343 -78 343 30 c 283,24,25
 343 98 343 98 421 181 c 280,26,27
 478 242 478 242 478 302 c 267,28,29
 478 354 478 354 422 354 c 275,30,31
 394 354 394 354 196 268 c 281,0,1
88 -10 m 259,32,33
 34 -10 34 -10 34 39 c 283,34,35
 34 122 34 122 59 161 c 256,36,37
 163 315 163 315 511 737 c 280,38,39
 668 928 668 928 916 928 c 259,40,41
 1012 928 1012 928 1049 901 c 280,42,43
 1106 859 1106 859 1106 800 c 259,44,45
 1106 738 1106 738 1006 662 c 280,46,47
 911 590 911 590 826 590 c 259,48,49
 793 590 793 590 793 597 c 259,50,51
 793 607 793 607 825 618 c 256,52,53
 868 634 868 634 917 683 c 256,54,55
 973 740 973 740 973 786 c 259,56,57
 973 817 973 817 930 845 c 256,58,59
 892 869 892 869 807 869 c 259,60,61
 685 869 685 869 494 619 c 256,62,63
 292.53 352.072 292.53 352.072 214 188 c 256,64,65
 120 -10 120 -10 88 -10 c 259,32,33
EndSplineSet
Fore
SplineSet
88 -10 m 259,0,1
 34 -10 34 -10 34 39 c 259,2,3
 34 122 34 122 59 161 c 256,4,5
 163 315 163 315 511 737 c 256,6,7
 668 928 668 928 916 928 c 259,8,9
 1012 928 1012 928 1049 901 c 256,10,11
 1106 859 1106 859 1106 800 c 259,12,13
 1106 738 1106 738 1006 662 c 256,14,15
 911 590 911 590 826 590 c 259,16,17
 793 590 793 590 793 597 c 259,18,19
 793 607 793 607 825 618 c 256,20,21
 868 634 868 634 917 683 c 256,22,23
 973 740 973 740 973 786 c 256,24,25
 973 817 973 817 930 845 c 256,26,27
 892 869 892 869 807 869 c 259,28,29
 683 869 683 869 494 619 c 256,30,31
 368 452 368 452 290 325 c 257,32,33
 328 346 328 346 381 376 c 256,34,35
 446 413 446 413 493 413 c 259,36,37
 610 413 610 413 610 329 c 259,38,39
 610 246 610 246 514 147 c 256,40,41
 446 77 446 77 446 43 c 259,42,43
 446 8 446 8 514 8 c 263,44,45
 548 8 548 8 584 32 c 256,46,47
 620 55 620 55 637 55 c 259,48,49
 651 55 651 55 651 37 c 259,50,51
 651 8 651 8 595 -24 c 256,52,53
 501 -78 501 -78 444 -78 c 259,54,55
 343 -78 343 -78 343 30 c 259,56,57
 343 98 343 98 421 181 c 256,58,59
 478 242 478 242 478 302 c 259,60,61
 478 354 478 354 422 354 c 259,62,63
 400 354 400 354 276 302 c 257,64,65
 239 240 239 240 214 188 c 256,66,67
 119 -10 119 -10 88 -10 c 259,0,1
EndSplineSet
Validated: 1
EndChar

StartChar: napostrophe
Encoding: 329 329 150
Width: 680
VWidth: 0
Flags: W
HStem: -10 70<319.914 500.023>
VStem: 189 104<86.2939 311.337> 227 162<404.841 476.5>
LayerCount: 2
Fore
SplineSet
340 555 m 263,0,1
 389 555 389 555 389 480 c 259,2,3
 389 426 389 426 338 356 c 256,4,5
 293 293 293 293 293 161 c 259,6,7
 293 98 293 98 326 77 c 256,8,9
 349 61 349 61 412 60 c 259,10,11
 480 60 480 60 605 129 c 265,12,-1
 621 113 l 257,13,14
 589 72 589 72 544 39 c 256,15,16
 477 -10 477 -10 407 -10 c 259,17,18
 306 -10 306 -10 254 19 c 280,19,20
 189 55 189 55 189 109 c 259,21,22
 189 258 189 258 227 420 c 256,23,24
 241 479 241 479 288 528 c 256,25,26
 315 555 315 555 340 555 c 263,0,1
EndSplineSet
Validated: 1
EndChar

StartChar: eng
Encoding: 331 331 151
Width: 680
VWidth: 0
Flags: W
HStem: -132 122<501.713 571.484>
VStem: 105 122<5.3125 156.187> 277 96<568.699 614.555>
LayerCount: 2
Back
SplineSet
313 629 m 283,0,1
 347 629 347 629 360 615 c 280,2,3
 373 601 373 601 373 557 c 259,4,5
 373 528 373 528 303 325 c 256,6,7
 227 102 227 102 227 59 c 259,8,9
 227 -9 227 -9 148 -10 c 259,10,11
 105 -10 105 -10 105 70 c 283,12,13
 105 108 105 108 200 410 c 280,14,15
 247 558 247 558 277 617 c 280,16,17
 284 629 284 629 313 629 c 283,0,1
612 626 m 283,18,19
 643 626 643 626 657 613 c 280,20,21
 673 599 673 599 673 572 c 283,22,23
 673 538 673 538 643 514 c 256,24,25
 513 422 513 422 376 280 c 257,26,27
 408 140 408 140 452 77 c 256,28,29
 511 -9 511 -9 533 -10 c 259,30,31
 553 -10 553 -10 576 15 c 256,32,33
 592 32 592 32 607 32 c 259,34,35
 639 32 639 32 639 -2 c 283,36,37
 639 -38 639 -38 582 -100 c 280,38,39
 551 -132 551 -132 517 -132 c 283,40,41
 449 -132 449 -132 376 -1 c 256,42,43
 277 183 277 183 263 336 c 257,44,45
 394 477 394 477 571 610 c 256,46,47
 592 626 592 626 612 626 c 283,18,19
EndSplineSet
Fore
SplineSet
612 626 m 259,0,1
 643 626 643 626 657 613 c 256,2,3
 673 599 673 599 673 572 c 259,4,5
 673 538 673 538 643 514 c 256,6,7
 513 422 513 422 376 280 c 257,8,9
 407 143 407 143 452 77 c 256,10,11
 511 -10 511 -10 533 -10 c 259,12,13
 553 -10 553 -10 576 15 c 256,14,15
 592 32 592 32 607 32 c 259,16,17
 639 32 639 32 639 -2 c 259,18,19
 639 -38 639 -38 582 -100 c 256,20,21
 551 -132 551 -132 517 -132 c 259,22,23
 447 -132 447 -132 376 -1 c 256,24,25
 304 131 304 131 277 248 c 257,26,27
 227 94 227 94 227 59 c 259,28,29
 227 -10 227 -10 148 -10 c 259,30,31
 105 -10 105 -10 105 70 c 259,32,33
 105 108 105 108 200 410 c 256,34,35
 247 558 247 558 277 617 c 256,36,37
 284 629 284 629 313 629 c 259,38,39
 347 629 347 629 360 615 c 256,40,41
 373 601 373 601 373 557 c 259,42,43
 373 535 373 535 330.001 405 c 257,44,45
 437.001 510 437.001 510 571 610 c 256,46,47
 592 626 592 626 612 626 c 259,0,1
EndSplineSet
Validated: 1
EndChar

StartChar: Omacron
Encoding: 332 332 153
Width: 680
VWidth: 0
Flags: W
HStem: -10 97<155.5 284.752>
VStem: 106 130<29 158> 344 103<800.547 884.151>
LayerCount: 2
Fore
SplineSet
385 901 m 283,0,1
 417 901 417 901 429 885 c 256,2,3
 447 858 447 858 447 809 c 259,4,5
 447 752 447 752 367 536 c 256,6,7
 236 169 236 169 236 147 c 259,8,9
 236 88 236 88 283 87 c 259,10,11
 303 87 303 87 385 149 c 280,12,13
 466 208 466 208 510 208 c 259,14,15
 528 208 528 208 528 186 c 259,16,17
 528 149 528 149 429 89 c 280,18,19
 267 -10 267 -10 205 -10 c 275,20,21
 106 -10 106 -10 106 68 c 259,22,23
 106 70 106 70 243 527 c 280,24,25
 326 802 326 802 344 885 c 256,26,27
 347 901 347 901 385 901 c 283,0,1
EndSplineSet
Validated: 1
EndChar

StartChar: iogonek
Encoding: 303 303 155
Width: 680
VWidth: 0
Flags: W
HStem: -10 110<152 312.91> 347 120<353.09 514>
VStem: 99 118<50 213.715> 449 118<243.791 407>
LayerCount: 2
Fore
SplineSet
217 163 m 259,0,1
 217 100 217 100 289 100 c 259,2,3
 363 100 363 100 407 154 c 256,4,5
 449 205 449 205 449 284 c 259,6,7
 449 347 449 347 377 347 c 259,8,9
 303 347 303 347 259 293 c 256,10,11
 217 242 217 242 217 163 c 259,0,1
567 347 m 259,12,13
 567 224 567 224 444 103 c 256,14,15
 330 -10 330 -10 205 -10 c 259,16,17
 99 -10 99 -10 99 110 c 259,18,19
 99 233 99 233 222 354 c 256,20,21
 336 467 336 467 461 467 c 259,22,23
 567 467 567 467 567 347 c 259,12,13
EndSplineSet
Validated: 1
EndChar

StartChar: omacron
Encoding: 333 333 166
Width: 680
VWidth: 0
Flags: W
HStem: -20 86<553 693.21> 412 59<293.966 426 570.678 712.5>
VStem: 501 106<26.2539 139.489> 639 132<318.979 404.529>
DStem2: 54 273 114 188 0.479633 0.877469<-259.405 199.393>
LayerCount: 2
Back
SplineSet
471 322 m 256,0,1
 288 -10 288 -10 261 -10 c 259,2,3
 207 -10 207 -10 207 39 c 259,4,5
 207 56 207 56 330 264 c 256,6,7
 359 313 359 313 359 360 c 259,8,9
 359 412 359 412 303 412 c 275,10,11
 281 412 281 412 155 359 c 1,12,13
 155 374 l 1,14,15
 197 398 197 398 262 434 c 264,16,17
 329 471 329 471 374 471 c 267,18,19
 491 471 491 471 491 387 c 259,20,21
 491 359 491 359 471 322 c 256,0,1
435 374 m 1,22,23
 477 398 477 398 542 434 c 264,24,25
 609 471 609 471 654 471 c 267,26,27
 771 471 771 471 771 387 c 259,28,29
 771 331 771 331 684 229 c 272,30,31
 607 138 607 138 607 100 c 259,32,33
 607 66 607 66 675 66 c 259,34,35
 709 66 709 66 745 90 c 280,36,37
 781 113 781 113 798 113 c 259,38,39
 812 113 812 113 812 95 c 275,40,41
 812 66 812 66 756 34 c 280,42,43
 662 -20 662 -20 605 -20 c 259,44,45
 501 -20 501 -20 501 75 c 259,46,47
 501 124 501 124 583 225 c 256,48,49
 639 294 639 294 639 360 c 259,50,51
 639 412 639 412 583 412 c 275,52,53
 561 412 561 412 435 359 c 1,54,55
 435 368 435 368 435 374 c 1,22,23
298 516 m 1,56,57
 285 502 285 502 114 188 c 256,58,59
 6 -10 6 -10 -12 -10 c 259,60,61
 -66 -10 -66 -10 -66 39 c 259,62,63
 -66 76 -66 76 54 273 c 256,64,65
 134 404 134 404 154 447 c 257,66,-1
 84 481 l 1,67,-1
 298 516 l 1,56,57
EndSplineSet
Fore
SplineSet
471 322 m 0,0,1
 295 -10 295 -10 261 -10 c 3,2,3
 207 -10 207 -10 207 39 c 3,4,5
 207 56 207 56 330 264 c 0,6,7
 359 313 359 313 359 360 c 3,8,9
 359 412 359 412 303 412 c 3,10,11
 288 412 288 412 223 387 c 1,12,13
 180 310 180 310 114 188 c 0,14,15
 7 -10 7 -10 -12 -10 c 3,16,17
 -66 -10 -66 -10 -66 39 c 3,18,19
 -66 76 -66 76 54 273 c 0,20,21
 135 406 135 406 154 447 c 1,22,-1
 84 481 l 1,23,-1
 298 516 l 1,24,25
 291 508 291 508 243 424 c 1,26,27
 252 429 252 429 262 434 c 0,28,29
 336 471 336 471 374 471 c 3,30,31
 478 471 478 471 490 405 c 1,32,33
 514 418 514 418 542 434 c 0,34,35
 607 471 607 471 654 471 c 3,36,37
 771 471 771 471 771 387 c 3,38,39
 771 331 771 331 684 229 c 0,40,41
 607 138 607 138 607 100 c 3,42,43
 607 66 607 66 675 66 c 0,44,45
 709 66 709 66 745 90 c 0,46,47
 781 113 781 113 798 113 c 3,48,49
 812 113 812 113 812 95 c 3,50,51
 812 66 812 66 756 34 c 0,52,53
 662 -20 662 -20 605 -20 c 3,54,55
 501 -20 501 -20 501 75 c 3,56,57
 501 124 501 124 583 225 c 0,58,59
 639 294 639 294 639 360 c 3,60,61
 639 412 639 412 583 412 c 3,62,63
 566 412 566 412 491 382 c 1,64,65
 489 356 489 356 471 322 c 0,0,1
EndSplineSet
Validated: 1
EndChar

StartChar: Obreve
Encoding: 334 334 167
Width: 680
VWidth: 0
Flags: W
HStem: -20 86<413 553.21> 412 59<431.659 572.5>
VStem: 361 106<26.2539 137.317> 499 132<318.979 404.529>
DStem2: 154 273 214 188 0.481259 0.876579<-259.395 184.802 187.089 200.651>
LayerCount: 2
Back
SplineSet
398 516 m 1,56,57
 385 502 385 502 214 188 c 256,58,59
 106 -10 106 -10 88 -10 c 259,60,61
 34 -10 34 -10 34 39 c 259,62,63
 34 76 34 76 154 273 c 256,64,65
 234 404 234 404 254 447 c 257,66,-1
 184 481 l 1,67,-1
 398 516 l 1,56,57
217 326 m 281,0,1
 217 332 217 332 402 434 c 280,2,3
 469 471 469 471 514 471 c 267,4,5
 631 471 631 471 631 387 c 259,6,7
 631 331 631 331 544 229 c 272,8,9
 467 138 467 138 467 100 c 259,10,11
 467 66 467 66 535 66 c 259,12,13
 569 66 569 66 605 90 c 280,14,15
 641 113 641 113 658 113 c 259,16,17
 672 113 672 113 672 95 c 275,18,19
 672 66 672 66 616 34 c 280,20,21
 522 -20 522 -20 465 -20 c 259,22,23
 361 -20 361 -20 361 75 c 259,24,25
 361 119 361 119 443 225 c 256,26,27
 499 294 499 294 499 360 c 259,28,29
 499 412 499 412 443 412 c 275,30,31
 415 412 415 412 217 326 c 281,0,1
EndSplineSet
Fore
SplineSet
326 392 m 1,0,1
 359 411 359 411 402 434 c 0,2,3
 469 471 469 471 514 471 c 3,4,5
 631 471 631 471 631 387 c 3,6,7
 631 331 631 331 544 229 c 0,8,9
 467 138 467 138 467 100 c 3,10,11
 467 66 467 66 535 66 c 3,12,13
 569 66 569 66 605 90 c 0,14,15
 641 113 641 113 658 113 c 3,16,17
 672 113 672 113 672 95 c 3,18,19
 672 66 672 66 616 34 c 0,20,21
 522 -20 522 -20 465 -20 c 3,22,23
 361 -20 361 -20 361 75 c 3,24,25
 361 119 361 119 443 225 c 0,26,27
 499 294 499 294 499 360 c 3,28,29
 499 412 499 412 443 412 c 3,30,31
 423 412 423 412 312 366 c 1,32,33
 272 294 272 294 214 188 c 0,34,35
 106 -10 106 -10 88 -10 c 3,36,37
 34 -10 34 -10 34 39 c 3,38,39
 34 76 34 76 154 273 c 0,40,41
 234 404 234 404 254 447 c 1,42,-1
 184 481 l 1,43,-1
 398 516 l 1,44,45
 390 508 390 508 326 392 c 1,0,1
EndSplineSet
Validated: 1
EndChar

StartChar: uni0242
Encoding: 578 578 170
Width: 289
VWidth: 0
Flags: W
HStem: -10 29<75.3578 142.139> 242 29<146.385 213.642>
VStem: 0 63<28.7107 149.493> 226 63<111.507 232.289>
LayerCount: 2
Fore
SplineSet
226 188 m 259,0,1
 226 211 226 211 214 228 c 256,2,3
 204 242 204 242 184 242 c 259,4,5
 158 242 158 242 114 203 c 256,6,7
 63 158 63 158 63 73 c 259,8,9
 63 50 63 50 75 33 c 280,10,11
 85 19 85 19 105 19 c 259,12,13
 129 19 129 19 175 58 c 280,14,15
 226 103 226 103 226 188 c 259,0,1
0 55 m 259,16,17
 0 153 0 153 77 215 c 256,18,19
 147 271 147 271 202 271 c 259,20,21
 245 271 245 271 263 258 c 256,22,23
 289 239 289 239 289 206 c 259,24,25
 289 108 289 108 212 46 c 256,26,27
 142 -10 142 -10 87 -10 c 259,28,29
 44 -10 44 -10 26 3 c 280,30,31
 0 22 0 22 0 55 c 259,16,17
EndSplineSet
Validated: 1
EndChar

StartChar: uni0243
Encoding: 579 579 171
Width: 240
VWidth: 0
Flags: W
HStem: -10 39<56.1741 144.178> 229 33<146.457 202>
VStem: 0 50<33.6177 148.135> 186 54<572.345 813.807> 203 37<97.5 229 259.999 468.821>
LayerCount: 2
Back
SplineSet
213 724 m 275,0,1
 240 724 240 724 240 702 c 282,2,3
 240 89 l 258,4,5
 240 -4 240 -4 206 -51 c 256,6,7
 169 -100 169 -100 118 -100 c 259,8,9
 69 -100 69 -100 39 -77 c 256,10,11
 0 -47 0 -47 0 -16 c 259,12,13
 0 47 0 47 52 99 c 256,14,15
 126 173 126 173 225 173 c 257,16,-1
 224 140 l 257,17,18
 148 140 148 140 94 85 c 256,19,20
 50 41 50 41 50 -15 c 259,21,22
 50 -61 50 -61 97 -61 c 259,23,24
 133 -61 133 -61 169 -17 c 256,25,26
 203 25 203 25 203 74 c 257,27,28
 203 242 203 242 186 703 c 272,29,30
 186 724 186 724 213 724 c 275,0,1
EndSplineSet
Fore
SplineSet
213 814 m 259,0,1
 240 814 240 814 240 792 c 258,2,-1
 240 179 l 258,3,4
 240 86 240 86 206 39 c 256,5,6
 169 -10 169 -10 118 -10 c 259,7,8
 69 -10 69 -10 39 13 c 256,9,10
 0 43 0 43 0 74 c 259,11,12
 0 137 0 137 52 189 c 256,13,14
 117 254 117 254 202 262 c 257,15,16
 198 443 198 443 186 793 c 257,17,18
 186 814 186 814 213 814 c 259,0,1
203 229 m 257,19,20
 141 222 141 222 94 175 c 256,21,22
 50 131 50 131 50 75 c 259,23,24
 50 29 50 29 97 29 c 259,25,26
 133 29 133 29 169 73 c 256,27,28
 203 115 203 115 203 164 c 259,29,30
 203 192 203 192 203 229 c 257,19,20
EndSplineSet
Validated: 1
EndChar

StartChar: uni0244
Encoding: 580 580 172
Width: 230
VWidth: 0
Flags: MW
VStem: 0 212<45.8354 157.234> 170 42<276.855 375.623> 172 58<510.377 785.646>
LayerCount: 2
Fore
SplineSet
200 786 m 3,0,1
 225 786 225 786 230 774 c 1,2,3
 212 112 l 17,4,5
 212 61 212 61 158 8 c 24,6,7
 140 -10 140 -10 88 -10 c 19,8,9
 52 -10 52 -10 32 8 c 24,10,11
 0 37 0 37 0 72 c 3,12,13
 0 143 0 143 55 205 c 24,14,15
 118 274 118 274 170 282 c 1,16,-1
 172 773 l 25,17,18
 172 786 172 786 200 786 c 3,0,1
EndSplineSet
Validated: 1
EndChar

StartChar: uni0245
Encoding: 581 581 173
Width: 230
VWidth: 0
Flags: MW
VStem: 0 212<45.5718 157.234> 170 42<276.855 432.171> 172 52<595.829 648 774 785.844>
LayerCount: 2
Fore
SplineSet
200 786 m 3,0,1
 225 786 225 786 230 774 c 0,2,-1
 438 326 l 1,3,-1
 224 648 l 1,4,-1
 212 112 l 1,5,6
 212 60 212 60 158 8 c 0,7,8
 139 -10 139 -10 88 -10 c 3,9,10
 52 -10 52 -10 32 8 c 0,11,12
 0 37 0 37 0 72 c 3,13,14
 0 143 0 143 55 205 c 0,15,16
 118 274 118 274 170 282 c 1,17,-1
 172 773 l 2,18,19
 172 786 172 786 200 786 c 3,0,1
EndSplineSet
Validated: 1
EndChar

StartChar: uni0246
Encoding: 582 582 174
Width: 230
VWidth: 0
Flags: MW
HStem: 543 40<327 386.491> 726 60<219 278.196>
VStem: 0 212<45.8354 158.172> 170 42<276.855 726> 309 31<583.147 686.354> 442 34<360.914 490.598>
LayerCount: 2
Fore
SplineSet
200 786 m 259,0,1
 275 786 275 786 303 754 c 280,2,3
 340 711 340 711 340 675 c 259,4,5
 340 635 340 635 327 583 c 257,6,7
 407 583 407 583 442 542 c 256,8,9
 476 502 476 502 476 440 c 259,10,11
 476 355 476 355 423 322 c 257,12,13
 442 371 442 371 442 436 c 259,14,15
 442 487 442 487 399 516 c 256,16,17
 359 543 359 543 293 543 c 257,18,19
 309 575 309 575 309 612 c 259,20,21
 309 678 309 678 281 702 c 256,22,23
 253 726 253 726 219 726 c 257,24,-1
 212 112 l 257,25,26
 212 61 212 61 158 8 c 280,27,28
 140 -10 140 -10 88 -10 c 275,29,30
 52 -10 52 -10 32 8 c 280,31,32
 0 37 0 37 0 72 c 259,33,34
 0 145 0 145 55 205 c 280,35,36
 118 274 118 274 170 282 c 257,37,-1
 172 773 l 281,38,39
 172 786 172 786 200 786 c 259,0,1
EndSplineSet
Validated: 1
EndChar

StartChar: uni024C
Encoding: 588 588 175
Width: 184
VWidth: 0
Flags: W
HStem: 90 86<95.4158 176.584>
VStem: 88 96<98.2065 167.793>
LayerCount: 2
Fore
SplineSet
88 133 m 128,-1,1
 88 148 88 148 103 162 c 128,-1,2
 118 176 118 176 136 176 c 128,-1,3
 154 176 154 176 169 162 c 128,-1,4
 184 148 184 148 184 133 c 128,-1,5
 184 118 184 118 169 104 c 128,-1,6
 154 90 154 90 136 90 c 128,-1,7
 118 90 118 90 103 104 c 128,-1,0
 88 118 88 118 88 133 c 128,-1,1
EndSplineSet
Validated: 1
EndChar

StartChar: uni0247
Encoding: 583 583 176
Width: 230
VWidth: 0
Flags: MW
HStem: 322 40<352 393> 543 40<321 358.886> 726 60<219 278.186>
VStem: 0 212<45.8949 158.172> 170 42<276.855 726> 308 30<583.631 688.279> 390 34<388.544 505.08> 442 34<160.687 291.857>
LayerCount: 2
Fore
SplineSet
352 322 m 257,0,1
 390 420 390 420 390 452 c 259,2,3
 390 484 390 484 366 516 c 256,4,5
 346 543 346 543 273 543 c 257,6,7
 308 595 308 595 308 640 c 259,8,9
 308 678 308 678 281 702 c 256,10,11
 253 726 253 726 219 726 c 257,12,-1
 212 112 l 257,13,14
 212 61 212 61 158 8 c 280,15,16
 140 -10 140 -10 88 -10 c 275,17,18
 52 -10 52 -10 32 8 c 280,19,20
 0 37 0 37 0 72 c 259,21,22
 0 145 0 145 55 205 c 280,23,24
 118 274 118 274 170 282 c 257,25,-1
 172 773 l 281,26,27
 172 786 172 786 200 786 c 259,28,29
 278 786 278 786 303 754 c 256,30,31
 338 710 338 710 338 664 c 259,32,33
 338 608 338 608 321 583 c 257,34,35
 380 583 380 583 404 547 c 256,36,37
 424 518 424 518 424 468 c 259,38,39
 424 411 424 411 393 362 c 257,40,41
 426 362 426 362 450 334 c 256,42,43
 476 304 476 304 476 233 c 259,44,45
 476 146 476 146 403 101 c 257,46,47
 442 154 442 154 442 226 c 259,48,49
 442 278 442 278 418 300 c 256,50,51
 394 322 394 322 352 322 c 257,0,1
EndSplineSet
Validated: 1
EndChar

StartChar: uni0248
Encoding: 584 584 177
Width: 230
VWidth: 0
Flags: W
HStem: 726 60<219 290.188>
VStem: 170 42<276.855 726> 307 52<580.447 708.705> 359 52<397.572 511.339> 407 52<216.572 330.339> 457 44<28.771 143.206>
LayerCount: 2
Back
SplineSet
195 803 m 1,0,-1
 413 0 l 1,1,-1
 526 83 l 5,2,-1
 308 816 l 1
352 322 m 257,0,1
 390 420 390 420 390 452 c 259,2,3
 390 484 390 484 366 516 c 256,4,5
 346 543 346 543 273 543 c 257,6,7
 308 595 308 595 308 640 c 259,8,9
 308 678 308 678 281 702 c 256,10,11
 253 726 253 726 219 726 c 257,12,-1
 212 112 l 257,13,14
 212 61 212 61 158 8 c 280,15,16
 140 -10 140 -10 88 -10 c 275,17,18
 52 -10 52 -10 32 8 c 280,19,20
 0 37 0 37 0 72 c 259,21,22
 0 145 0 145 55 205 c 280,23,24
 118 274 118 274 170 282 c 257,25,-1
 172 773 l 281,26,27
 172 786 172 786 200 786 c 259,28,29
 278 786 278 786 303 754 c 256,30,31
 338 710 338 710 338 664 c 259,32,33
 338 608 338 608 321 583 c 257,34,35
 380 583 380 583 404 547 c 256,36,37
 424 518 424 518 424 468 c 259,38,39
 424 411 424 411 393 362 c 257,40,41
 426 362 426 362 450 334 c 256,42,43
 476 304 476 304 476 233 c 259,44,45
 476 146 476 146 403 101 c 257,46,47
 442 154 442 154 442 226 c 259,48,49
 442 278 442 278 418 300 c 256,50,51
 394 322 394 322 352 322 c 257,0,1
EndSplineSet
Fore
SplineSet
363 180 m 257,0,1
 407 215 407 215 407 274 c 259,2,3
 407 310 407 310 381 334 c 256,4,5
 354 360 354 360 315 361 c 257,6,7
 359 396 359 396 359 455 c 259,8,9
 359 491 359 491 333 515 c 256,10,11
 306 541 306 541 267 542 c 257,12,13
 307 595 307 595 307 654 c 259,14,15
 307 696 307 696 280 712 c 256,16,17
 256 726 256 726 219 726 c 257,18,-1
 212 112 l 257,19,20
 212 61 212 61 158 8 c 280,21,22
 140 -10 140 -10 88 -10 c 275,23,24
 52 -10 52 -10 32 8 c 280,25,26
 0 37 0 37 0 72 c 259,27,28
 0 145 0 145 55 205 c 280,29,30
 118 274 118 274 170 282 c 257,31,-1
 172 773 l 281,32,33
 172 786 172 786 200 786 c 259,34,35
 262 786 262 786 308 756 c 256,36,37
 359 724 359 724 359 661 c 259,38,39
 359 603 359 603 327 567 c 257,40,41
 363 567 363 567 385 543 c 256,42,43
 411 513 411 513 411 462 c 259,44,45
 411 409 411 409 375 386 c 257,46,47
 411 386 411 386 433 362 c 256,48,49
 459 332 459 332 459 281 c 259,50,51
 459 228 459 228 423 205 c 257,52,53
 454 202 454 202 476 172 c 256,54,55
 501 138 501 138 501 84 c 259,56,57
 501 18 501 18 414 -6 c 257,58,59
 457 33 457 33 457 84 c 259,60,61
 457 124 457 124 439 142 c 256,62,63
 416 165 416 165 363 180 c 257,0,1
EndSplineSet
Validated: 1
EndChar

StartChar: Kcommaaccent
Encoding: 310 310 180
Width: 289
VWidth: 0
Flags: W
DStem2: 0 139 43 125 0.61751 0.786563<15.5411 851.021>
LayerCount: 2
Fore
SplineSet
0 139 m 1,0,-1
 526 808 l 1,1,-1
 569 795 l 1,2,-1
 43 125 l 1,3,-1
 0 139 l 1,0,-1
EndSplineSet
Validated: 1
EndChar

StartChar: scaron
Encoding: 353 353 198
Width: 680
VWidth: 0
Flags: W
HStem: -64 36<202.882 334.998> 232 49<258.391 468.517>
VStem: 68 108<-6.64099 150.286> 480 87<266.25 303> 514 93<-50.0059 64.3164>
LayerCount: 2
Back
SplineSet
480 326 m 257,0,1
 567 303 l 257,2,3
 567 120 567 120 607 -47 c 257,4,-1
 514 -86 l 257,5,6
 480 114 480 114 480 326 c 257,0,1
500 271 m 257,7,8
 488 109 488 109 429 32 c 256,9,10
 356 -64 356 -64 260 -64 c 259,11,12
 156 -64 156 -64 108 -28 c 256,13,14
 68 2 68 2 68 75 c 259,15,16
 68 151 68 151 151 216 c 280,17,18
 234 281 234 281 353 281 c 259,19,20
 464 281 464 281 500 255 c 257,21,-1
 504 201 l 257,22,23
 408 232 408 232 345 232 c 259,24,25
 271 232 271 232 220 182 c 0,26,27
 176 139 176 139 176 62 c 259,28,29
 176 -28 176 -28 260 -28 c 259,30,31
 357 -28 357 -28 420 72 c 256,32,33
 471 153 471 153 484 320 c 257,34,-1
 500 271 l 257,7,8
EndSplineSet
Fore
SplineSet
480 326 m 257,0,-1
 567 303 l 257,1,2
 567 120 567 120 607 -47 c 257,3,-1
 514 -86 l 257,4,5
 493 37 493 37 485 164 c 257,6,7
 466 81 466 81 429 32 c 256,8,9
 356 -64 356 -64 260 -64 c 259,10,11
 156 -64 156 -64 108 -28 c 256,12,13
 68 2 68 2 68 75 c 259,14,15
 68 151 68 151 151 216 c 256,16,17
 234 281 234 281 353 281 c 259,18,19
 437 281 437 281 479 266 c 257,20,21
 480 274 480 274 480 282 c 256,22,23
 480 304 480 304 480 326 c 257,0,-1
470 211 m 257,24,25
 397 232 397 232 345 232 c 259,26,27
 271 232 271 232 220 182 c 256,28,29
 176 139 176 139 176 62 c 259,30,31
 176 -28 176 -28 260 -28 c 259,32,33
 357 -28 357 -28 420 72 c 256,34,35
 453 124 453 124 470 211 c 257,24,25
EndSplineSet
Validated: 1
EndChar

StartChar: Tcommaaccent
Encoding: 354 354 199
Width: 680
VWidth: 0
Flags: W
HStem: -130 29<295.785 444.93> 207 38<286.262 450.577>
VStem: 173 67<-60.1055 86.6045> 524 82<-41.1823 134.926>
LayerCount: 2
Back
SplineSet
94 517 m 265,0,-1
 240 579 l 281,1,-1
 240 15 l 274,2,3
 240 -101 240 -101 370 -101 c 259,4,5
 453 -101 453 -101 496 -49 c 256,6,7
 524 -15 524 -15 524 55 c 259,8,9
 524 110 524 110 487 157 c 256,10,11
 448 207 448 207 374 207 c 259,12,13
 278 207 278 207 209 130 c 257,14,-1
 199 188 l 257,15,16
 301 245 301 245 388 245 c 259,17,18
 508 245 508 245 558 199 c 256,19,20
 606 155 606 155 606 59 c 259,21,22
 606 -40 606 -40 549 -84 c 256,23,24
 489 -130 489 -130 377 -130 c 259,25,26
 270 -130 270 -130 249 -109 c 257,27,-1
 173 -140 l 281,28,29
 162 431 162 431 94 517 c 265,0,-1
EndSplineSet
Fore
SplineSet
94 517 m 1,0,-1
 240 579 l 1,1,-1
 240 209 l 1,2,3
 319 245 319 245 388 245 c 3,4,5
 508 245 508 245 558 199 c 0,6,7
 606 155 606 155 606 59 c 3,8,9
 606 -40 606 -40 549 -84 c 0,10,11
 489 -130 489 -130 377 -130 c 3,12,13
 270 -130 270 -130 249 -109 c 1,14,-1
 173 -140 l 1,15,16
 162 431 162 431 94 517 c 1,0,-1
240 160 m 1,17,-1
 240 15 l 2,18,19
 240 -101 240 -101 370 -101 c 3,20,21
 453 -101 453 -101 496 -49 c 0,22,23
 524 -15 524 -15 524 55 c 3,24,25
 524 110 524 110 487 157 c 0,26,27
 448 207 448 207 374 207 c 3,28,29
 299 207 299 207 240 160 c 1,17,-1
EndSplineSet
Validated: 1
EndChar

StartChar: tcommaaccent
Encoding: 355 355 200
Width: 680
VWidth: 0
Flags: W
HStem: -49 64<310.564 341.984> 255 17<87 103.652>
VStem: 180 113<45.2644 248.812>
LayerCount: 2
Fore
SplineSet
87 272 m 17,0,1
 194 321 194 321 290 419 c 25,2,-1
 335 399 l 25,3,-1
 530 388 l 25,4,-1
 479 309 l 1,5,6
 466 359 466 359 384 359 c 3,7,8
 293 359 293 359 293 292 c 3,9,10
 293 16 293 16 327 15 c 9,11,12
 443 76 443 76 462 109 c 1,13,14
 480 109 480 109 493 100 c 25,15,16
 345 -49 345 -49 284 -49 c 11,17,18
 185 -49 185 -49 180 244 c 9,19,20
 139 255 139 255 87 255 c 9,21,-1
 87 272 l 17,0,1
EndSplineSet
Validated: 1
EndChar

StartChar: Tcaron
Encoding: 356 356 201
Width: 680
VWidth: 0
Flags: W
HStem: -110 75<246.188 396.099>
VStem: 129 45<42.1694 219.079> 470 72<36.0319 174.766>
LayerCount: 2
Back
SplineSet
-280 509 m 257,0,1
 247 385 247 385 426 282 c 256,2,3
 542 215 542 215 542 116 c 259,4,5
 542 18 542 18 490 -47 c 256,6,7
 439 -110 439 -110 342 -110 c 259,8,9
 248 -110 248 -110 194 -60 c 256,10,11
 129 2 129 2 129 136 c 259,12,13
 129 263 129 263 249 324 c 257,14,-1
 318 307 l 257,15,16
 174 248 174 248 174 146 c 259,17,18
 174 62 174 62 215 14 c 256,19,20
 258 -35 258 -35 324 -35 c 259,21,22
 381 -35 381 -35 433 17 c 0,23,24
 470 54 470 54 470 112 c 259,25,26
 470 189 470 189 356 242 c 256,27,28
 167 330 167 330 -286 390 c 257,29,-1
 -280 509 l 257,0,1
EndSplineSet
Fore
SplineSet
-280 509 m 1,0,1
 247 385 247 385 426 282 c 0,2,3
 542 215 542 215 542 116 c 3,4,5
 542 18 542 18 490 -47 c 0,6,7
 439 -110 439 -110 342 -110 c 3,8,9
 248 -110 248 -110 194 -60 c 0,10,11
 129 2 129 2 129 136 c 3,12,13
 129 237 129 237 205 296 c 1,14,15
 20 349 20 349 -286 390 c 1,16,-1
 -280 509 l 1,0,1
261 279 m 1,17,18
 174 226 174 226 174 146 c 3,19,20
 174 62 174 62 215 14 c 0,21,22
 258 -35 258 -35 324 -35 c 3,23,24
 381 -35 381 -35 433 17 c 0,25,26
 470 54 470 54 470 112 c 3,27,28
 470 189 470 189 356 242 c 0,29,30
 314 261 314 261 261 279 c 1,17,18
EndSplineSet
Validated: 1
EndChar

StartChar: tcaron
Encoding: 357 357 202
Width: 680
VWidth: 0
Flags: W
HStem: -72 86<239.784 347.246> 244 62<340.79 433.414>
VStem: 118 95<41.0469 198.34> 209 119<354.032 442.719>
LayerCount: 2
Back
SplineSet
247 388 m 281,0,-1
 290 317 l 257,1,2
 213 181 213 181 213 110 c 259,3,4
 213 14 213 14 312 14 c 259,5,6
 402 14 402 14 546 171 c 257,7,8
 563 171 563 171 569 154 c 257,9,10
 486 47 486 47 421 -3 c 280,11,12
 331 -72 331 -72 265 -72 c 259,13,14
 207 -72 207 -72 162 -24 c 280,15,16
 118 23 118 23 118 86 c 259,17,18
 118 213 118 213 247 388 c 281,0,-1
345 500 m 257,19,20
 328 464 328 464 328 394 c 259,21,22
 328 306 328 306 379 306 c 259,23,24
 457 306 457 306 543 400 c 257,25,26
 560 396 560 396 566 379 c 257,27,28
 554 344 554 344 479 292 c 256,29,30
 407.288 244 407.288 244 349 244 c 259,31,32
 293 244 293 244 250 303 c 256,33,34
 209 358 209 358 209 422 c 257,35,36
 262 481 262 481 345 500 c 257,19,20
EndSplineSet
Fore
SplineSet
345 500 m 1,0,1
 328 464 328 464 328 394 c 3,2,3
 328 306 328 306 379 306 c 3,4,5
 457 306 457 306 543 400 c 1,6,7
 560 396 560 396 566 379 c 1,8,9
 554 344 554 344 479 292 c 0,10,11
 407 244 407 244 349 244 c 3,12,13
 305 244 305 244 270 280 c 1,14,15
 213 171 213 171 213 110 c 3,16,17
 213 14 213 14 312 14 c 3,18,19
 402 14 402 14 546 171 c 1,20,21
 563 171 563 171 569 154 c 1,22,23
 486 47 486 47 421 -3 c 0,24,25
 331 -72 331 -72 265 -72 c 3,26,27
 207 -72 207 -72 162 -24 c 0,28,29
 118 23 118 23 118 86 c 3,30,31
 118 200 118 200 222 353 c 1,32,33
 209 386 209 386 209 422 c 1,34,35
 262 481 262 481 345 500 c 1,0,1
EndSplineSet
Validated: 1
EndChar

StartChar: Tbar
Encoding: 358 358 203
Width: 680
VWidth: 0
Flags: W
HStem: 529 87<313.767 442.128>
VStem: 190 80<262.714 487.857> 262 84<-178.522 113.53> 460 68<386.494 511.174>
DStem2: 81 136 98 99 0.992814 0.11967<12.4501 148.971 244.148 445.8>
LayerCount: 2
Back
SplineSet
524 186 m 281,0,-1
 546 153 l 281,1,-1
 98 99 l 281,2,-1
 81 136 l 281,3,-1
 524 186 l 281,0,-1
272 253 m 257,4,5
 350 275 350 275 407 325 c 256,6,7
 460 370 460 370 460 435 c 259,8,9
 460 493 460 493 438 511 c 256,10,11
 416 529 416 529 376 529 c 259,12,13
 270 529 270 529 270 419 c 259,14,15
 270 333 270 333 306 212 c 256,16,17
 346 74 346 74 346 -15 c 259,18,19
 346 -48 346 -48 330 -176 c 257,20,21
 329 -200 329 -200 302 -200 c 257,22,23
 277 -200 277 -200 273 -180 c 257,24,25
 263 -133 263 -133 262 -47 c 256,26,27
 262 55 262 55 230 150 c 256,28,29
 190 269 190 269 190 371 c 259,30,31
 190 484 190 484 253 547 c 256,32,33
 321 616 321 616 397 616 c 259,34,35
 473 616 473 616 501 581 c 256,36,37
 528 547 528 547 528 483 c 259,38,39
 528 381 528 381 442 305 c 256,40,41
 366 237 366 237 281 222 c 257,42,-1
 272 253 l 257,4,5
EndSplineSet
Fore
SplineSet
524 186 m 257,0,-1
 546 153 l 257,1,-1
 328 127 l 257,2,3
 346 45 346 45 346 -15 c 259,4,5
 346 -48 346 -48 330 -176 c 256,6,7
 329 -200 329 -200 302 -200 c 259,8,9
 278 -200 278 -200 273 -180 c 256,10,11
 262 -133 262 -133 262 -47 c 259,12,13
 262 37 262 37 240 116 c 257,14,-1
 98 99 l 257,15,-1
 81 136 l 257,16,-1
 229 153 l 257,17,18
 190 270 190 270 190 371 c 259,19,20
 190 484 190 484 253 547 c 256,21,22
 321 616 321 616 397 616 c 259,23,24
 473 616 473 616 501 581 c 256,25,26
 528 547 528 547 528 483 c 259,27,28
 528 381 528 381 442 305 c 256,29,30
 375 245 375 245 302 226 c 257,31,32
 304 219 304 219 306 212 c 256,33,34
 313 187 313 187 319 163 c 257,35,-1
 524 186 l 257,0,-1
293 260 m 257,36,37
 358 282 358 282 407 325 c 256,38,39
 460 370 460 370 460 435 c 259,40,41
 460 493 460 493 438 511 c 256,42,43
 416 529 416 529 376 529 c 259,44,45
 270 529 270 529 270 419 c 259,46,47
 270 351 270 351 293 260 c 257,36,37
EndSplineSet
Validated: 1
EndChar

StartChar: tbar
Encoding: 359 359 204
Width: 680
VWidth: 0
Flags: MW
HStem: -167 66<255.077 429.934> -48 60<-0.0294189 123.402> 208 79<276.506 365.18> 341 39<462.605 535> 477 51<285.903 447.501>
VStem: 184 77<301.026 452.5>
LayerCount: 2
Back
SplineSet
572 487 m 265,0,-1
 548 448 l 257,1,2
 413 477 413 477 351 477 c 259,3,4
 261 477 261 477 261 380 c 259,5,6
 261 287 261 287 319 287 c 259,7,8
 363 287 363 287 402 326 c 256,9,10
 456 380 456 380 489 380 c 259,11,12
 531 380 531 380 577 373 c 281,13,-1
 574 324 l 281,14,15
 529 341 529 341 503 341 c 259,16,17
 475 341 475 341 419 280 c 280,18,19
 353 208 353 208 314 208 c 259,20,21
 258 208 258 208 224 253 c 256,22,23
 184 305 184 305 184 391 c 259,24,25
 184 460 184 460 227 498 c 256,26,27
 261 528 261 528 327 528 c 259,28,29
 389 528 389 528 461 501 c 256,30,31
 498 487 498 487 572 487 c 265,0,-1
-100 -111 m 1,32,33
 1 12 1 12 52 12 c 259,34,35
 114 12 114 12 186 -39 c 256,36,37
 272 -101 272 -101 350 -101 c 259,38,39
 429 -101 429 -101 474 -36 c 256,40,41
 518 27 518 27 537 191 c 256,42,-1
 534 538 l 257,43,-1
 709 497 l 273,44,45
 660 477 660 477 641 422 c 257,46,-1
 613 73 l 256,47,48
 589 -48 589 -48 532 -95 c 256,49,50
 446 -167 446 -167 352 -167 c 259,51,52
 248 -167 248 -167 149 -88 c 256,53,54
 99 -48 99 -48 49 -48 c 259,55,56
 0 -48 0 -48 -72 -133 c 257,57,58
 -88 -133 -88 -133 -102 -132 c 1,59,-1
 -100 -111 l 1,32,33
EndSplineSet
Fore
SplineSet
-100 -111 m 1,0,1
 1 12 1 12 52 12 c 3,2,3
 114 12 114 12 186 -39 c 0,4,5
 272 -101 272 -101 350 -101 c 3,6,7
 429 -101 429 -101 474 -36 c 0,8,9
 518 27 518 27 537 191 c 1,10,-1
 536 336 l 1,11,12
 517 341 517 341 503 341 c 3,13,14
 475 341 475 341 419 280 c 0,15,16
 353 208 353 208 314 208 c 3,17,18
 258 208 258 208 224 253 c 0,19,20
 184 305 184 305 184 391 c 3,21,22
 184 460 184 460 227 498 c 0,23,24
 261 528 261 528 327 528 c 3,25,26
 389 528 389 528 461 501 c 0,27,28
 488 491 488 491 534 488 c 1,29,-1
 534 538 l 1,30,-1
 709 497 l 1,31,32
 660 477 660 477 641 422 c 1,33,-1
 613 73 l 1,34,35
 589 -48 589 -48 532 -95 c 0,36,37
 446 -167 446 -167 352 -167 c 3,38,39
 248 -167 248 -167 149 -88 c 0,40,41
 99 -48 99 -48 49 -48 c 3,42,43
 0 -48 0 -48 -72 -133 c 1,44,45
 -88 -133 -88 -133 -102 -132 c 1,46,-1
 -100 -111 l 1,0,1
535 378 m 1,47,-1
 535 451 l 1,48,49
 410 477 410 477 351 477 c 3,50,51
 261 477 261 477 261 380 c 3,52,53
 261 287 261 287 319 287 c 3,54,55
 363 287 363 287 402 326 c 0,56,57
 456 380 456 380 489 380 c 3,58,59
 511 380 511 380 535 378 c 1,47,-1
EndSplineSet
Validated: 1
EndChar

StartChar: Utilde
Encoding: 360 360 205
Width: 680
VWidth: 0
Flags: W
HStem: 82 94<374.864 499.081> 492 88<247.977 395.895>
VStem: 76 87<-4.05737 107 141.891 147.375 182 364.961> 421 101<382.98 467.229> 525 78<-66.6217 55.7457>
DStem2: -131 79 -129 45 0.948542 0.31665<0 206.163>
LayerCount: 2
Back
SplineSet
-129 45 m 257,0,-1
 -131 79 l 257,1,2
 164 175 164 175 275 231 c 256,3,4
 421 305.723 421 305.723 421 408 c 259,5,6
 421 492 421 492 315 492 c 259,7,8
 250 492 250 492 205 423 c 256,9,10
 163 360 163 360 163 203 c 259,11,12
 163 78 163 78 180 -6 c 257,13,14
 360 176 360 176 445 176 c 259,15,16
 528 176 528 176 566 137 c 256,17,18
 603 99 603 99 603 18 c 259,19,20
 603 -86 603 -86 449 -234 c 257,21,22
 426 -230 426 -230 423 -206 c 281,23,24
 525 -97 525 -97 525 -17 c 259,25,26
 525 82 525 82 434 82 c 275,27,28
 338 82 338 82 246 -11 c 256,29,30
 106 -152 106 -152 99 -152 c 256,31,32
 92 -152 92 -152 88 -113 c 280,33,34
 76 -9 76 -9 76 223 c 259,35,36
 76 352 76 352 144 471 c 256,37,38
 207 580 207 580 334 580 c 259,39,40
 434 580 434 580 474 546 c 256,41,42
 522 505 522 505 522 459 c 259,43,44
 522 377 522 377 411 273 c 256,45,46
 289 159 289 159 -129 45 c 257,0,-1
EndSplineSet
Fore
SplineSet
-129 45 m 257,0,-1
 -131 79 l 257,1,2
 -12 118 -12 118 76 150 c 257,3,4
 76 185 76 185 76 223 c 259,5,6
 76 352 76 352 144 471 c 256,7,8
 207 580 207 580 334 580 c 259,9,10
 434 580 434 580 474 546 c 256,11,12
 522 505 522 505 522 459 c 259,13,14
 522 377 522 377 411 273 c 256,15,16
 339 206 339 206 164 139 c 257,17,18
 167 56 167 56 180 -6 c 257,19,20
 360 176 360 176 445 176 c 259,21,22
 528 176 528 176 566 137 c 256,23,24
 603 99 603 99 603 18 c 259,25,26
 603 -86 603 -86 449 -234 c 257,27,28
 426 -230 426 -230 423 -206 c 257,29,30
 525 -97 525 -97 525 -17 c 259,31,32
 525 82 525 82 434 82 c 259,33,34
 338 82 338 82 246 -11 c 256,35,36
 106 -152 106 -152 99 -152 c 259,37,38
 92 -152 92 -152 88 -113 c 256,39,40
 79 -37 79 -37 77 107 c 257,41,42
 -15 76 -15 76 -129 45 c 257,0,-1
163 182 m 257,43,44
 232 209 232 209 275 231 c 256,45,46
 421 306 421 306 421 408 c 259,47,48
 421 492 421 492 315 492 c 259,49,50
 250 492 250 492 205 423 c 256,51,52
 163 360 163 360 163 203 c 259,53,54
 163 192 163 192 163 182 c 257,43,44
EndSplineSet
Validated: 1
EndChar

StartChar: utilde
Encoding: 361 361 206
Width: 680
VWidth: 0
Flags: W
HStem: 353 127<289.021 345.453>
VStem: 256 100<384.097 474.822> 259 121<60.6201 181>
LayerCount: 2
Fore
SplineSet
256 440 m 259,0,1
 256 479 256 479 308 480 c 256,2,3
 356 480 356 480 356 432 c 259,4,5
 356 393 356 393 336 353 c 257,6,7
 305 359 305 359 278 384 c 256,8,9
 256 406 256 406 256 440 c 259,0,1
140 209 m 257,10,11
 252 269 252 269 380 311 c 257,12,13
 379 186 379 186 353 32 c 257,14,15
 448 76 448 76 558 144 c 257,16,17
 563 131 563 131 563 116 c 257,18,19
 438 6 438 6 253 -87 c 273,20,21
 254 62 254 62 259 181 c 273,22,23
 196 181 196 181 143 167 c 257,24,25
 140 186 140 186 140 209 c 257,10,11
EndSplineSet
Validated: 1
EndChar

StartChar: Umacron
Encoding: 362 362 207
Width: 680
VWidth: 0
Flags: W
HStem: -146 37<290.692 378.456> -45 20G<431.5 447> 152 32<271.04 392.621> 295 49<241.532 349.088> 571 37<313.464 446.931>
VStem: 167 63<345.418 437.21> 172 104<-84.895 30 70 165> 437 80<220.188 339.133> 462 84<444.805 558.688>
DStem2: 73 47 73 20 0.993884 0.110432<0 98.5049 204.298 404.069> 194 -86 211 -111 0.508254 0.861207<-70.6896 -12.8899>
LayerCount: 2
Back
SplineSet
158 -147 m 1,0,-1
 211 -58 l 1,1,-1
 232 -76 l 1,2,-1
 182 -161 l 1,3,-1
 158 -147 l 1,0,-1
73 47 m 281,4,-1
 478 92 l 281,5,-1
 478 61 l 281,6,-1
 73 20 l 281,7,-1
 73 47 l 281,4,-1
394 369 m 257,8,9
 471 369 471 369 491 353 c 256,10,11
 517 331 517 331 517 287 c 259,12,13
 517 237 517 237 478 196 c 0,14,15
 436 152 436 152 371 152 c 259,16,17
 320 152 320 152 256 169 c 257,18,-1
 241 200 l 257,19,20
 300 184 300 184 340 184 c 259,21,22
 388 184 388 184 417 223 c 256,23,24
 437 250 437 250 437 301 c 259,25,26
 437 337 437 337 385 352 c 257,27,-1
 394 369 l 257,8,9
438 -25 m 257,28,29
 456 -28 456 -28 458 -46 c 257,30,31
 448 -78 448 -78 413 -109 c 280,32,33
 371 -146 371 -146 316 -146 c 259,34,35
 250 -146 250 -146 207 -107 c 280,36,37
 167 -71 167 -71 167 239 c 259,38,39
 167 446 167 446 232 529 c 256,40,41
 294 608 294 608 384 608 c 259,42,43
 478 608 478 608 511 592 c 256,44,45
 546 574 546 574 546 514 c 259,46,47
 546 447 546 447 465 380 c 256,48,49
 373 304 373 304 227 294 c 257,50,-1
 216 348 l 257,51,52
 254 344 254 344 306 344 c 259,53,54
 363 344 363 344 415 398 c 256,55,56
 462 447 462 447 462 516 c 259,57,58
 462 571 462 571 383 571 c 259,59,60
 312 571 312 571 275 515 c 256,61,62
 230 445 230 445 230 364 c 259,63,64
 230 331 230 331 256 235 c 0,65,66
 276 159 276 159 276 81 c 259,67,68
 276 -92 276 -92 299 -101 c 256,69,70
 319 -109 319 -109 338 -109 c 259,71,72
 370 -109 370 -109 399 -67 c 256,73,74
 425 -29 425 -29 438 -25 c 257,28,29
EndSplineSet
Fore
SplineSet
438 -25 m 257,0,1
 456 -28 456 -28 458 -46 c 257,2,3
 448 -78 448 -78 413 -109 c 256,4,5
 371 -146 371 -146 316 -146 c 259,6,7
 253 -146 253 -146 211 -111 c 257,8,-1
 182 -161 l 257,9,-1
 158 -147 l 257,10,-1
 194 -86 l 257,11,12
 180 -51 180 -51 174 30 c 257,13,-1
 73 20 l 257,14,-1
 73 47 l 257,15,-1
 172 58 l 257,16,17
 167 132 167 132 167 239 c 259,18,19
 167 446 167 446 232 529 c 256,20,21
 294 608 294 608 384 608 c 259,22,23
 478 608 478 608 511 592 c 256,24,25
 546 574 546 574 546 514 c 259,26,27
 546 447 546 447 465 380 c 256,28,29
 456 373 456 373 447 366 c 257,30,31
 479 362 479 362 491 353 c 256,32,33
 517 331 517 331 517 287 c 259,34,35
 517 237 517 237 478 196 c 256,36,37
 436 152 436 152 371 152 c 259,38,39
 326 152 326 152 270 165 c 257,40,41
 276 123 276 123 276 81 c 256,42,43
 276 75 276 75 276 70 c 257,44,-1
 478 92 l 257,45,-1
 478 61 l 257,46,-1
 276 41 l 257,47,48
 278 -93 278 -93 298 -101 c 256,49,50
 319 -109 319 -109 338 -109 c 259,51,52
 370 -109 370 -109 399 -67 c 256,53,54
 425 -29 425 -29 438 -25 c 257,0,1
231 347 m 257,55,56
 264 344 264 344 306 344 c 259,57,58
 363 344 363 344 415 398 c 256,59,60
 462 447 462 447 462 516 c 259,61,62
 462 571 462 571 383 571 c 259,63,64
 312 571 312 571 275 515 c 256,65,66
 230 445 230 445 230 364 c 256,67,68
 230 357 230 357 231 347 c 257,55,56
241 295 m 257,69,70
 247 269 247 269 256 235 c 256,71,72
 261 215 261 215 265 194 c 257,73,74
 308 184 308 184 340 184 c 259,75,76
 388 184 388 184 417 223 c 256,77,78
 437 250 437 250 437 301 c 259,79,80
 437 327 437 327 409 343 c 257,81,82
 337 304 337 304 241 295 c 257,69,70
EndSplineSet
Validated: 1
EndChar

StartChar: umacron
Encoding: 363 363 208
Width: 680
VWidth: 0
Flags: W
HStem: -180 105<152 271.5> 512 68<305.592 444.762>
VStem: 102 91<144 336.766> 465 90<354.01 492.76>
LayerCount: 2
Back
SplineSet
-58 30 m 257,0,1
 -69 31 -69 31 -71 44 c 257,2,3
 35 77 35 77 182 138 c 256,4,5
 319 194 319 194 386 254 c 256,6,7
 465 324 465 324 465 425 c 259,8,9
 465 512 465 512 387 512 c 259,10,11
 311 512 311 512 253 447 c 256,12,13
 193 381 193 381 193 244 c 259,14,15
 193 109 193 109 220 -49 c 256,16,17
 224.042 -75 224.042 -75 259 -75 c 259,18,19
 284 -75 284 -75 346 -36 c 257,20,21
 362 -42 362 -42 362 -59 c 257,22,23
 326 -95 326 -95 273 -131 c 280,24,25
 201 -180 201 -180 169 -180 c 259,26,27
 135 -180 135 -180 125 -126 c 280,28,29
 102 4 102 4 102 201 c 259,30,31
 102 355 102 355 203 477 c 256,32,33
 287 580 287 580 398 580 c 259,34,35
 493 580 493 580 525 544 c 256,36,37
 555 511 555 511 555 433 c 259,38,39
 555 349 555 349 450 253 c 256,40,41
 366 176 366 176 187 103 c 256,42,43
 35 41 35 41 -58 30 c 257,0,1
EndSplineSet
Fore
SplineSet
-58 30 m 0,0,1
 -69 31 -69 31 -71 44 c 1,2,3
 6 68 6 68 103 106 c 1,4,5
 102 151 102 151 102 201 c 3,6,7
 102 355 102 355 203 477 c 0,8,9
 287 580 287 580 398 580 c 3,10,11
 493 580 493 580 525 544 c 0,12,13
 555 511 555 511 555 433 c 3,14,15
 555 349 555 349 450 253 c 0,16,17
 369 179 369 179 199 108 c 1,18,19
 206 33 206 33 220 -49 c 0,20,21
 224 -75 224 -75 259 -75 c 3,22,23
 284 -75 284 -75 346 -36 c 1,24,25
 362 -42 362 -42 362 -59 c 1,26,27
 326 -95 326 -95 273 -131 c 0,28,29
 201 -180 201 -180 169 -180 c 3,30,31
 135 -180 135 -180 125 -126 c 0,32,33
 110 -41 110 -41 105 72 c 1,34,35
 8 38 8 38 -58 30 c 0,0,1
196 144 m 1,36,37
 322 197 322 197 386 254 c 0,38,39
 465 324 465 324 465 425 c 3,40,41
 465 512 465 512 387 512 c 3,42,43
 311 512 311 512 253 447 c 0,44,45
 193 381 193 381 193 244 c 3,46,47
 193 195 193 195 196 144 c 1,36,37
EndSplineSet
Validated: 1
EndChar

StartChar: uni0255
Encoding: 597 597 209
Width: 454
VWidth: 0
Flags: W
LayerCount: 2
Fore
SplineSet
-83.5996 460 m 5,0,-1
 -83.5996 424.16 l 5,1,-1
 454 424.16 l 5,2,-1
 454 460 l 5,3,-1
 -83.5996 460 l 5,0,-1
EndSplineSet
Validated: 9
EndChar

StartChar: uni0256
Encoding: 598 598 210
Width: 454
VWidth: 0
Flags: W
LayerCount: 2
Fore
SplineSet
-83.5996 460 m 5,0,-1
 -83.5996 424.16 l 5,1,-1
 454 424.16 l 5,2,-1
 454 460 l 5,3,-1
 -83.5996 460 l 5,0,-1
-83.5996 383.2 m 5,4,-1
 -83.5996 347.36 l 5,5,-1
 454 347.36 l 5,6,-1
 454 383.2 l 5,7,-1
 -83.5996 383.2 l 5,4,-1
EndSplineSet
Validated: 9
EndChar

StartChar: uni0257
Encoding: 599 599 211
Width: 454
VWidth: 0
Flags: W
LayerCount: 2
Fore
SplineSet
-83.5996 460 m 5,0,-1
 -83.5996 424.159 l 5,1,-1
 454 424.159 l 5,2,-1
 454 460 l 5,3,-1
 -83.5996 460 l 5,0,-1
-83.5996 383.199 m 5,4,-1
 -83.5996 347.359 l 5,5,-1
 454 347.359 l 5,6,-1
 454 383.199 l 5,7,-1
 -83.5996 383.199 l 5,4,-1
-83.5996 306.399 m 5,8,-1
 -83.5996 270.559 l 5,9,-1
 454 270.559 l 5,10,-1
 454 306.399 l 5,11,-1
 -83.5996 306.399 l 5,8,-1
EndSplineSet
Validated: 9
EndChar

StartChar: uni0258
Encoding: 600 600 212
Width: 454
VWidth: 0
Flags: W
LayerCount: 2
Fore
SplineSet
-83.5996 460 m 5,0,-1
 -83.5996 424.16 l 5,1,-1
 454 424.16 l 5,2,-1
 454 460 l 5,3,-1
 -83.5996 460 l 5,0,-1
-83.5996 383.2 m 5,4,-1
 -83.5996 347.36 l 5,5,-1
 454 347.36 l 5,6,-1
 454 383.2 l 5,7,-1
 -83.5996 383.2 l 5,4,-1
-83.5996 306.4 m 5,8,-1
 -83.5996 270.559 l 5,9,-1
 454 270.559 l 5,10,-1
 454 306.4 l 5,11,-1
 -83.5996 306.4 l 5,8,-1
-83.5996 229.6 m 5,12,-1
 -83.5996 193.76 l 5,13,-1
 454 193.76 l 5,14,-1
 454 229.6 l 5,15,-1
 -83.5996 229.6 l 5,12,-1
EndSplineSet
Validated: 9
EndChar

StartChar: uni025C
Encoding: 604 604 215
Width: 184
VWidth: 0
Flags: MW
LayerCount: 2
Fore
SplineSet
88 417 m 132,-1,1
 88 432 88 432 103 446 c 132,-1,2
 118 460 118 460 136 460 c 132,-1,3
 154 460 154 460 169 446 c 132,-1,4
 184 432 184 432 184 417 c 132,-1,5
 184 402 184 402 169 388 c 132,-1,6
 154 374 154 374 136 374 c 132,-1,7
 118 374 118 374 103 388 c 132,-1,0
 88 402 88 402 88 417 c 132,-1,1
EndSplineSet
Validated: 1
EndChar

StartChar: uni0180
Encoding: 384 384 216
Width: 1024
VWidth: 0
Flags: M
LayerCount: 2
Fore
SplineSet
411.99 70.8525 m 4,0,1
 362.091 70.8525 362.091 70.8525 321.366 90.0518 c 132,-1,2
 280.678 109.227 280.678 109.227 251.862 144.58 c 132,-1,3
 223.062 179.896 223.062 179.896 206.934 229.828 c 132,-1,4
 190.806 279.741 190.806 279.741 190.806 341.188 c 4,5,6
 190.806 404.956 190.806 404.956 208.47 458.309 c 132,-1,7
 226.129 511.677 226.129 511.677 257.238 549.7 c 132,-1,8
 288.329 587.701 288.329 587.701 330.582 608.836 c 132,-1,9
 372.82 629.956 372.82 629.956 421.206 629.956 c 4,10,11
 468.786 629.956 468.786 629.956 509.525 609.604 c 132,-1,12
 550.225 589.246 550.225 589.246 579.798 553.156 c 132,-1,13
 609.36 517.04 609.36 517.04 625.876 466.372 c 132,-1,14
 642.384 415.684 642.384 415.684 642.39 355.78 c 4,15,16
 642.39 291.274 642.39 291.274 625.878 238.66 c 132,-1,17
 609.353 186.046 609.353 186.046 579.031 148.804 c 132,-1,18
 548.673 111.533 548.673 111.533 506.07 91.2041 c 132,-1,19
 463.421 70.8525 463.421 70.8525 411.99 70.8525 c 4,0,1
419.67 563.908 m 132,-1,21
 388.182 563.908 388.182 563.908 360.534 548.932 c 132,-1,22
 332.882 533.955 332.882 533.955 312.534 505.54 c 132,-1,23
 292.176 477.118 292.176 477.118 280.278 435.652 c 132,-1,24
 268.374 394.222 268.374 394.222 268.374 341.188 c 4,25,26
 268.374 239.812 268.374 239.812 307.542 188.356 c 132,-1,27
 346.711 136.894 346.711 136.894 413.525 136.9 c 4,28,29
 483.402 136.9 483.402 136.9 524.886 191.812 c 132,-1,30
 566.358 246.712 566.358 246.712 566.357 355.78 c 4,31,32
 566.357 404.886 566.357 404.886 555.222 443.716 c 132,-1,33
 544.07 482.52 544.07 482.52 524.502 508.996 c 132,-1,34
 504.938 535.466 504.938 535.466 478.038 549.7 c 132,-1,20
 451.133 563.908 451.133 563.908 419.67 563.908 c 132,-1,21
EndSplineSet
Validated: 33
EndChar

StartChar: uni0181
Encoding: 385 385 217
Width: 1024
VWidth: 0
Flags: M
LayerCount: 2
Fore
SplineSet
453.974 81.6045 m 5,0,-1
 377.174 81.6045 l 5,1,-1
 377.174 513.988 l 5,2,3
 335.682 479.412 335.682 479.412 297.302 467.14 c 5,4,-1
 285.014 535.492 l 5,5,6
 301.087 540.838 301.087 540.838 317.653 549.7 c 132,-1,7
 334.154 558.518 334.154 558.518 349.142 569.668 c 132,-1,8
 364.07 580.757 364.07 580.757 376.789 593.477 c 132,-1,9
 389.445 606.131 389.445 606.131 397.91 619.204 c 5,10,-1
 453.974 619.204 l 5,11,-1
 453.974 81.6045 l 5,0,-1
EndSplineSet
Validated: 1
EndChar

StartChar: uni0182
Encoding: 386 386 218
Width: 1024
VWidth: 0
LayerCount: 2
Fore
SplineSet
556.373 81.6045 m 1,0,-1
 238.421 81.6045 l 1,1,2
 308.297 180.676 308.297 180.676 352.854 249.412 c 128,-1,3
 397.386 318.135 397.386 318.135 418.901 358.084 c 0,4,5
 461.903 437.95 461.903 437.95 461.909 474.82 c 0,6,7
 461.909 516.292 461.909 516.292 436.949 538.948 c 128,-1,8
 411.969 561.604 411.969 561.604 368.213 561.604 c 0,9,10
 296.777 561.604 296.777 561.604 243.029 490.179 c 1,11,-1
 233.813 554.692 l 1,12,13
 239.178 564.773 239.178 564.773 252.629 577.972 c 128,-1,14
 266.053 591.143 266.053 591.143 285.653 602.8 c 128,-1,15
 305.269 614.446 305.269 614.446 330.965 622.192 c 128,-1,16
 356.707 629.956 356.707 629.956 386.646 629.956 c 0,17,18
 428.859 629.956 428.859 629.956 457.687 616.516 c 128,-1,19
 486.484 603.07 486.484 603.07 503.767 581.956 c 128,-1,20
 521.031 560.841 521.031 560.841 528.342 534.34 c 128,-1,21
 535.638 507.824 535.638 507.824 535.638 482.502 c 0,22,23
 535.638 454.883 535.638 454.883 526.806 422.98 c 128,-1,24
 517.96 391.074 517.96 391.074 498.39 351.556 c 128,-1,25
 478.847 312.074 478.847 312.074 447.317 262.084 c 128,-1,26
 415.851 212.204 415.851 212.204 370.519 147.652 c 1,27,-1
 556.373 147.652 l 1,28,-1
 556.373 81.6045 l 1,0,-1
EndSplineSet
Validated: 1
EndChar

StartChar: uni0183
Encoding: 387 387 219
Width: 1024
VWidth: 0
LayerCount: 2
Fore
SplineSet
373.589 70.8525 m 0,0,1
 350.611 70.8525 350.611 70.8525 327.125 75.0762 c 128,-1,2
 303.731 79.2988 303.731 79.2988 283.351 85.8281 c 128,-1,3
 263.096 92.3105 263.096 92.3105 248.021 99.2686 c 128,-1,4
 233.013 106.195 233.013 106.195 227.669 111.556 c 1,5,-1
 245.333 179.14 l 1,6,7
 266.943 167.557 266.943 167.557 282.965 159.94 c 0,8,9
 299.199 152.204 299.199 152.204 313.302 146.884 c 128,-1,10
 327.477 141.513 327.477 141.513 342.102 139.204 c 128,-1,11
 356.682 136.9 356.682 136.9 374.357 136.9 c 0,12,13
 397.385 136.9 397.385 136.9 418.518 142.66 c 128,-1,14
 439.645 148.424 439.645 148.424 454.997 161.477 c 128,-1,15
 470.354 174.528 470.354 174.528 479.573 195.269 c 128,-1,16
 488.788 216.003 488.788 216.003 488.79 245.188 c 0,17,18
 488.789 268.192 488.789 268.192 482.262 286.661 c 128,-1,19
 475.732 305.081 475.732 305.081 460.758 318.148 c 128,-1,20
 445.771 331.207 445.771 331.207 421.587 338.116 c 128,-1,21
 397.397 345.027 397.397 345.027 361.302 345.028 c 2,22,-1
 305.237 345.028 l 1,23,-1
 312.917 403.396 l 1,24,-1
 341.333 403.396 l 2,25,26
 411.227 403.396 411.227 403.396 440.406 425.668 c 128,-1,27
 469.583 447.934 469.583 447.934 469.59 491.716 c 0,28,29
 469.59 563.896 469.59 563.896 378.197 563.908 c 0,30,31
 312.911 563.908 312.911 563.908 274.518 532.42 c 1,32,-1
 261.461 594.628 l 1,33,34
 273.751 606.919 273.751 606.919 305.621 618.438 c 128,-1,35
 337.481 629.956 337.481 629.956 385.877 629.956 c 0,36,37
 436.529 629.956 436.529 629.956 468.438 616.516 c 128,-1,38
 500.299 603.069 500.299 603.069 518.357 582.725 c 128,-1,39
 536.404 562.354 536.404 562.354 542.935 538.18 c 128,-1,40
 549.461 513.944 549.461 513.944 549.461 491.716 c 0,41,42
 549.461 459.46 549.461 459.46 534.102 432.964 c 128,-1,43
 518.713 406.442 518.713 406.442 479.573 379.588 c 1,44,45
 568.655 349.636 568.655 349.636 568.661 245.956 c 0,46,47
 568.661 204.49 568.661 204.49 553.302 171.844 c 128,-1,48
 537.919 139.173 537.919 139.173 511.445 116.548 c 128,-1,49
 484.949 93.8867 484.949 93.8867 449.237 82.3721 c 128,-1,50
 413.524 70.8525 413.524 70.8525 373.589 70.8525 c 0,0,1
EndSplineSet
Validated: 1
EndChar

StartChar: uni0184
Encoding: 388 388 220
Width: 1024
VWidth: 0
LayerCount: 2
Fore
SplineSet
343.052 168.521 m 1,0,-1
 343.052 70.5381 l 2,1,2
 343.052 56.0039 343.052 56.0039 328.286 56.0039 c 128,-1,3
 313.51 56.0039 313.51 56.0039 313.51 70.5381 c 2,4,-1
 313.51 155.871 l 1,5,-1
 298.51 149.771 l 2,6,7
 296.203 148.838 296.203 148.838 292.411 148.838 c 0,8,9
 286.321 148.838 286.321 148.838 281.629 153.521 c 128,-1,10
 276.946 158.191 276.946 158.191 276.946 164.304 c 2,11,-1
 276.946 212.138 l 2,12,13
 276.946 222.441 276.946 222.441 286.786 226.663 c 2,14,-1
 313.511 237.917 l 1,15,-1
 313.511 336.375 l 1,16,-1
 298.512 330.279 l 2,17,18
 297.106 329.812 297.106 329.812 294.762 329.812 c 2,19,-1
 292.412 329.812 l 2,20,21
 285.383 330.751 285.383 330.751 281.162 334.971 c 128,-1,22
 276.947 339.192 276.947 339.192 276.947 344.816 c 2,23,-1
 276.947 392.641 l 2,24,25
 276.947 402.486 276.947 402.486 286.787 406.708 c 2,26,-1
 313.512 417.957 l 1,27,-1
 313.512 517.828 l 2,28,29
 313.512 532.359 313.512 532.359 328.288 532.361 c 128,-1,30
 343.05 532.361 343.05 532.361 343.055 517.828 c 2,31,-1
 343.055 430.149 l 1,32,-1
 403.542 455.466 l 1,33,-1
 403.542 553.461 l 2,34,35
 403.542 567.994 403.542 567.994 418.074 567.994 c 128,-1,36
 432.608 567.994 432.608 567.994 432.608 553.461 c 2,37,-1
 432.608 467.19 l 1,38,-1
 449.023 474.219 l 2,39,40
 451.334 475.157 451.334 475.157 454.173 475.157 c 0,41,42
 460.267 475.157 460.267 475.157 465.19 470.47 c 128,-1,43
 470.108 465.788 470.108 465.788 470.108 459.688 c 2,44,-1
 470.108 411.861 l 2,45,46
 470.108 401.544 470.108 401.544 459.791 397.328 c 2,47,-1
 432.608 386.074 l 1,48,-1
 432.608 287.145 l 1,49,-1
 449.023 293.711 l 2,50,51
 450.415 294.178 450.415 294.178 452.29 294.178 c 2,52,-1
 454.173 294.178 l 1,53,54
 462.144 292.772 462.144 292.772 466.124 289.02 c 128,-1,55
 470.108 285.283 470.108 285.283 470.108 279.175 c 2,56,-1
 470.108 231.35 l 2,57,58
 470.108 221.497 470.108 221.497 459.791 217.288 c 2,59,-1
 432.608 206.038 l 1,60,-1
 432.608 106.172 l 2,61,62
 432.608 91.6396 432.608 91.6396 418.074 91.6396 c 128,-1,63
 403.542 91.6396 403.542 91.6396 403.542 106.172 c 2,64,-1
 403.542 193.854 l 1,65,-1
 343.052 168.521 l 1,0,-1
343.052 250.104 m 1,66,-1
 403.54 274.955 l 1,67,-1
 403.54 373.889 l 1,68,-1
 343.052 348.567 l 1,69,-1
 343.052 250.104 l 1,66,-1
EndSplineSet
Validated: 1
EndChar

StartChar: uni0185
Encoding: 389 389 221
Width: 1024
VWidth: 0
LayerCount: 2
Fore
SplineSet
590.165 227.524 m 1,0,-1
 524.885 227.524 l 1,1,-1
 524.885 81.6045 l 1,2,-1
 448.086 81.6045 l 1,3,-1
 448.086 227.524 l 1,4,-1
 216.918 227.524 l 1,5,-1
 464.213 619.204 l 1,6,-1
 524.885 619.204 l 1,7,-1
 524.885 293.572 l 1,8,-1
 590.165 293.572 l 1,9,-1
 590.165 227.524 l 1,0,-1
448.086 293.572 m 1,10,-1
 448.086 488.645 l 1,11,-1
 330.581 293.572 l 1,12,-1
 448.086 293.572 l 1,10,-1
EndSplineSet
Validated: 1
EndChar

StartChar: uni0186
Encoding: 390 390 222
Width: 1024
VWidth: 0
LayerCount: 2
Fore
SplineSet
358.998 70.8525 m 0,0,1
 342.144 70.8525 342.144 70.8525 321.365 73.54 c 128,-1,2
 300.491 76.2578 300.491 76.2578 281.43 80.8359 c 128,-1,3
 262.181 85.4541 262.181 85.4541 248.022 90.8203 c 128,-1,4
 233.844 96.167 233.844 96.167 229.205 100.804 c 1,5,-1
 246.869 169.156 l 1,6,7
 302.165 136.9 302.165 136.9 358.229 136.9 c 0,8,9
 385.139 136.9 385.139 136.9 408.149 146.536 c 128,-1,10
 431.178 156.161 431.178 156.161 448.468 172.731 c 128,-1,11
 465.739 189.282 465.739 189.282 475.733 211.648 c 128,-1,12
 485.718 234.034 485.718 234.034 485.718 260.212 c 0,13,14
 485.718 308.758 485.718 308.758 447.701 331.888 c 128,-1,15
 409.666 355.012 409.666 355.012 323.67 355.012 c 2,16,-1
 258.39 355.012 l 1,17,-1
 290.646 619.204 l 1,18,-1
 534.869 619.204 l 1,19,-1
 527.957 553.156 l 1,20,-1
 349.014 553.156 l 1,21,-1
 333.653 419.524 l 1,22,23
 395.823 419.524 395.823 419.524 440.021 409.924 c 128,-1,24
 484.174 400.312 484.174 400.312 511.829 381.124 c 128,-1,25
 539.455 361.934 539.455 361.934 552.533 332.356 c 128,-1,26
 565.59 302.767 565.59 302.767 565.59 262.853 c 0,27,28
 565.59 219.858 565.59 219.858 548.693 184.516 c 128,-1,29
 531.797 149.193 531.797 149.193 503.764 123.844 c 128,-1,30
 475.722 98.501 475.722 98.501 438.102 84.6758 c 128,-1,31
 400.465 70.8525 400.465 70.8525 358.998 70.8525 c 0,0,1
EndSplineSet
Validated: 1
EndChar

StartChar: uni0187
Encoding: 391 391 223
Width: 1024
VWidth: 0
LayerCount: 2
Fore
SplineSet
391.253 70.8525 m 0,0,1
 352.842 70.8525 352.842 70.8525 322.134 82.3721 c 128,-1,2
 291.407 93.8916 291.407 93.8916 269.142 117.7 c 128,-1,3
 246.872 141.478 246.872 141.478 234.966 178.372 c 128,-1,4
 223.062 215.199 223.062 215.199 223.062 265.923 c 0,5,6
 223.062 341.222 223.062 341.222 246.485 405.7 c 128,-1,7
 269.909 470.227 269.909 470.227 304.854 517.444 c 128,-1,8
 339.77 564.646 339.77 564.646 380.117 591.556 c 128,-1,9
 420.438 618.43 420.438 618.43 453.461 619.206 c 1,10,-1
 503.382 590.021 l 1,11,12
 472.692 576.212 472.692 576.212 443.479 558.532 c 128,-1,13
 414.281 540.856 414.281 540.856 388.95 514.372 c 128,-1,14
 363.6 487.869 363.6 487.869 342.485 449.477 c 128,-1,15
 321.347 411.052 321.347 411.052 306.772 355.78 c 1,16,17
 342.09 404.164 342.09 404.164 415.062 404.164 c 0,18,19
 449.621 404.164 449.621 404.164 479.574 393.796 c 128,-1,20
 509.525 383.428 509.525 383.428 531.413 363.844 c 128,-1,21
 553.287 344.273 553.287 344.273 565.589 315.076 c 128,-1,22
 577.877 285.85 577.877 285.85 577.877 249.028 c 0,23,24
 577.877 211.426 577.877 211.426 564.438 179.14 c 128,-1,25
 550.991 146.884 550.991 146.884 526.421 122.692 c 128,-1,26
 501.832 98.501 501.832 98.501 467.669 84.6758 c 128,-1,27
 433.487 70.8525 433.487 70.8525 391.253 70.8525 c 0,0,1
408.558 341.956 m 0,28,29
 386.215 341.956 386.215 341.956 366.545 334.3 c 128,-1,30
 346.889 326.649 346.889 326.649 332.237 312.88 c 128,-1,31
 317.576 299.082 317.576 299.082 308.729 279.592 c 128,-1,32
 299.861 260.09 299.861 260.09 299.861 236.367 c 0,33,34
 299.861 211.119 299.861 211.119 307.566 192.363 c 128,-1,35
 315.262 173.626 315.262 173.626 329.153 160.995 c 128,-1,36
 343.021 148.367 343.021 148.367 361.529 141.866 c 128,-1,37
 379.999 135.362 379.999 135.362 400.853 135.362 c 0,38,39
 426.287 135.362 426.287 135.362 445.564 144.542 c 128,-1,40
 464.848 153.735 464.848 153.735 477.94 169.021 c 128,-1,41
 491.043 184.322 491.043 184.322 497.596 204.23 c 128,-1,42
 504.149 224.12 504.149 224.12 504.147 246.314 c 0,43,44
 504.147 264.635 504.147 264.635 499.132 281.881 c 128,-1,45
 494.13 299.087 494.13 299.087 482.56 312.494 c 128,-1,46
 471.012 325.877 471.012 325.877 452.885 333.915 c 128,-1,47
 434.731 341.956 434.731 341.956 408.558 341.956 c 0,28,29
EndSplineSet
Validated: 33
EndChar

StartChar: uni0188
Encoding: 392 392 224
Width: 1024
VWidth: 0
LayerCount: 2
Fore
SplineSet
573.27 619.204 m 1,0,-1
 340.565 81.6045 l 1,1,-1
 263.766 81.6045 l 1,2,-1
 467.285 553.156 l 1,3,-1
 225.365 553.156 l 1,4,-1
 225.365 619.204 l 1,5,-1
 573.27 619.204 l 1,0,-1
EndSplineSet
Validated: 1
EndChar

